<?xml version="1.0" standalone="no"?>
<!DOCTYPE svg PUBLIC "-//W3C//DTD SVG 1.1//EN" "http://www.w3.org/Graphics/SVG/1.1/DTD/svg11.dtd" >
<svg xmlns="http://www.w3.org/2000/svg" width="100%" height="100%">
<metadata>
Created by FontXChange 20110222 at Fri Aug 22 20:33:03 2014
 By Viktor Solovey
Copyright (c) 2003, 2006 Parachute :, www.parachute.gr.  All rights reserved.
</metadata>
<defs>
<font id="PFReminderPro-Regular" horiz-adv-x="249" >
  <font-face 
    font-family="PFReminderPro"
    font-weight="400"
    font-stretch="normal"
    units-per-em="1000"
    panose-1="2 0 5 6 0 0 0 2 0 3"
    ascent="750"
    descent="-250"
    x-height="369"
    cap-height="710"
    bbox="-143 -420 1075.76 911.286"
    underline-thickness="50"
    underline-position="-105"
    unicode-range="U+0020-F6D4"
  />
<missing-glyph horiz-adv-x="509" 
d="M101 -49q-14 5 -17 9t-3 14q0 77 2.5 154t5 153.5t2.5 153t-5 152.5q-17 2 -24 14t-7 23q0 10 7 14t17 4q4 0 3 0t2 -1q58 -5 119 -12.5t121 -7.5q11 0 28 1.5t34 1.5q21 0 40.5 -4t19.5 -18q0 -5 -4 -13t-14 -13q1 -30 1 -60v-60q0 -109 -2.5 -216t-10.5 -219
q7 -6 7 -16q0 -8 -7.5 -19t-19.5 -13q-33 0 -71 -3.5t-77 -7.5t-77 -7.5t-70 -3.5zM132 14q12 39 27 72.5t30 63.5t28 58t21 57l-93 243q0 -60 -2 -124t-4 -128.5t-4 -126t-3 -115.5zM373 550q-26 -74 -46.5 -144t-40.5 -137q11 -30 20 -53t18 -44.5t20 -46t26 -57.5
q3 85 3 179q0 51 -0.5 100.5t-0.5 98.5v53t1 51zM338 567q-41 0 -81.5 2t-81.5 6q20 -46 41.5 -108t44.5 -126q16 54 34 108t43 118zM170 7q16 0 38.5 1.5t46.5 3.5t47.5 3.5t41.5 3.5q-11 18 -18 38.5t-16 38.5q-11 22 -22.5 47t-22.5 53q-8 -25 -20.5 -49.5t-26 -48.5
t-26.5 -46.5t-22 -44.5z" />
    <glyph glyph-name=".notdef" horiz-adv-x="509" 
d="M101 -49q-14 5 -17 9t-3 14q0 77 2.5 154t5 153.5t2.5 153t-5 152.5q-17 2 -24 14t-7 23q0 10 7 14t17 4q4 0 3 0t2 -1q58 -5 119 -12.5t121 -7.5q11 0 28 1.5t34 1.5q21 0 40.5 -4t19.5 -18q0 -5 -4 -13t-14 -13q1 -30 1 -60v-60q0 -109 -2.5 -216t-10.5 -219
q7 -6 7 -16q0 -8 -7.5 -19t-19.5 -13q-33 0 -71 -3.5t-77 -7.5t-77 -7.5t-70 -3.5zM132 14q12 39 27 72.5t30 63.5t28 58t21 57l-93 243q0 -60 -2 -124t-4 -128.5t-4 -126t-3 -115.5zM373 550q-26 -74 -46.5 -144t-40.5 -137q11 -30 20 -53t18 -44.5t20 -46t26 -57.5
q3 85 3 179q0 51 -0.5 100.5t-0.5 98.5v53t1 51zM338 567q-41 0 -81.5 2t-81.5 6q20 -46 41.5 -108t44.5 -126q16 54 34 108t43 118zM170 7q16 0 38.5 1.5t46.5 3.5t47.5 3.5t41.5 3.5q-11 18 -18 38.5t-16 38.5q-11 22 -22.5 47t-22.5 53q-8 -25 -20.5 -49.5t-26 -48.5
t-26.5 -46.5t-22 -44.5z" />
    <glyph glyph-name=".null" horiz-adv-x="0" 
 />
    <glyph glyph-name="nonmarkingreturn" horiz-adv-x="333" 
 />
    <glyph glyph-name="space" unicode=" " horiz-adv-x="270" 
 />
    <glyph glyph-name="exclam" unicode="!" horiz-adv-x="228" 
d="M160 48q2 -17 -1 -28t-8.5 -17.5t-13 -9t-13.5 -2.5q-14 0 -30.5 12t-19.5 38q-2 26 5 34.5t27 10.5q17 2 34 -4.5t20 -33.5zM151 434q-3 -19 -4 -39t-1 -45q0 -24 1 -54.5t4 -70.5q1 -15 -2 -30t-11 -24.5t-20 -11t-29 9.5q-12 7 -12 45q0 19 1 41t3 48t5 52.5t6 50.5
l5.5 44t3.5 33q5 49 8 89.5t6 71.5q6 63 13 69q8 7 24 9.5t30 -13.5q2 -2 4 -5.5t2.5 -11t0 -20.5t-3.5 -35q-5 -39 -9.5 -69t-9 -54t-8.5 -43t-7 -37z" />
    <glyph glyph-name="quotedbl" unicode="&#x22;" horiz-adv-x="252" 
d="M203 629q-1 -5 -1.5 -16t-0.5 -18q0 -14 4 -29q2 -9 -1 -16.5t-9 -12t-12.5 -6t-10.5 0.5q-18 11 -21 59q-1 23 1 51t4 43q2 26 11.5 33.5t15.5 7.5q9 0 17 -6.5t10 -14.5q1 -7 0 -29q-1 -15 -3 -25.5t-4 -21.5zM99 629q-1 -5 -1.5 -16t-0.5 -18q0 -14 4 -29
q2 -9 -1 -16.5t-9 -12t-12.5 -6t-10.5 0.5q-18 11 -21 59q-1 23 1 51t4 43q2 26 11.5 33.5t15.5 7.5q9 0 17 -6.5t10 -14.5q1 -7 0 -29q-2 -15 -3.5 -25.5t-3.5 -21.5z" />
    <glyph glyph-name="numbersign" unicode="#" horiz-adv-x="600" 
d="M364 572q-12 -16 -25 -39t-25 -48t-23 -49.5t-19 -42.5l-2 -3l146 -3q7 17 18.5 41t24 49.5t24 50t18.5 41.5q5 11 15 14t18.5 -1t13 -12.5t-0.5 -20.5q-6 -15 -15.5 -35.5t-20 -43t-21.5 -44.5l-20 -40h10l48 -1.5t29 -1.5q14 -1 21 -9.5t6 -19.5q0 -11 -7.5 -19
t-21.5 -7q-24 1 -50 2t-58 3q-8 -20 -16 -38.5t-15 -35.5q27 -2 46 -3t34 -2t29.5 -2.5t33.5 -4.5q13 -2 18.5 -11.5t3.5 -19.5t-10.5 -17t-21.5 -4q-21 4 -38.5 6t-35 3.5t-36.5 2t-43 1.5q-21 -52 -42 -103.5t-52 -115.5q-5 -12 -14.5 -14t-18 2.5t-13 13.5t0.5 20
q28 58 47.5 104.5t38.5 94.5q-29 2 -56 2.5t-40 0.5h-32h-20t-21 -1q-16 -32 -32 -62.5t-29 -58t-21.5 -50.5t-10.5 -38q-2 -12 -10.5 -17.5t-17.5 -4.5t-16 8.5t-6 19.5q5 34 29.5 88t56.5 114h-1q-14 -1 -26 -1h-20h-30q-12 0 -18 7.5t-6 15.5q0 9 6 16.5t18 7.5
q20 0 48 -0.5t54 0.5l45 83q-32 -1 -59.5 -1.5t-44.5 1.5q-24 4 -22 26q1 9 7.5 15.5t17.5 5.5q9 -1 23.5 -1h31.5t35.5 1t36.5 1q4 8 7.5 14.5t5.5 12.5q9 19 20.5 44t24.5 51t26.5 50.5t26.5 41.5q8 10 18 10.5t17.5 -5t10 -15.5t-5.5 -20zM393 335q-45 2 -79.5 3t-69.5 2
l-43 -79q9 1 15.5 1h11.5h19q23 0 53.5 -1t61.5 -3q8 19 15.5 38t15.5 39z" />
    <glyph glyph-name="dollar" unicode="$" horiz-adv-x="536" 
d="M332 2q-29 -12 -57 -18q-1 -8 -1.5 -14.5t-0.5 -13.5q0 -13 -3 -28q-3 -14 -5 -20.5t-13 -4.5q-10 2 -16.5 10.5t-3.5 22.5l4 40q-6 -2 -12 -2.5t-12 -1.5q-29 -3 -55.5 -4t-48.5 -3q-14 -1 -28 3t-18 16q-5 14 -1 27.5t11 17.5q9 4 24 -1l7 -3l8 -2q11 -1 28.5 -0.5
t39.5 1.5q16 1 31 3t29 4q2 33 4 70l4 74t3.5 72t2.5 64l-14 5q-20 6 -39 12t-37 13q-18 6 -34.5 13t-30.5 15q-29 16 -46 36t-14 47q4 39 26.5 69.5t56.5 54t76 38.5t85 22l2 10q3 25 9 51q4 22 27 17q16 -3 12 -25q-2 -10 -4 -19.5t-3 -20.5l-1 -8q18 2 35 2.5t33 -1.5
q10 -1 25.5 -2t30.5 -4q14 -3 26 -9t12 -17q-1 -8 -1.5 -16.5t-5.5 -14.5q-11 -15 -43 -7q-4 2 -9 7t-10 5q-3 1 -10 1q-6 0 -8 1q-20 2 -40.5 1.5t-40.5 -2.5q-3 -29 -5.5 -60t-5 -61.5t-3.5 -59t-1 -50.5q8 -2 14 -4t10 -4q41 -15 76 -31.5t61 -36.5t40.5 -44.5
t14.5 -54.5q-1 -36 -19 -63.5t-45 -48.5t-60 -37t-63 -28zM280 41q47 14 94 41q13 8 27 18.5t26 23t19.5 27.5t7.5 32q0 22 -14.5 39.5t-35.5 30.5t-44.5 22t-41.5 15q-4 2 -8 3t-9 3v-3q0 -27 -2 -58.5t-5.5 -64.5l-7 -66t-6.5 -63zM276 577q-34 -7 -64.5 -19.5t-54.5 -28
t-38.5 -33.5t-16.5 -37q-2 -20 26.5 -38.5t68.5 -33.5l30 -10t29 -10q2 22 4 49t4.5 54.5t5.5 55t6 51.5z" />
    <glyph glyph-name="percent" unicode="%" horiz-adv-x="509" 
d="M235 582q7 -46 -12 -83t-49 -60.5t-63.5 -32t-55.5 2.5q-20 10 -36 38.5t-16 63.5q0 24 12 50q29 61 58.5 89t59.5 30q10 1 26 -3t31.5 -15.5t28 -31t16.5 -48.5zM507 178q7 -46 -12 -83t-49 -60.5t-63.5 -32t-55.5 2.5q-20 9 -35.5 38t-15.5 64q0 22 11 49
q29 63 58.5 90.5t59.5 29.5q10 1 26 -3.5t31.5 -16t28 -31t16.5 -47.5zM180 603q-5 11 -10.5 17.5t-19.5 10.5q-6 -1 -17.5 -6t-24 -16.5t-26 -30.5t-24.5 -48q-4 -9 -4 -22q0 -17 7.5 -34.5t21.5 -22.5q9 -3 22 1t25.5 12.5t23.5 19t16 20.5q13 25 17.5 49.5t-7.5 49.5z
M452 199q-5 11 -10.5 17.5t-19.5 10.5q-6 -2 -17.5 -7.5t-24 -16.5t-26 -29.5t-24.5 -47.5q-4 -9 -4 -23q0 -17 7.5 -34t21.5 -22q9 -3 22 1t25.5 12.5t23.5 19t16 20.5q13 25 17.5 49.5t-7.5 49.5zM438 589q-17 -33 -41 -71.5t-49 -77.5t-48.5 -77t-39.5 -71
q-26 -51 -50 -105.5t-43 -109.5q4 -21 2.5 -34.5t-6 -21t-11 -10.5t-11.5 -3q-17 -1 -30.5 10t-13.5 26q0 6 11 32.5t29 67.5t42 91.5t50.5 104.5t53.5 107.5t51 99t43.5 80t31.5 50.5q12 17 25 21t33 -13q8 -7 -0.5 -31.5t-28.5 -64.5z" />
    <glyph glyph-name="ampersand" unicode="&#x26;" horiz-adv-x="612" 
d="M548 54q-20 14 -40 30t-46 40q-32 -44 -67 -81.5t-71.5 -66t-73 -47t-71.5 -24.5q-6 -1 -11.5 -2t-11.5 -3q-5 -1 -9.5 -2t-9.5 -1q-30 0 -53.5 10t-39 27t-23.5 38.5t-8 44.5q0 57 22 105.5t56 93.5q34 46 73.5 86t76.5 85q2 3 6 6.5t12 11.5q-19 37 -29 71t-10 73
q0 44 14.5 74t39.5 48.5t58 26.5t70 8q51 0 77 -22t26 -71q0 -28 -7.5 -51t-21 -43t-31 -37.5t-37.5 -34.5q-14 -11 -29 -23t-35 -29q22 -32 41 -57.5t34 -51.5q7 -11 14.5 -23.5t24.5 -35.5q24 48 35.5 80.5t12.5 59.5q1 13 9 19t19 5q10 0 17.5 -6.5t7.5 -19.5
q-3 -79 -61 -184q23 -23 44 -40t44 -32q14 -9 15 -22.5t-6.5 -24t-20.5 -14.5t-26 6zM402 641q-60 0 -87.5 -20.5t-27.5 -71.5q0 -22 5.5 -44.5t18.5 -54.5q25 21 47.5 41.5t40 41t28 40.5t10.5 40q0 18 -12 23t-23 5zM294 347q-36 -42 -71.5 -78.5t-66.5 -76.5t-53.5 -83.5
t-22.5 -91.5q0 -21 15 -37t42 -16q33 0 70 16.5t74 45t72.5 65.5t66.5 79q-35 42 -64.5 84t-61.5 93z" />
    <glyph glyph-name="quotesingle" unicode="'" horiz-adv-x="166" 
d="M114 629q-2 -11 -2.5 -33.5t4.5 -39.5q3 -9 -1 -16.5t-11 -12t-15.5 -6t-14.5 0.5q-24 11 -27 59q0 12 0.5 26.5t1 29.5t2 27.5t2.5 20.5q3 26 15.5 33.5t20.5 7.5q11 0 21.5 -6.5t12.5 -14.5q1 -4 1.5 -11t-0.5 -18q-2 -15 -5 -25.5t-5 -21.5z" />
    <glyph glyph-name="parenleft" unicode="(" horiz-adv-x="321" 
d="M269 -116q-10 -11 -24 -13.5t-28 9.5q-28 23 -50 60.5t-38.5 83t-28 96.5t-18.5 100.5t-10.5 94.5t-3.5 80q0 49 7.5 109t23 118.5t40.5 109.5t61 83q10 9 21.5 7.5t19 -9t8 -19t-10.5 -21.5q-29 -26 -48.5 -74.5t-30.5 -103.5t-15.5 -109t-4.5 -91q0 -24 3 -62t9 -82.5
t16 -92t24 -90.5t32.5 -78t41.5 -54q14 -12 14 -26q0 -16 -10 -26z" />
    <glyph glyph-name="parenright" unicode=")" horiz-adv-x="304" 
d="M151 -25q-15 -24 -32 -44t-37 -34q-14 -11 -25.5 -10t-19.5 11q-9 11 -8.5 23.5t14.5 22.5q14 11 36 40q35 48 57.5 93t35 90t17.5 91t5 97q0 29 -5.5 72t-17 92t-28.5 100t-40 97q-17 34 -12.5 49.5t14.5 19.5q11 5 23.5 0.5t14.5 -19.5q23 -51 45 -105t39.5 -110
t28.5 -113t11 -114q0 -60 -6.5 -103.5t-20.5 -81.5t-36 -76.5t-53 -87.5z" />
    <glyph glyph-name="asterisk" unicode="*" horiz-adv-x="459" 
d="M77 511q29 9 55.5 18.5t52.5 19.5q-21 19 -40 40t-34 45q-4 6 -2 12t7 9t11 2t10 -7q11 -18 27 -34.5t35 -30.5q-2 24 -5 47.5t-9 45.5q-2 7 1.5 12t9 6.5t11 -1t7.5 -9.5q6 -23 11 -47.5t10 -49.5q23 23 49 42.5t55 35.5q6 4 11.5 2t8.5 -7t2 -11t-8 -10q-14 -8 -26 -21
t-23 -27q14 5 29 9l30 8q12 3 20.5 -3t11 -15.5t-2 -18.5t-16.5 -12q-27 -7 -52 -13t-49 -13q24 -14 46.5 -27.5t41.5 -27.5q10 -7 10.5 -17t-5 -17.5t-15.5 -10t-20 4.5l-81 57q5 -23 9.5 -44.5t10.5 -42.5q3 -14 -3.5 -22.5t-16.5 -11t-19.5 1.5t-12.5 17q-6 22 -9.5 45
t-5.5 46q-17 -18 -32 -37t-29 -39q-7 -11 -17.5 -12t-19 4.5t-11.5 16t4 21.5q11 17 23.5 32t25.5 29q-16 -5 -31.5 -9.5t-31.5 -9.5q-7 -2 -12 1.5t-6.5 9t0.5 11t9 7.5z" />
    <glyph glyph-name="plus" unicode="+" horiz-adv-x="420" 
d="M376 209q-25 1 -58.5 3t-71.5 6q-2 -20 -3 -38.5t-1 -34.5t0.5 -31t1.5 -31q1 -17 -9 -25.5t-24 -9.5q-14 -2 -24.5 6t-11.5 26q-2 32 0.5 64t7.5 76q-25 -1 -38.5 -2t-28.5 -1t-35.5 1.5t-35.5 1.5t-22.5 9.5t-7.5 20.5t7.5 20.5t22.5 9.5q20 0 37 -0.5t33 -1t33.5 -0.5
t38.5 2v121q0 15 9 22.5t21 7.5q21 -2 26.5 -14.5t3.5 -26.5q0 -10 0.5 -27.5t0.5 -39.5v-44q38 -2 71 -3t58 -2q17 0 24.5 -10t7.5 -23t-8 -23t-25 -9z" />
    <glyph glyph-name="comma" unicode="," horiz-adv-x="151" 
d="M96 62q16 -24 26.5 -50.5t10.5 -60.5q0 -14 -5 -31t-13 -31.5t-18.5 -24.5t-21.5 -10q-12 0 -21 13t-9 27q0 8 5 14.5t10.5 12.5t10.5 13t5 17q0 13 -5 26t-11 24t-11 20.5t-5 17.5q0 14 10 25.5t21 11.5q13 0 21 -14z" />
    <glyph glyph-name="hyphen" unicode="-" horiz-adv-x="316" 
d="M63 187q-12 0 -18.5 9.5t-6.5 20.5q0 12 6.5 21.5t18.5 9.5q48 0 93 -2.5t96 -2.5q13 0 19.5 -10.5t6.5 -22.5t-6.5 -22.5t-19.5 -10.5q-51 0 -96 5t-93 5z" />
    <glyph glyph-name="period" unicode="." horiz-adv-x="153" 
d="M86 -2q-14 0 -29.5 13t-17.5 40q-3 28 4 37t26 12q4 1 8 1h9q13 0 23.5 -7t12.5 -29q2 -18 -1.5 -31t-9 -21t-12.5 -11.5t-13 -3.5z" />
    <glyph glyph-name="slash" unicode="/" horiz-adv-x="416" 
d="M372 620q-18 -33 -44 -76t-53.5 -88t-53 -88t-42.5 -76q-13 -26 -27 -59t-27.5 -68.5t-26 -70t-22.5 -61.5q-15 -31 -24 -49t-15.5 -27t-12 -11.5t-11.5 -2.5q-8 0 -11 6t-3 14q0 9 2 19t3 18q1 7 13 37t33 75.5t47.5 102.5t55.5 117t58.5 119.5t56 109.5t47.5 87t33 53
q16 22 35 22q8 0 16 -4.5t8 -15.5q0 -13 -9.5 -34.5t-25.5 -48.5z" />
    <glyph glyph-name="zero" unicode="0" horiz-adv-x="630" 
d="M510 422q1 35 -8 69.5t-28 62t-48 44.5t-68 17q-34 0 -66 -16t-59 -39.5t-46.5 -50.5t-28.5 -50q-6 -17 -10.5 -37.5t-7 -42.5t-4 -43t-1.5 -38q0 -11 0.5 -27.5t1.5 -36.5q2 -20 3 -41t6 -42q4 -20 11.5 -42.5t20.5 -41.5t31 -31t43 -12q35 0 67.5 20.5t61 54t52 76
t40.5 87t26.5 86.5t10.5 74zM74 326q-9 11 -14 18.5t-6.5 14.5t-0.5 15.5t4 22.5q12 39 41.5 87.5t69.5 88.5q2 2 2.5 3.5t2.5 2.5q51 48 100.5 68.5t95.5 20.5q42 0 78 -17t63 -47.5t43 -73.5t17 -95q1 -39 -10.5 -89.5t-33 -103t-51.5 -103t-65 -90t-73.5 -63.5t-77.5 -24
q-44 0 -75.5 18.5t-52.5 48t-33.5 68t-18.5 78.5t-6.5 78.5t1.5 69.5l1 4z" />
    <glyph glyph-name="one" unicode="1" horiz-adv-x="451" 
d="M317 576q-18 -103 -34 -215t-30 -215q0 -3 -2.5 -19t-4.5 -36q-1 -11 -1.5 -21t-0.5 -20q0 -20 4 -27l2 -4t3 -5q5 -11 3 -21t-9.5 -17.5t-18.5 -11t-24 -0.5q-15 4 -25.5 20t2.5 47q3 38 6 67.5t7 58.5t9 61t12 74.5t16 98.5t21 133q1 15 2 40t5 49q4 20 8.5 35t17.5 17
q10 2 24 -2.5t16 -17.5q1 -8 -1 -22.5t-7 -46.5z" />
    <glyph glyph-name="two" unicode="2" horiz-adv-x="642" 
d="M257 472q-3 -14 -13.5 -20.5t-22.5 -6.5q-13 0 -23 7.5t-10 24.5q3 27 22 56.5t48.5 54t65 41t70.5 16.5q55 0 89 -37t34 -112q1 -56 -16 -111t-39 -103q-21 -47 -48.5 -89t-63.5 -78q57 -41 115.5 -71.5t128.5 -50.5q13 -4 19 -11.5t6 -14.5q0 -11 -10.5 -19.5
t-26.5 -8.5q-7 0 -11 1q-75 21 -140.5 53t-128.5 80q-18 -15 -41.5 -28.5t-49 -24.5t-51.5 -17.5t-49 -6.5q-24 0 -42 8t-30 21t-17.5 30t-5.5 36q0 22 8.5 44.5t24.5 40.5t40 29.5t56 11.5q45 0 82 -20.5t72 -45.5q33 35 61 79t47.5 92t30.5 96t11 91q0 31 -11.5 54
t-42.5 23q-22 0 -45.5 -11t-43.5 -28t-33.5 -37t-15.5 -38zM189 74q35 15 64 37q-23 17 -51 33.5t-54 16.5q-15 0 -27 -7t-20.5 -18t-13.5 -23.5t-5 -24.5q0 -33 38 -33q18 0 35 5.5t34 13.5z" />
    <glyph glyph-name="three" unicode="3" horiz-adv-x="556" 
d="M208 423q19 8 46.5 25.5t54 40.5t48 49t27.5 51q2 8 -6.5 14t-22.5 5q-66 -5 -132 -18t-137 -36q-14 -4 -23 2.5t-12 16.5t1.5 20t17.5 14q71 25 145.5 39t152.5 14q11 0 25.5 -2.5t27 -8.5t21 -16.5t8.5 -25.5q0 -27 -17 -56t-40.5 -56t-49.5 -49.5t-44 -37.5
q120 -10 174.5 -66.5t54.5 -144.5q0 -49 -21 -94t-56.5 -84t-81 -71t-95 -56t-99 -38.5t-91.5 -18.5q-14 -1 -21.5 7t-8 18t5.5 19.5t19 11.5q36 3 78.5 15t86 32t83.5 47t71.5 60t50 71.5t18.5 80.5q0 49 -19 79.5t-50 48t-69.5 23t-77 4.5t-73 -7.5t-57.5 -13.5
q-2 -1 -4.5 -2t-7.5 -2h-1q-13 -4 -22 2.5t-12 16.5t1.5 20.5t17.5 14.5q27 8 57 19.5t58 22.5z" />
    <glyph glyph-name="four" unicode="4" horiz-adv-x="606" 
d="M504 249q-13 1 -27 1.5t-30 0.5q-9 -47 -15.5 -93.5t-10.5 -89t-6 -80t-2 -66.5q0 -15 -9 -22.5t-21 -7.5q-11 0 -20.5 7.5t-9.5 22.5q-2 75 5 159t23 169q-37 -1 -77 -4t-79 -8.5t-75.5 -13.5t-67.5 -19q-28 -10 -38 4.5t1 40.5q21 49 48 107t58.5 116t67 112.5
t73.5 96.5q10 11 23 12.5t23 -4t13 -15.5t-7 -21q-30 -34 -62 -82t-61 -99t-53.5 -99.5t-39.5 -84.5q78 12 141.5 17.5t124.5 6.5q19 81 45 154t58 130q8 13 20 15t22 -4t14 -17t-4 -24q-29 -46 -51 -113t-39 -142l45 -3q15 -1 22.5 -10.5t7.5 -21.5q0 -11 -7.5 -20
t-22.5 -8z" />
    <glyph glyph-name="five" unicode="5" horiz-adv-x="566" 
d="M308 642q35 2 59.5 3t46.5 1t46 0.5t60 2.5q15 1 23.5 -8t9 -20.5t-7 -21.5t-22.5 -11q-9 -1 -16 -2l-14 -2q-14 -3 -25 -3q-65 0 -131 2t-130 -11q-4 -1 -7 -0.5t-6 0.5q-17 -38 -36.5 -75.5t-33.5 -76.5q36 5 70.5 10t68.5 5q12 0 12 -0.5t1 -0.5q49 -3 91 -19
t72.5 -43t47.5 -65t17 -85q0 -37 -14.5 -73t-37 -68t-50.5 -59.5t-54 -46.5q-66 -49 -135 -77.5t-153 -36.5q-14 -2 -22 7.5t-8 20.5q0 10 3.5 22t17.5 14q6 0 16 -2t15 -2q66 10 121.5 34.5t112.5 66.5q24 18 46.5 41.5t40 49.5t28 54t10.5 55q0 46 -17.5 76t-45.5 47.5
t-64 24t-72.5 6t-70.5 -6t-59 -12.5q-2 -16 -13 -22t-23 -4t-21 11t-7 24q0 8 0.5 16t4.5 14q7 30 18 57.5t24 54.5t26.5 54t24.5 54q6 16 19.5 19t24.5 -4q13 2 30 4t33.5 3.5t31 2.5t23.5 1z" />
    <glyph glyph-name="six" unicode="6" horiz-adv-x="555" 
d="M343 648q12 4 21 2t15 -7.5t8 -13.5t0 -17q-2 -5 -7 -11t-13 -8q-8 -3 -16 -5.5t-16 -7.5q-27 -17 -50.5 -47.5t-43 -68t-34.5 -78.5t-25 -78.5t-14 -68t-2 -47.5q12 34 36 63.5t51.5 50.5t54.5 33t45 12q43 0 67 -18t35.5 -44t13.5 -55.5t2 -53.5q0 -45 -12.5 -92
t-36.5 -85.5t-59 -63.5t-81 -25q-32 0 -63.5 15t-56.5 42t-41 65t-16 84q0 83 16 168t46.5 158t75 127t100.5 75zM282 -29q33 0 58 25t41.5 59t24.5 69.5t8 56.5q0 25 -1.5 45.5t-7.5 35t-18.5 22.5t-33.5 8q-33 0 -64 -24t-54.5 -59.5t-37 -76t-11.5 -73.5q2 -25 14 -42
t27.5 -27t30.5 -14.5t24 -4.5z" />
    <glyph glyph-name="seven" unicode="7" horiz-adv-x="475" 
d="M39 526q-15 4 -21.5 12.5t-6.5 19.5q0 13 11.5 23.5t28.5 11.5q8 -2 18 -2h21q48 0 106.5 9.5t112.5 19.5q32 6 59 12.5t52 6.5q5 0 10 -0.5t10 -1.5h-1q12 -5 18 -16t6 -22q0 -13 -8 -21l-9 -9l-7 -12q-27 -39 -47 -84.5t-40 -90.5q-6 -13 -21 -50.5t-34.5 -87t-41 -106
t-41 -108t-33.5 -92.5t-19 -59q0 -10 -11.5 -17t-22.5 -7q-13 0 -22.5 7t-10.5 21q4 12 14 40.5t23 64.5t28 75.5t28 75t23 62t14 36.5q4 11 15 36t25 57.5t30 68.5t31 68.5t27 58t19 37.5q-41 -8 -81 -14t-77 -10q-31 -3 -68.5 -9t-73.5 -6h-16.5t-16.5 2z" />
    <glyph glyph-name="eight" unicode="8" horiz-adv-x="507" 
d="M339 601q17 0 43 -1.5t50.5 -10.5t42 -28t17.5 -53q0 -29 -13 -55.5t-33.5 -51t-47 -48.5t-53.5 -46q33 -42 48.5 -82.5t15.5 -88.5q0 -38 -18.5 -74t-48.5 -63.5t-67 -44t-73 -16.5q-14 0 -39.5 5.5t-50 19.5t-42.5 38t-18 62q0 33 18.5 66.5t48 65.5t65 62t70.5 57
q-16 16 -37 27t-43 20t-43.5 18.5t-38 23t-27 33t-10.5 48.5q1 23 16 42.5t33 34t34 22.5t19 8q5 0 10.5 -3.5t7.5 -10.5q13 4 35 8.5t46 8t46.5 5.5t36.5 2zM297 269q-23 -16 -40.5 -28.5t-31.5 -23.5q-10 -10 -29 -26.5t-38.5 -37.5t-34 -44.5t-14.5 -46.5q0 -32 23 -47
t56 -15q35 0 65 9.5t51.5 27.5t34 44.5t12.5 60.5q0 36 -16 69t-36 58h-2zM155 485q-6 -3 -14 -3t-13 1.5t-10 10.5q-4 -5 -5 -8t-1 -7q14 -21 36.5 -35t49 -27.5t53.5 -28.5t50 -38q14 14 35 31t41.5 37t36 43t19.5 50q-60 31 -112 31q-40 0 -77.5 -12t-89.5 -45h1z" />
    <glyph glyph-name="nine" unicode="9" horiz-adv-x="450" 
d="M152 -116q-10 -3 -18.5 0t-14.5 9t-8.5 14t-0.5 15q1 8 6 12.5t12.5 7.5t15.5 5t16 5q27 17 53 50.5t49.5 75.5t43 88.5t33.5 88.5t21 75.5t5 50.5q-12 -35 -37 -64.5t-53.5 -51t-56.5 -33.5t-46 -12q-36 0 -58.5 14.5t-34.5 36.5t-16.5 48.5t-4.5 50.5q0 39 12 91.5
t35.5 99t59.5 79t84 32.5q21 0 38.5 -7.5t31 -19.5t22.5 -27t14 -31l3 -9q16 17 36.5 13.5t27.5 -26.5q5 -18 7.5 -39.5t2.5 -44.5q1 -52 -9 -113t-28.5 -123t-44.5 -121.5t-57.5 -108.5t-67.5 -83.5t-73 -47.5zM354 562q-19 -17 -36.5 -19.5t-23.5 14.5q-3 9 -7.5 19
t-10 19t-12.5 14.5t-15 5.5q-35 0 -60 -28.5t-42 -69t-25 -84t-8 -72.5q0 -35 12.5 -58.5t45.5 -23.5q32 0 66.5 28t62 68.5t43.5 85t11 77.5z" />
    <glyph glyph-name="colon" unicode=":" horiz-adv-x="153" 
d="M86 314q-14 0 -29.5 10t-17.5 33q-3 23 4 30t26 9q16 2 32 -4t19 -29q2 -15 -1 -24.5t-8.5 -15t-12.5 -7.5t-12 -2zM86 -2q-14 0 -29.5 10.5t-17.5 32.5q-3 23 4 30t26 9q16 2 32 -4t19 -29q2 -15 -1 -24.5t-8.5 -15t-12.5 -7.5t-12 -2z" />
    <glyph glyph-name="semicolon" unicode=";" horiz-adv-x="151" 
d="M86 315q-14 0 -29.5 10t-17.5 32q-3 23 4 30t26 9q16 2 32.5 -4t18.5 -28q2 -15 -1 -24.5t-8.5 -15t-12 -7.5t-12.5 -2zM96 62q16 -24 26.5 -50.5t10.5 -60.5q0 -14 -5 -31t-13 -31.5t-18.5 -24.5t-21.5 -10q-12 0 -21 13t-9 27q0 8 5 14.5t10.5 12.5t10.5 13t5 17
q0 13 -5 26t-11 24t-11 20.5t-5 17.5q0 14 10 25.5t21 11.5q13 0 21 -14z" />
    <glyph glyph-name="less" unicode="&#x3c;" horiz-adv-x="305" 
d="M93 239q18 -21 40 -43.5t45 -45t45 -42.5t40 -35q11 -8 10.5 -18t-7.5 -18q-18 -18 -39 -3q-19 17 -41.5 38.5t-45 44.5t-44.5 46t-40 44q-31 4 -29 33l-4 5q-6 7 -6 15q0 12 11 19.5t29 2.5q47 61 86 113.5t85 108.5q7 10 17 10q7 0 14 -3.5t11 -9t4 -12.5t-6 -14
q-48 -58 -87.5 -114t-87.5 -122z" />
    <glyph glyph-name="equal" unicode="=" horiz-adv-x="344" 
d="M43 284q-12 0 -18.5 8.5t-6.5 17.5q0 10 6.5 18.5t18.5 8.5h250q13 0 19.5 -8.5t6.5 -19.5q0 -10 -6.5 -19t-19.5 -9q-24 0 -57.5 0.5t-68.5 1t-68 1t-56 0.5zM161 165q-32 0 -58.5 -0.5t-57.5 -0.5q-12 0 -18.5 8.5t-6.5 17.5q0 10 6.5 18.5t18.5 8.5q31 0 57.5 2
t58.5 2q31 0 60.5 -1.5t58.5 -1.5q14 0 21 -9t7 -20t-7 -20t-21 -9q-29 0 -58.5 2.5t-60.5 2.5z" />
    <glyph glyph-name="greater" unicode="&#x3e;" horiz-adv-x="305" 
d="M246 207q-18 -21 -39.5 -44.5t-44 -46.5t-45 -44t-42.5 -38q-21 -15 -39 3q-7 8 -7.5 18t10.5 18q18 15 40 35.5t44.5 42.5t44.5 44.5t41 43.5q-48 66 -87.5 122t-87.5 114q-12 14 -2 26.5t24 12.5q11 0 18 -10q46 -56 85 -108.5t86 -113.5q12 3 21 0t13.5 -9t4 -15
t-8.5 -18q2 -29 -29 -33z" />
    <glyph glyph-name="question" unicode="?" horiz-adv-x="348" 
d="M254 348q-15 -17 -28 -31t-22.5 -29.5t-15.5 -34t-7 -43.5q8 -15 1 -25.5t-21 -12.5q-12 -2 -24.5 6t-12.5 35q0 33 7.5 56t20.5 43q6 10 14 19.5t16 19.5q10 10 19 21t19 23q23 28 34 56.5t11 65.5q0 15 -3.5 29.5t-11.5 26t-20.5 18.5t-31.5 7q-18 0 -37 -5t-37.5 -13
t-34 -19t-25.5 -23q-8 -9 -18 -9.5t-17 4.5t-9.5 13.5t4.5 16.5q13 16 33 31.5t43.5 27.5t49 19t48.5 7q31 0 54.5 -11t39.5 -29t23.5 -42t7.5 -49q0 -33 -6 -58.5t-15.5 -45.5t-22 -35.5t-25.5 -29.5zM175 -1q-11 0 -23 10t-14 32t4 29t20 9q11 2 24 -4t15 -28
q2 -29 -8 -38.5t-18 -9.5z" />
    <glyph glyph-name="at" unicode="@" horiz-adv-x="669" 
d="M513 122q-54 0 -89.5 28.5t-46.5 89.5q-34 -48 -69 -76t-69 -28q-18 0 -29.5 9.5t-18 24.5t-9.5 33t-3 35q0 35 4 60.5t11 51.5q5 19 19.5 51.5t35 63.5t44.5 53t47 20q8 0 17.5 -3.5t17.5 -9.5t12.5 -13t3.5 -14q-2 -14 -8.5 -19.5t-11.5 -7.5q-6 -1 -13 0q-5 0 -9 0.5
t-8 0.5q-9 0 -20.5 -10t-22.5 -23.5t-20 -27.5t-13 -23q-7 -16 -16 -41.5t-15 -53.5t-7 -54.5t8 -44.5q19 1 40.5 18.5t40.5 42.5t35 53.5t25 52.5q4 18 8 35.5t6.5 32.5t4.5 26t3 16q3 12 12.5 18t19.5 5t17.5 -9.5t5.5 -24.5q-4 -28 -10.5 -54t-8.5 -55q-1 -20 0 -51
t8.5 -60.5t24 -50.5t46.5 -21q37 0 59 23.5t33.5 56.5t15 69t3.5 62q0 63 -18 110.5t-47 80.5t-66 52t-74 24q-62 8 -125.5 -16.5t-115.5 -72.5t-84.5 -114.5t-32.5 -142.5q0 -41 13 -83.5t37 -76.5t58 -55.5t75 -21.5q14 0 26.5 4.5t26.5 14.5q11 8 20.5 5t14.5 -11
q6 -8 5.5 -17.5t-11.5 -17.5q-18 -13 -37.5 -21t-44.5 -8q-57 0 -101 28.5t-73.5 71t-44.5 93t-15 95.5q0 60 19.5 116.5t53 105t79 86.5t98.5 61t110.5 28.5t114.5 -11.5q48 -14 83.5 -47t59 -76t35 -91.5t11.5 -92.5q0 -36 -8.5 -80.5t-27.5 -84t-49.5 -66t-75.5 -26.5z
" />
    <glyph glyph-name="A" unicode="A" horiz-adv-x="614" 
d="M525 -51q-11 0 -21.5 5.5t-10.5 21.5q-1 36 -8 72t-16 72t-18.5 71.5t-16.5 69.5q-40 -4 -72 -7.5t-62.5 -9t-62 -15t-70.5 -26.5q-14 -22 -31.5 -55t-35 -68.5t-32.5 -69t-22 -57.5q-8 -24 -31 -24q-13 0 -23.5 7.5t-9.5 21.5q1 15 12 44.5t26 62.5t30.5 63t25.5 46
q-14 0 -22 9.5t-7 21.5q1 11 8.5 17t18.5 10t24 7t25 9q51 81 96 163.5t96 163.5q5 8 10.5 18t10 20t8.5 17.5t7 10.5l-2 5q-3 8 -2 14q1 13 12 21t24 8q15 0 26.5 -18.5t19 -44.5t13 -54t8.5 -47q18 -106 39 -208t49 -205q8 -30 15.5 -65t5.5 -71q-2 -13 -12 -19.5
t-22 -7.5zM220 287q49 16 100.5 22t102.5 11q-10 60 -21 118.5t-25 118.5l-22 -34l-22 -34q-32 -49 -55.5 -95t-51.5 -95z" />
    <glyph glyph-name="B" unicode="B" horiz-adv-x="624" 
d="M38 -88q-14 0 -20 7.5t-6 18.5t9.5 21t23.5 10h19q-1 1 -1 19q0 20 2 57t6 84.5t9 102t11.5 108.5t13.5 104.5t15 90.5q-20 9 -25.5 19t-5.5 21q0 14 10 24.5t29 21.5q8 18 15.5 31.5t26.5 13.5q9 0 17 -5t14 -19q68 24 131 40.5t103 16.5q21 0 46 -5t46.5 -16.5
t36.5 -31t15 -49.5q0 -46 -40.5 -85.5t-126.5 -85.5q39 -14 71 -32.5t55.5 -42t36.5 -51t13 -59.5q0 -53 -25.5 -98.5t-68.5 -82t-99 -64.5t-117.5 -46.5t-123.5 -28t-116 -9.5zM336 380q-4 0 -7 1.5t-10 4.5q-59 -23 -102.5 -38.5t-66.5 -20.5q-2 -18 -5 -47.5t-5.5 -61
t-5 -61t-3.5 -46.5l-1 -17q-2 -26 0.5 -49t0.5 -47v-24q66 10 137 32t129 54.5t95.5 75.5t37.5 96q0 30 -18 55.5t-46 44.5t-62.5 31t-67.5 17zM427 642q-23 0 -52 -5.5t-61 -14.5t-65 -20.5t-64 -23.5q-8 -45 -14 -92t-14 -101q33 11 72.5 25.5t80 31t78 34.5t67 36.5
t47 37t17.5 36.5q0 26 -24.5 41t-67.5 15z" />
    <glyph glyph-name="C" unicode="C" horiz-adv-x="659" 
d="M620 131q-24 -29 -58 -61.5t-77.5 -60t-96.5 -46t-116 -18.5q-65 0 -107 29.5t-67 75t-33.5 100.5t-5.5 107q2 38 13.5 85t31.5 95.5t48 95t62 84t73.5 62t83.5 28.5q46 4 74.5 -8t45.5 -35t26 -55.5t16 -69.5q0 -4 -2.5 -11t-8.5 -13t-17 -10t-27 -2q-11 2 -15.5 10.5
t-6.5 25.5q0 57 -21 90t-57 28q-37 -4 -70 -29t-61.5 -62.5t-51 -83t-38.5 -91t-24.5 -86t-8.5 -68.5q0 -39 6 -80t23.5 -74.5t49 -55t82.5 -21.5q41 0 80 14t76.5 39.5t72.5 60t68 75.5q5 5 10 10.5t11 7.5q11 5 32 -12q7 -7 7 -25.5t-22 -44.5z" />
    <glyph glyph-name="D" unicode="D" horiz-adv-x="658" 
d="M149 631q50 14 96 19t94 5q44 0 95.5 -9t95 -31t72.5 -60t29 -95q0 -41 -15 -84t-35 -71q-66 -91 -151.5 -158.5t-188.5 -111.5q-15 -6 -32.5 -14.5t-37 -16t-39.5 -13t-39 -6.5v-1q-12 -18 -34 -18q-10 0 -22 7t-12 22q0 9 3 15q-2 4 -2 14l3 9q3 8 9 14q3 14 7 53t8 90
t8 108t7.5 109t5.5 91.5t3 55.5q-5 7 -5 15q0 6 3 14l3 6q1 13 1.5 25.5t0.5 25.5v16q0 16 10.5 24t23.5 8q11 0 20.5 -6t13.5 -17l1 -5q1 -5 1 -15v-5.5t-1 -4.5v-4zM233 590q-6 -1 -17 -3t-24 -5t-25.5 -6.5t-19.5 -8.5q-1 -18 -3 -59t-5.5 -93.5t-7.5 -111t-7.5 -110
t-7.5 -91.5t-7 -55q49 10 104.5 36.5t107 60.5t95 71t68.5 67q28 35 52 81.5t24 94.5q0 42 -18 69t-48.5 43t-69.5 22.5t-81 6.5q-31 0 -59.5 -2.5t-50.5 -6.5z" />
    <glyph glyph-name="E" unicode="E" horiz-adv-x="642" 
d="M623 661q-5 -1 -9.5 -1.5t-10.5 0.5q-6 0 -13 1t-15 0q-16 1 -35.5 0.5t-45.5 -5.5q-28 -6 -52.5 -11t-57 -13t-78.5 -21t-117 -36q-9 -48 -21.5 -94t-27.5 -106q48 16 98 31.5t95 23.5q28 5 57.5 8.5t55 5t43.5 0t24 -5.5q9 -7 8.5 -15t-6 -15t-14 -12t-14.5 -7
q-10 -2 -19.5 -2.5t-19.5 -0.5q-40 0 -84 -8t-87 -21t-83 -29.5t-71 -32.5l-11 -53q-2 -13 -4.5 -25t-2.5 -20q0 -28 4 -55t16 -48.5t33 -34.5t56 -13q13 0 43.5 7t70 18.5t82 24.5t81 25.5t67 22.5t38.5 14q18 7 30.5 -0.5t17.5 -20t0 -26.5t-22 -21q-20 -7 -51 -16
t-64.5 -18.5t-65 -18.5t-51.5 -15q-48 -16 -87.5 -29t-88.5 -13q-45 0 -77 13.5t-52 37.5t-29 57.5t-9 73.5q0 58 16 116q-21 18 -20 34q2 11 5 16.5t11 11.5q3 2 6.5 4t10.5 7q5 24 12 62t13.5 77.5t13 76t10.5 59.5q2 10 7 26.5t18 20.5q17 5 27 -4.5t17 -32.5
q14 3 38.5 9.5t56 14.5t67.5 16.5t72 15.5q39 8 73.5 14t62 9t46 2.5t24.5 -5.5q17 -14 13 -30t-24 -21z" />
    <glyph glyph-name="F" unicode="F" horiz-adv-x="567" 
d="M154 659q4 12 14.5 17.5t21.5 5t20.5 -7.5t12.5 -20q-1 -15 -8 -30q55 12 109.5 25t109.5 26q37 8 73 14t74 -2q12 -4 18.5 -11.5t6.5 -15.5t-6.5 -15.5t-18.5 -11.5q-8 -2 -18.5 -1t-15.5 3q-4 1 -12 1q-76 -8 -149.5 -27.5t-148.5 -35.5l-42 -11q-9 -38 -17.5 -76
t-16.5 -76q-2 -11 -4.5 -22t-4.5 -22q17 6 33 12.5t33 12.5q37 12 70 23t66 19t67 11.5t74 1.5q12 -1 21 -6t13 -12.5t1.5 -16t-13.5 -17.5q-11 -8 -29 -9t-29 4q-13 -1 -20 -1t-14 -1t-15.5 -2.5t-24.5 -4.5q-12 -3 -27 -7l-30 -8t-28 -7.5t-20 -5.5q-23 -6 -39 -12
t-31 -12t-30.5 -12t-37.5 -13q-19 -145 -3 -295q0 -3 1 -4v-5q-3 -13 -12.5 -20t-20.5 -7.5t-21.5 5t-15.5 17.5q-14 109 -7.5 213.5t29.5 212.5q8 36 16 72.5t17 72.5q-11 10 -8.5 22.5t19.5 19.5q4 13 10 25t8 27z" />
    <glyph glyph-name="G" unicode="G" horiz-adv-x="703" 
d="M133 238q1 -20 1.5 -44t3.5 -48t10.5 -46t22.5 -37q17 -26 40 -41t66 -15q40 0 86 22t89 55.5t77.5 72.5t52.5 73h-10q-55 -2 -118 -15t-120 -38q-8 -3 -18.5 -7.5t-20 -8t-17 -6t-10.5 -2.5q-14 0 -26.5 7.5t-12.5 19.5q0 10 14 24q72 38 154 57t167 30q4 1 9.5 1h9.5
q12 0 26 -3t26 -9.5t20.5 -17t8.5 -25.5q0 -14 -9.5 -30t-22 -32t-26.5 -29.5t-23 -22.5l-17 -16q-30 -29 -62 -58t-67 -52t-74 -37.5t-82 -14.5h-10q-63 0 -105.5 29.5t-67 75.5t-34 101.5t-7.5 106.5q3 37 16.5 83t34 93.5t48.5 93.5t61.5 83.5t72 63t79.5 32.5
q39 3 68.5 -9.5t50 -34t33 -48.5t17.5 -53q0 -5 -2.5 -12t-9 -13.5t-17.5 -10.5t-28 -2q-13 2 -17.5 11t-6.5 27q0 17 -8 34t-20 30.5t-26 21t-27 5.5q-36 -4 -68.5 -28.5t-59.5 -62t-48.5 -82.5t-36 -89.5t-22.5 -85t-8 -67.5z" />
    <glyph glyph-name="H" unicode="H" horiz-adv-x="697" 
d="M198 655q12 9 31 9q12 0 21.5 -4.5t9.5 -15.5q0 -8 -9 -18q-2 -5 -11 -25t-20 -49q-17 -45 -28.5 -91t-19.5 -94q80 11 160 17.5t160 10.5q5 40 10 80.5t13 81.5q8 32 14.5 66.5t22.5 66.5q14 11 34 11q11 0 20 -5.5t9 -16.5q0 -10 -5.5 -19t-7.5 -19q-14 -63 -22.5 -123
t-16.5 -120q16 1 31 1h31q11 0 22 -5t11 -17q-4 -29 -38 -29h-63q-8 -75 -10.5 -151.5t-2.5 -157.5q0 -14 1.5 -26.5t1.5 -26.5q0 -17 -12 -23t-23 -6q-20 0 -29.5 10.5t-9.5 23.5l3 10q0 5 -0.5 9t-0.5 9q0 44 1 87.5t2 87.5q1 73 9 150q-8 -1 -43 -2.5t-83 -4.5t-101 -8
t-95 -12q-9 -73 -13 -146.5t-4 -145.5q0 -8 0.5 -16t2.5 -19q0 -21 -11.5 -31t-27.5 -10q-15 0 -22 9t-9.5 22.5t-1.5 29t1 28.5q0 63 3.5 129t10.5 132q-3 -1 -5.5 -1.5t-6.5 -0.5q-14 0 -23.5 6.5t-9.5 15.5q0 11 14.5 20t39.5 14q4 26 9.5 52t10.5 51q3 11 10 39.5
t17.5 60.5t23 60t24.5 39z" />
    <glyph glyph-name="I" unicode="I" 
d="M154 297q-7 -58 -10.5 -117.5t-3.5 -119.5q12 -18 16 -31t2 -22t-7 -14t-11 -7q-16 -7 -33.5 -2t-23.5 19q-2 6 -2.5 32.5t1.5 68.5q1 41 4 93t7 107t9.5 110t11 102.5t11 84.5t11.5 56q6 21 17.5 30t37.5 0q13 -4 13 -31t-7 -69q-11 -76 -23 -146.5t-20 -143.5z" />
    <glyph glyph-name="J" unicode="J" horiz-adv-x="563" 
d="M581 669q0 -12 -11 -22t-43 0q-43 0 -88 -3.5t-99 -10.5l-2 -14q-2 -8 -2 -10q0 -22 6 -40.5t15 -36.5q9 -17 20.5 -34t23.5 -34q24 -34 42.5 -71.5t18.5 -86.5q0 -52 -22.5 -96.5t-58 -83t-79.5 -70t-86 -56.5q-26 -16 -56.5 -28t-62.5 -12q-21 0 -37.5 12t-28 30.5
t-17.5 40t-6 41.5q0 17 10.5 25t22.5 8t22.5 -8t10.5 -25q0 -11 5.5 -27.5t16.5 -30.5q28 2 52 12.5t45 24.5q22 14 41.5 29t35.5 26q26 20 49 40.5t40 43t26.5 48t9.5 56.5q0 22 -5.5 41t-15.5 36q-14 27 -32 50.5t-34 50.5t-27 60t-11 77q-48 -9 -82.5 -18t-66.5 -19
q-16 -5 -26.5 2t-15.5 20q-4 12 1 24t21 17q48 15 102 27t109 21t109.5 13.5t104.5 4.5q29 0 42 -15t13 -29z" />
    <glyph glyph-name="K" unicode="K" horiz-adv-x="585" 
d="M519 519q-22 -5 -40.5 -10t-25.5 -7q-30 -9 -64.5 -24t-74 -32.5t-83 -36.5t-91.5 -36q29 -12 67.5 -34.5t75 -45.5t65.5 -43t38 -27q34 -24 59 -42.5t46.5 -35t41.5 -33t44 -37.5q16 -15 16.5 -27.5t-8.5 -20.5t-22.5 -9.5t-24.5 5.5q-28 20 -47.5 35.5t-37.5 31
t-39.5 34t-53.5 43.5q-10 8 -39.5 28t-64.5 44q-35 23 -69 45t-62 36q-2 -26 -6 -66.5t-7.5 -82t-5 -78t1.5 -55.5q1 -11 4 -27t0 -27q-2 -7 -7 -13t-29 -6q-17 0 -26 18t-12.5 49.5t-2.5 73t6 89.5q3 33 6.5 66t7.5 67q9 73 21.5 141.5t25.5 122t25.5 87t21.5 36.5
q14 6 25.5 3t18.5 -11.5t9 -20t-2 -23.5q-13 -39 -20.5 -59t-14.5 -37q-3 -9 -5.5 -18.5t-5.5 -23.5t-6.5 -33.5t-7.5 -48.5q18 7 45.5 18.5t59.5 24.5t65 26t62 24.5t51 20t33 11.5q29 8 56 14t54 9q9 1 16.5 -4.5t10.5 -13.5t0 -18t-15 -18q-6 -3 -22.5 -8t-36.5 -10z" />
    <glyph glyph-name="L" unicode="L" horiz-adv-x="530" 
d="M108 4q-22 5 -27 16.5t-4 26.5q2 111 15 222t28 221q5 41 12 81.5t9 82.5q4 12 14.5 17.5t21.5 5t20.5 -7.5t12.5 -20q-2 -42 -9 -82t-12 -81q-14 -106 -26 -209t-16 -209q18 4 36.5 9t36.5 9q65 14 127.5 25t128.5 15q17 -2 28.5 -11.5t7.5 -28.5q-3 -5 -5.5 -8.5
t-6.5 -5.5l-3 -4q-12 -9 -26.5 -10t-24.5 7q-63 -6 -124 -18.5t-123 -25.5q-23 -5 -45.5 -10t-45.5 -7z" />
    <glyph glyph-name="M" unicode="M" horiz-adv-x="794" 
d="M730 -89q-3 -6 -11 -10t-18 -4.5t-19 3t-14 12.5q-11 24 -11 96q-1 36 -5.5 80t-4.5 86q0 41 -1.5 82t-5.5 75t-11 58t-18 31q-17 10 -34.5 -7.5t-34 -51t-31.5 -77t-27 -85.5t-20.5 -75.5t-12.5 -47.5q-6 -22 -10 -35.5t-8 -20.5t-7.5 -8.5t-8.5 -0.5q-23 6 -34 20
t-13 40q-6 79 -4.5 167t-0.5 169q-1 23 -1 44v41t-0.5 38.5t-1.5 34.5q-1 32 -4 53t-9 26q-8 5 -16 -0.5t-16 -16.5q-5 -5 -8.5 -11.5t-8.5 -13.5l-15 -26q-22 -39 -41.5 -95.5t-35 -120.5t-27.5 -130.5t-20 -126.5t-11 -108t-1 -75q1 -10 0.5 -15t-9.5 -12q-9 -8 -24.5 -8
t-26.5 4q-4 1 -7 2.5t-4.5 5.5t-2 12.5t-0.5 25.5q0 23 1.5 57t3.5 72.5t5 79t6 77.5q2 25 6 63t8.5 81t10 87t10.5 80t9.5 61t7.5 30q8 14 19 13.5t22 -5.5q10 -6 9 -39q0 -16 -1.5 -37.5t-3.5 -50.5q50 123 91 177.5t60 54.5q15 0 35 -8.5t30 -26.5q7 -14 14.5 -119.5
t13.5 -321.5q36 90 61 138t44 71q13 15 26.5 22.5t31.5 12.5q5 2 11 2.5t11 1.5q12 2 23.5 -7t21 -23.5t17 -31.5t10.5 -30q4 -18 8 -54t7.5 -80t7 -91t5.5 -87.5t3.5 -69t1.5 -35.5q-1 -15 2.5 -28.5t7.5 -27.5q6 -19 -2 -32z" />
    <glyph glyph-name="N" unicode="N" horiz-adv-x="584" 
d="M507 727q20 0 30.5 -9t10.5 -38q0 -44 -14 -95q-6 -26 -11 -57t-8 -63t-4.5 -64t-1.5 -60q0 -81 10.5 -170t29.5 -172q11 -6 13.5 -11.5t2.5 -12.5q0 -8 -5 -13.5t-11.5 -8.5t-14 -4.5t-12.5 -1.5q-13 0 -23 11.5t-17 31t-12.5 45t-9.5 52.5q-8 59 -12 117.5t-4 114.5
q0 69 8 149.5t27 182.5l-2 1q-68 -88 -121.5 -168.5t-97 -157.5t-79.5 -153t-70 -155q-2 -22 -12 -33.5t-23 -11.5q-23 0 -30.5 16t-7.5 39q0 11 2 25.5t4 26.5q3 14 9.5 48.5t14.5 79t16 95t16 98t14 87.5t10 63q1 6 1.5 14t0.5 13q1 20 5.5 35t25.5 23q3 1 9 1
q22 0 29.5 -6.5t8 -17t-3.5 -24t-5 -26.5q-2 -17 -6 -41t-8 -50t-8.5 -51.5t-8.5 -46.5l-2 -9q-5 -28 -10.5 -61.5t-12.5 -63.5h2q19 33 31 54.5t19.5 34.5t10.5 19l4 8q26 47 50.5 87t48 76t48 69.5t50.5 67.5q23 31 52 51t54 20z" />
    <glyph glyph-name="O" unicode="O" horiz-adv-x="708" 
d="M285 -19q-65 0 -110 35t-72 89.5t-36 121.5t-2 132q4 37 13 71t23 63t33 51.5t42 35.5q43 25 72 27t41 -2q66 35 115.5 53t88.5 18q46 0 78 -21t50.5 -54t25 -73.5t2.5 -80.5q-5 -49 -21 -102.5t-40.5 -105.5t-57.5 -99t-71.5 -83t-82.5 -56.5t-91 -19.5zM241 514
q-6 -8 -9.5 -15l-6.5 -13q-4 -7 -7 -12t-7 -9q-6 -8 -17 -10.5t-37 2.5q-11 -30 -18 -60.5t-10 -60.5q-6 -59 3 -111.5t30 -92.5t52 -64t69 -25q39 -1 75 16.5t68 47.5t59 70t47.5 84t34 89t18.5 86q3 33 -0.5 65t-17 58.5t-38 43t-62.5 17.5q-34 1 -69.5 -12t-66.5 -31
t-55 -36t-35 -27z" />
    <glyph glyph-name="P" unicode="P" horiz-adv-x="558" 
d="M168 325q-4 -40 -5.5 -86t-1 -89.5t2.5 -80t5 -57.5q1 -7 4 -13t6 -11q6 -8 5 -12q-3 -12 -10.5 -22t-17 -16t-19 -7.5t-16.5 2.5q-7 3 -11 22q-2 9 -3 18t-2 15q-3 22 -5 59t-3 80.5t0.5 90t5.5 88.5q-29 -10 -39.5 -4t-12.5 17q-1 11 6.5 22.5t23.5 16.5q4 2 9.5 3.5
t19.5 5.5q15 114 33 179q3 11 7.5 24t15.5 41q-34 -15 -51.5 -25t-31.5 -22q-14 -11 -25.5 -10.5t-18.5 8.5q-8 8 -6 20.5t16 23.5q36 30 76 47.5t80 26t79.5 10.5t75.5 2q20 0 46 -0.5t52 -3t49.5 -9.5t40 -20t22.5 -33.5t-3 -50.5q-13 -48 -54 -86t-97 -68t-121.5 -53.5
t-126.5 -42.5zM439 630q-14 2 -27.5 3.5t-27.5 1.5h-40q-26 0 -50.5 -2.5t-59.5 -8.5q-10 -24 -17 -42.5t-12 -35.5q-8 -27 -15 -66t-15 -93q54 18 109.5 39.5t102 45.5t79 50t39.5 53q6 22 -14 36t-52 19z" />
    <glyph glyph-name="Q" unicode="Q" horiz-adv-x="708" 
d="M285 -19q-58 0 -100 28t-69.5 73t-40.5 102.5t-13 116.5q0 66 15.5 122t42.5 97t64 64.5t81 23.5q16 0 24 -3q66 35 115.5 53t88.5 18q42 0 72 -17t49 -45t28 -63.5t9 -71.5q0 -54 -16 -115.5t-44.5 -121t-68 -112.5t-85.5 -90q27 -34 60.5 -62t72.5 -45q15 -11 15 -23
q0 -11 -11.5 -19t-26.5 -8q-6 0 -10 1q-47 20 -83 52.5t-68 70.5q-24 -12 -49.5 -19t-51.5 -7zM241 514q-10 -13 -15 -24t-10 -19t-12 -12.5t-19 -4.5q-10 0 -28 3q-30 -83 -30 -165q0 -52 12 -97.5t33.5 -79t50.5 -53t64 -19.5q29 0 63 13l-6 9q-11 17 -23 33t-17 36
q0 17 10 24t24 7t22.5 -6.5t15.5 -14.5q6 -11 6 -19v-3q5 -9 10 -17.5t11 -17.5q40 31 73.5 77t58 98t38.5 105.5t14 98.5q0 30 -6.5 57.5t-21 49t-38.5 34.5t-59 13q-34 0 -68.5 -13t-65 -31t-53.5 -35.5t-34 -26.5z" />
    <glyph glyph-name="R" unicode="R" horiz-adv-x="626" 
d="M609 -138q-11 -2 -20 4.5t-9 20.5q0 33 -21.5 75.5t-55.5 88t-77.5 91t-86.5 85t-82.5 70t-66.5 46.5l-33 -6q-3 -41 -3.5 -88t1 -91.5t4 -82.5t5.5 -61q1 -7 4.5 -13.5t6.5 -11.5q5 -8 5 -13q-5 -19 -17.5 -30t-27.5 -11q-9 0 -16 5t-11 24q-2 10 -3 19t-2 16
q-3 23 -6 60.5t-5 81t-2 88t3 81.5q0 15 2 31q1 14 2.5 28.5t3.5 28.5q6 51 13 94t15 75q3 10 7 26t12 39q-7 -1 -11.5 -1.5t-6.5 -0.5q-4 0 -7 1t-7 0q-10 -2 -18.5 3.5t-11.5 14t2.5 17.5t24.5 14q10 2 17 3.5t32 2.5q5 11 6.5 15t3.5 9q5 12 14.5 17t19 2.5t16 -12
t4.5 -26.5q35 1 61 0t49 -4q31 -4 70.5 -11.5t72.5 -23t52 -43t8 -71.5q-9 -33 -31.5 -59t-56 -47t-78 -38.5t-97.5 -32.5q41 -27 84 -63t83 -77t75.5 -85t62 -87t42 -83t15.5 -73q0 -14 -9 -22t-20 -9zM414 612q-26 8 -53 12.5l-39 6.5q-26 4 -51.5 4.5t-60.5 -0.5
q-9 -26 -12.5 -43.5t-8.5 -33.5q-7 -27 -13 -65.5t-13 -95.5q17 7 22 8.5t10 0.5q42 9 88.5 21.5t88 30t71 39.5t36.5 50q5 22 -14.5 38.5t-50.5 26.5z" />
    <glyph glyph-name="S" unicode="S" horiz-adv-x="592" 
d="M358 -10q-31 -14 -64 -22t-65 -12.5t-61 -5.5t-52 -1q-20 0 -32.5 8t-12.5 28t7.5 27t15.5 7q12 0 20 -5t20 -5q75 0 141.5 14.5t129.5 52.5q13 9 28.5 20.5t28 26t21 31.5t8.5 37q0 26 -15.5 45.5t-38 34t-48 24.5t-44.5 17q-46 19 -98 34.5t-96.5 34.5t-73.5 43t-29 60
t16 66.5t42.5 55t61 42.5t72.5 30.5t76 18.5t72 6q9 0 17.5 -0.5t16.5 -1.5q10 -1 27 -2.5t32.5 -4.5t27 -9t11.5 -17q0 -17 -4 -30t-26 -13q-8 0 -20 3q-4 1 -9.5 7t-11.5 6q-17 2 -29.5 3t-26.5 1q-47 0 -97 -12.5t-90.5 -33t-66.5 -47t-26 -55.5q0 -16 15 -30.5t38.5 -27
t51.5 -23.5t55 -19.5t48.5 -15t31.5 -10.5q44 -16 81 -34.5t64 -41t42 -49.5t15 -60q-1 -39 -20 -69.5t-47.5 -53.5t-62.5 -41t-67 -32z" />
    <glyph glyph-name="T" unicode="T" horiz-adv-x="623" 
d="M25 527q-32 8 -32 30q0 13 12 20t29 11.5t37 7t36 6.5q37 9 87.5 18.5t103.5 17.5t103.5 13.5t86.5 5.5q14 0 35.5 -2.5t41.5 -8.5t34.5 -16t14.5 -26q0 -14 -15 -23t-33 -9q-25 5 -30 17q-27 10 -58 10q-32 0 -67 -4.5t-60 -8.5q-17 -43 -26 -89.5t-17 -90.5
q-4 -30 -11.5 -70.5t-15 -85t-13 -90t-5.5 -86.5q0 -26 3 -51t3 -51q-3 -15 -13 -22.5t-21 -7.5t-20 6t-14 18q-2 26 -5 54t-3 56q0 3 0.5 5.5t0.5 4.5v9q1 18 6 55.5t12 85t15.5 99.5t17 99t16 84.5t12.5 55.5q-13 -2 -27 -4.5t-28 -5.5l-48 -9q-37 -7 -72 -16t-73 -12z
" />
    <glyph glyph-name="U" unicode="U" horiz-adv-x="608" 
d="M94 566q4 12 14.5 17.5t21.5 5t20.5 -7.5t12.5 -20q-10 -54 -17.5 -117t-8 -127.5t8 -126.5t30.5 -112q18 -40 41.5 -48.5t48 2t46.5 34t36 47.5q10 17 17 30t13 25.5t12 26.5t13 34q13 37 25.5 80t20.5 82q17 75 23.5 146.5t-3.5 147.5q0 15 9.5 23t22 8.5t23.5 -6.5
t14 -21q10 -71 5 -150t-22.5 -158t-45.5 -153.5t-63 -137.5t-88 -94.5t-124 -21.5q-18 3 -36 15t-27 26q-22 33 -35 69t-19.5 74.5t-8.5 77.5t-2 78q-1 63 5 126t17 126z" />
    <glyph glyph-name="V" unicode="V" horiz-adv-x="520" 
d="M61 506q17 0 28.5 -10.5t19 -26t12.5 -33.5t10 -34q10 -34 21 -71.5t21.5 -75.5t19.5 -76t17 -72h2q13 36 29.5 81t35.5 94.5t41 103t48 106.5q11 21 20.5 44.5t21.5 50.5q6 13 14 35.5t9 42.5q0 6 -3 11t-3 10q0 6 9.5 15t29.5 8q14 -1 24.5 -10t8.5 -38q-1 -23 -10 -52
t-21.5 -58.5t-25.5 -56t-22 -44.5q-30 -64 -52 -116t-43 -105q-25 -63 -51.5 -132.5t-39.5 -132.5q-2 -8 -13 -17.5t-22 -8.5q-17 1 -25.5 9.5t-12 21t-4 27.5t-1.5 28q-3 45 -14 96.5t-25.5 102t-30.5 96t-29 79.5q-8 20 -11 35.5t-8 24.5q-11 7 -11 24q0 13 13 19t23 5z
" />
    <glyph glyph-name="W" unicode="W" horiz-adv-x="840" 
d="M67 607q18 0 27.5 -11.5t20.5 -32.5q10 -19 16.5 -38t19.5 -48q16 -41 37 -93.5t41.5 -105.5t38 -100t26.5 -76q23 57 42.5 114.5t36.5 116.5l6 22q14 46 26.5 97.5t12.5 100.5q0 14 9 20t20 6q13 0 22 -9t14.5 -23t8.5 -31t5 -32q2 -12 3.5 -21.5t3.5 -15.5
q26 -77 46 -163.5t31 -176.5l4 -1q17 50 36 110.5t37 123.5t34.5 124t30.5 113l8 38q6 29 13.5 57t20.5 56q13 11 33 11q11 0 19.5 -5.5t8.5 -17.5q0 -6 -1 -9q-14 -28 -23 -63t-16 -70l-12 -52q-15 -58 -35.5 -131.5t-44.5 -149.5t-50 -149t-51 -129q-7 -7 -17 -12t-18 -5
q-15 0 -21.5 8t-6.5 19q-1 10 -1 12.5t1 3.5q-1 26 -3.5 47t-5.5 42q-2 8 -3 16l-2 16q-8 72 -23 148t-38 151q-27 -105 -64 -209.5t-79 -199.5q-12 -17 -29 -17q-11 0 -22 6.5t-11 21.5q-2 23 -13 63t-28 89.5t-37 103t-39.5 103.5t-36.5 91.5t-27 66.5q-3 7 -6.5 13.5
t-7.5 13.5q-10 15 -15 28q1 11 9 17.5t18 6.5z" />
    <glyph glyph-name="X" unicode="X" horiz-adv-x="508" 
d="M52 576q0 14 9.5 21t20.5 7t21 -6t12 -18q0 -6 12 -28t26.5 -47t27 -45.5t14.5 -22.5q6 -11 12.5 -23.5t14.5 -25.5q24 36 48.5 70.5t50.5 68.5q10 12 27.5 36.5t38 49t39.5 43t32 18.5t22.5 -6t9.5 -18q0 -5 -3.5 -10.5t-8.5 -11t-9.5 -10t-5.5 -7.5q-54 -66 -107 -136
t-100 -145q25 -42 53 -85t58.5 -83t63 -75.5t67.5 -63.5q6 -9 6 -16q0 -11 -10 -16.5t-22 -5.5t-20 4q-68 54 -125 128.5t-106 153.5q-21 -36 -41 -76t-35.5 -80.5t-26 -81.5t-11.5 -80q0 -10 1 -20t3 -20q0 -6 10 -12t10 -16q0 -8 -7.5 -15.5t-24.5 -9.5q-32 0 -44 25
t-12 60q0 18 2.5 36t5.5 34.5t6.5 30t6.5 21.5q23 69 53.5 134.5t68.5 128.5q-13 23 -25 45t-24 42q-5 9 -18.5 30.5t-28 46t-26 47.5t-12.5 35z" />
    <glyph glyph-name="Y" unicode="Y" horiz-adv-x="465" 
d="M35 562q-3 7 -3 12q0 11 9 17t21 6q11 0 20 -5t16.5 -13t14 -17.5t12.5 -18.5q33 -44 64 -96.5t59 -111.5q29 82 67.5 160t86.5 154h-1q14 11 33 11q11 0 19.5 -5.5t8.5 -18.5q0 -5 -1 -8v1q-106 -170 -164 -357.5t-60 -387.5q-3 -6 -11 -13.5t-15 -11.5l-8 -1
q-9 0 -15 3.5t-9.5 8.5t-5.5 10t-2 8q0 93 14 186t40 183q-3 2 -5.5 2.5t-4.5 2.5q-20 57 -54 115t-69 109q-15 21 -30.5 38.5t-26.5 37.5z" />
    <glyph glyph-name="Z" unicode="Z" horiz-adv-x="626" 
d="M197 564q-14 4 -20.5 14t-6.5 21t6.5 20.5t20.5 14.5q46 1 91 7t90 13.5t90.5 15t91.5 11.5q12 -2 20.5 -10t10.5 -19t-2.5 -22t-18.5 -17q-19 -9 -50.5 -42.5t-66.5 -75.5q-47 -56 -82 -101.5t-67.5 -88.5t-66.5 -87.5t-77 -96.5q39 8 82.5 11.5t88.5 4.5t89 -1t82 -5
q19 -2 29 -2t17.5 -0.5t15.5 -1.5t25 -3q12 -2 18.5 -12.5t6 -22.5t-10 -22t-30.5 -11q-26 -1 -55.5 4.5t-56.5 7.5q-46 2 -92 3.5t-92 -1t-91 -10.5t-90 -24q-14 -9 -26.5 -16.5t-26.5 -5.5q-16 5 -24 17t-1 35q22 31 51.5 53.5t52.5 51.5q46 59 84 110.5t76 102t80 103
t97 112.5q-66 -11 -131 -22t-131 -13z" />
    <glyph glyph-name="bracketleft" unicode="[" horiz-adv-x="332" 
d="M52 -113q-18 0 -24.5 14t2.5 28v6q0 26 -3.5 43t-3.5 43q0 42 3 98t7 118.5t8 129t7.5 129t5 118.5t-0.5 98q0 18 5 32q8 18 24.5 20.5t29.5 -6.5q32 2 49 4.5t31 4.5t29.5 3.5t44.5 1.5q16 0 24 -9t8 -21q0 -11 -8 -20t-24 -9q-29 0 -45 -0.5t-30 -2.5
q-13 -1 -29.5 -1.5t-52.5 -2.5q0 -24 -0.5 -53.5t-0.5 -56.5t-0.5 -47t-0.5 -25q-3 -26 -5.5 -66t-5 -87.5t-4 -98t-3 -98t-2 -87.5t-0.5 -66q0 -20 2.5 -36.5t4.5 -44.5q45 4 67 9t38 10q17 5 35.5 8t53.5 3q17 0 25 -9.5t8 -21.5t-8 -21.5t-25 -9.5q-42 0 -67.5 -3.5
t-48 -7t-49 -7t-71.5 -3.5z" />
    <glyph glyph-name="backslash" unicode="\" horiz-adv-x="416" 
d="M363 -16q-10 0 -20 8t-10 34q0 12 3 27q-10 27 -24 58.5t-29 63t-30 61.5l-28 56q-15 30 -37.5 66t-47 73t-48.5 73.5t-43 68.5t-31 57.5t-12 41.5q0 7 4 12t9.5 8.5t11 5t7.5 1.5q10 0 17 -6t15 -17q16 -21 47.5 -75.5t69 -125t76.5 -147.5t71.5 -143t53 -111.5
t20.5 -53.5q0 -16 -14 -26t-31 -10z" />
    <glyph glyph-name="bracketright" unicode="]" horiz-adv-x="344" 
d="M315 742q-5 -11 -6 -25t-1 -28t0.5 -26.5t-0.5 -22.5q-7 -70 -10 -145.5t-10 -144.5q-5 -51 -8 -96.5t-4.5 -87.5t-2 -82.5t-0.5 -82.5q0 -8 0.5 -19.5t1.5 -16.5q1 -8 -3 -18q11 -17 4.5 -33t-26.5 -18q-37 -4 -59 -5.5t-41.5 -2t-42 0t-59.5 0.5q-13 0 -20 8t-7 18
q0 9 7 17t20 8q32 0 49 0.5t31 2.5q13 2 31 4.5t56 6.5q-4 17 -5 27t-1 20q0 85 2 177t14 180q3 23 6 70.5t6.5 103.5t8.5 112.5t12 98.5q-35 -1 -58 -2t-42.5 -2t-39.5 -2.5t-48 -3.5q-14 -1 -21 6.5t-8 17.5q-1 11 5.5 18.5t20.5 8.5q38 2 64.5 6.5t52.5 8.5q25 4 51 5
t63 -2q11 -1 18 -7t9 -14t0 -17t-8 -16z" />
    <glyph glyph-name="asciicircum" unicode="^" horiz-adv-x="460" 
d="M385 438q-38 48 -71 99.5t-78 108.5q-26 -27 -44.5 -48t-36.5 -41q-18 -19 -37 -36t-40 -31q-11 -8 -21 -4.5t-16 12t-5 19.5t13 18q47 33 80 74.5t74 86.5q-1 16 7.5 23.5t22.5 6.5q10 6 20 4.5t16.5 -7.5t9 -16.5t-2.5 -22.5l12 -13q23 -25 41 -48.5t35 -46.5
q17 -24 33.5 -48t36.5 -49q7 -10 7.5 -19.5t-4 -17t-13 -12.5t-17.5 -5q-12 0 -22 13z" />
    <glyph glyph-name="underscore" unicode="_" horiz-adv-x="500" 
d="M271 -130l-243 -1q-13 0 -19.5 7t-6.5 16q0 8 6.5 15t19.5 7q48 0 110.5 2t125.5 4q45 2 85.5 3t74.5 1q12 0 20 1t22 1q15 0 23 -8.5t8 -18.5q0 -11 -8 -19.5t-23 -8.5q-14 0 -22 -0.5t-20 -0.5h-153z" />
    <glyph glyph-name="grave" unicode="`" horiz-adv-x="437" 
d="M144 599q-9 3 -11.5 10t-0.5 14t8.5 11t15.5 1q13 -5 29 -17t31 -27t27 -32t18 -31t1 -24.5t-15.5 -15t-22 -1.5t-17.5 17q-5 10 -11.5 25.5t-14.5 29.5t-17.5 25.5t-19.5 14.5z" />
    <glyph glyph-name="a" unicode="a" horiz-adv-x="388" 
d="M105 -11q-21 0 -34.5 11t-21.5 27.5t-11.5 35.5t-3.5 35q0 40 5.5 68.5t14.5 56.5q7 21 23.5 56t39.5 68.5t50.5 58t56.5 24.5q18 0 33 -12.5t15 -23.5q0 -16 -7 -22t-12 -8h-5q-6 0 -13.5 1t-14.5 1q-7 -1 -18 -7t-22 -17q-45 -45 -66.5 -100.5t-21.5 -118.5
q0 -27 10.5 -44t20.5 -17q3 0 19 8.5t37 28.5t44.5 53t42.5 83q9 39 13 66.5t8 45t11 26t23 8.5q9 0 15.5 -6t6.5 -21q0 -32 -10 -64t-12 -64q-1 -13 -1 -22.5v-22.5q0 -54 10 -97.5t27 -70.5q7 -11 7 -22q0 -14 -10.5 -18.5t-21.5 -4.5q-15 0 -25.5 15t-18 38.5t-12.5 51
t-8 51.5q-43 -65 -85.5 -100t-77.5 -35z" />
    <glyph glyph-name="b" unicode="b" horiz-adv-x="413" 
d="M231 350q43 9 74.5 2.5t50.5 -23.5t24.5 -44t-2.5 -58q-9 -35 -30.5 -76t-52.5 -76t-69.5 -58.5t-81.5 -23.5q-40 0 -59.5 18t-27.5 47.5t-8 67v77.5v14q-10 0 -15.5 5.5t-5.5 14t5 17.5t16 16q1 0 3 2q3 46 8 99t10.5 102t9.5 89.5t6 62.5q2 14 12 21t20 7q12 0 22 -7.5
t11 -21.5v-10.5t-1 -8.5q-2 -12 -11 -31q-3 -29 -5.5 -61.5t-5.5 -67t-5.5 -69t-4.5 -66.5q5 3 10 5t9 4q25 11 51.5 19.5t42.5 11.5zM142 262q-4 -2 -11.5 -6t-17.5 -9q0 -8 -0.5 -15.5t-0.5 -15.5q-1 -14 -2.5 -33.5t-1.5 -40.5t2.5 -40t10.5 -31q5 -8 7.5 -16.5
t11.5 -8.5q2 2 8 6t8 5q12 4 33 17.5t44.5 36t44 53.5t30.5 72q17 63 -32 63q-17 0 -37 -4.5t-38.5 -10.5t-34 -12.5t-24.5 -9.5z" />
    <glyph glyph-name="c" unicode="c" horiz-adv-x="366" 
d="M346 121q-28 -49 -61 -81.5t-66.5 -49t-65 -17.5t-57.5 13q-19 10 -32.5 29t-21 44t-9.5 55.5t2 63.5q4 31 20.5 74.5t43 82.5t60.5 65.5t73 24.5q22 -1 36 -9t22.5 -21t12 -29t3.5 -33q0 -22 -3 -41q-2 -10 -4 -16t-16 -7q-11 -2 -20.5 6.5t-9.5 22.5q-1 28 -7.5 50.5
t-18.5 22.5q-25 0 -48 -22.5t-41.5 -54t-31 -64.5t-15.5 -55q-7 -57 5 -91t37 -44q17 -7 38.5 -3t43 18t43 37t38.5 53q8 13 19 17.5t20 -0.5q11 -2 16.5 -11.5t-5.5 -29.5z" />
    <glyph glyph-name="d" unicode="d" horiz-adv-x="389" 
d="M322 114q0 -26 3.5 -51t12.5 -43q3 -5 6.5 -7.5t6.5 -5.5t5 -8t2 -14q0 -8 -6.5 -12.5t-13.5 -4.5q-27 0 -42 20.5t-23 56.5q-14 -11 -33 -19.5t-40 -14.5t-42 -9.5t-39 -3.5q-25 0 -43 11t-29 28t-16.5 36.5t-5.5 36.5q0 43 24 87t60.5 81.5t81.5 65.5t87 40
q0 16 4 46.5t9.5 60.5t9.5 52.5t4 24.5q-6 24 -6 37q0 15 7.5 22.5t17.5 10.5t18 3.5t10 0.5q11 0 18.5 -6t7.5 -18q0 -7 -3 -16q-1 -4 -5 -22t-9.5 -46.5t-11 -65.5t-10.5 -78q9 -4 13 -12.5t4 -17.5t-5.5 -16.5t-16.5 -10.5q-6 -55 -9 -114.5t-3 -104.5zM274 319
q-31 -12 -64.5 -35t-61 -52t-45.5 -61t-18 -61q0 -25 11.5 -38.5t22.5 -13.5q18 0 40 5t42.5 13.5t37 21t23.5 27.5v27z" />
    <glyph glyph-name="e" unicode="e" horiz-adv-x="389" 
d="M104 190q22 1 52 10.5t58 27t48 43t22 58.5q2 26 -5.5 35t-18.5 9q-25 0 -51 -17.5t-48 -44.5t-37.5 -59t-19.5 -62zM184 -13q-32 0 -58.5 12t-46 36t-29 60t-6.5 84q3 45 21.5 90t48.5 81t68.5 58.5t80.5 22.5q21 0 36 -9t23.5 -23.5t12 -33t2.5 -36.5q-3 -44 -27 -78.5
t-58.5 -59.5t-73.5 -39.5t-72 -18.5q6 -51 29 -70t52 -19q22 0 44.5 6t42.5 16t36.5 23.5t25.5 28.5q8 12 18.5 13t18.5 -4.5t11 -16.5t-5 -23q-15 -24 -38.5 -42.5t-50 -31.5t-54.5 -19.5t-52 -6.5z" />
    <glyph glyph-name="f" unicode="f" horiz-adv-x="317" 
d="M26 296q21 13 42.5 20.5t44.5 13.5q2 30 6 69.5t11 81t17.5 81.5t25.5 71.5t34.5 50.5t45.5 19q29 0 48 -18t29.5 -44t13.5 -54.5t0 -50.5q-5 -26 -27 -26q-13 0 -24 8.5t-9 25.5q1 7 0.5 23t-4 33t-10 30t-17.5 13t-20.5 -15.5t-17.5 -36t-13.5 -40.5t-7.5 -29
q-12 -43 -16.5 -88.5t-5.5 -90.5q36 8 59.5 10.5t51.5 3.5q11 1 20.5 -0.5t13.5 -8.5q8 -13 0.5 -28.5t-27.5 -17.5q-29 -4 -59 -8t-60 -9q-1 -78 4 -155.5t15 -155.5q5 -4 9 -12t3 -17t-8.5 -16.5t-24.5 -10.5q-12 -2 -23 5t-13 23q-11 81 -17.5 161.5t-4.5 161.5l-29 -9
q-12 -3 -25 -11t-25 -5q-7 3 -12.5 9t-7.5 14t1 15.5t13 13.5z" />
    <glyph glyph-name="g" unicode="g" horiz-adv-x="448" 
d="M217 442q5 -1 9 -1h8h17q13 -3 22 -4t16.5 -4.5t15 -10.5t16.5 -21q6 -8 6 -16q0 -12 -10 -21t-22 -9q-7 0 -12 4t-10 9.5t-11 9.5t-14 4q-9 0 -24 -9t-23 -16q-49 -44 -74.5 -113.5t-25.5 -154.5v-18l20 20q17 3 39 14.5t44 28t43 37.5t37 42.5t26 43t10 39.5q0 6 -1 12
t-1 13t12 13.5t26 6.5q9 0 18 -4t14 -14v-10q0 -8 -6 -27v-7q18 -110 18 -201q0 -40 -5 -88.5t-15.5 -97t-25 -94t-33.5 -81t-42 -56.5t-50 -21q-8 0 -18 2.5t-10 15.5q0 14 7.5 23t19.5 11q29 33 49 78t32.5 96t18 105.5t5.5 107.5q0 26 -1.5 52t-3.5 50q-19 -26 -31.5 -42
t-20 -25.5t-12 -14l-8.5 -8.5q-14 -13 -32.5 -27.5t-39.5 -26.5t-43.5 -20t-42.5 -8q-32 0 -46 21.5t-14 65.5q0 33 7 71.5t20 77t30 74t37 63t41.5 44t43.5 16.5z" />
    <glyph glyph-name="h" unicode="h" horiz-adv-x="396" 
d="M119 691q10 24 32 24q18 0 24 -7t6 -18v-5.5t-1 -5.5q-8 -57 -15 -115.5t-12 -115.5q-6 -69 -8 -118t-3 -64q7 19 19 45t28 49.5t34.5 40t39.5 16.5q19 0 32 -12t22 -30t13.5 -38t7.5 -36q5 -33 9.5 -58.5t10.5 -57.5q8 -38 18 -78t23 -72q1 -3 2 -7t1 -6
q0 -14 -10 -22.5t-23 -8.5q-17 0 -28.5 18t-19.5 46t-13.5 63t-10.5 69q-5 29 -9.5 52.5t-7.5 38.5q0 2 -0.5 3t-0.5 3q-3 17 -8 36t-12 33q-24 -15 -44.5 -47.5t-36.5 -72.5t-27.5 -83t-16.5 -79q-2 -23 -3 -41.5t-1 -32.5q0 -20 -5.5 -25t-19.5 -5q-7 0 -20 6.5t-13 20.5
q0 1 0.5 8t1 15l1 16t0.5 11q2 18 2.5 40t2.5 51q2 35 3.5 69t3.5 69q7 100 14 200.5t18 217.5z" />
    <glyph glyph-name="i" unicode="i" 
d="M157 525q-15 0 -29 12t-14 40q0 16 8.5 22t28.5 6q14 0 25.5 -8.5t11.5 -33.5q0 -22 -11 -30t-20 -8zM143 113q0 -11 0.5 -21t2.5 -18t8 -21.5t6 -23.5q0 -16 -13.5 -24t-27.5 -8q-5 0 -12 1.5t-13 9.5t-10.5 25t-4.5 49q0 6 1.5 36t3.5 65.5t4 68t2 44.5q1 20 2 41
t4.5 37.5t10 27t18.5 10.5q17 0 29 -11t12 -30q0 -1 -1.5 -16t-4 -38.5t-5.5 -52t-5.5 -57t-4.5 -53.5t-2 -41z" />
    <glyph glyph-name="j" unicode="j" horiz-adv-x="219" 
d="M133 582q3 -28 -8.5 -37.5t-21.5 -9.5q-13 0 -26.5 9.5t-15.5 31.5t4 29t23 9q14 2 28.5 -3.5t16.5 -28.5zM149 382q3 -34 8 -76t9.5 -85.5t8 -85.5t3.5 -77q0 -47 -13 -105t-40 -109t-69.5 -85.5t-101.5 -34.5q-31 0 -49 11t-27 27.5t-11.5 36.5t-2.5 37q0 15 9.5 22.5
t20.5 7.5t20.5 -7.5t9.5 -22.5q0 -17 1.5 -27.5t5 -16t9 -7t14.5 -1.5q43 0 74.5 30.5t51 73.5t29 90t9.5 80q0 35 -3.5 76t-8 83.5t-9.5 83.5t-8 75q-1 15 7.5 23.5t20 9.5t21.5 -5.5t11 -21.5z" />
    <glyph glyph-name="k" unicode="k" horiz-adv-x="422" 
d="M414 32q-8 -10 -18.5 -12t-22.5 6q-26 20 -45 36t-36 30q-18 16 -38.5 30t-52.5 30q-22 11 -41.5 23t-51.5 26q-6 -51 -6.5 -89.5t4.5 -76.5q1 -8 2.5 -15t2.5 -15q1 -13 0 -22q-2 -5 -8.5 -11t-29.5 -6q-18 0 -27 25t-10.5 66t2.5 94t11 109q7 61 17.5 117t22 99.5
t22 70.5t18.5 30q13 5 23.5 2.5t17.5 -10t10 -18t0 -21.5q-9 -27 -15 -43t-11 -28t-8.5 -23.5t-7.5 -28.5t-8.5 -42.5t-10.5 -65.5q22 9 37.5 15.5t28 11.5l25 10t29.5 11q26 9 51 15.5t51 8.5q6 1 12.5 -3.5t9.5 -12t0.5 -16t-13.5 -15.5q-5 -3 -21 -7.5t-35 -9.5
q-45 -12 -89.5 -27t-89.5 -31q44 -13 68 -25t43 -23q31 -18 52 -32.5t41 -28.5q20 -15 40 -31t49 -37q12 -8 12.5 -19.5t-6.5 -20.5z" />
    <glyph glyph-name="l" unicode="l" horiz-adv-x="210" 
d="M254 684q0 -40 -20.5 -95.5t-48.5 -109.5q-7 -47 -16 -92.5t-16 -90.5q-6 -42 -11 -84.5t-5 -86.5q0 -36 4.5 -71.5t16.5 -71.5q2 -8 2 -10q0 -11 -7.5 -16.5t-18.5 -5.5q-20 0 -31.5 21t-17.5 50t-7.5 60t-1.5 51q0 51 6.5 100.5t14.5 97.5q-8 -3 -16 -3q-11 0 -20 6
t-9 19q0 6 1 9q19 34 37.5 68.5t35.5 69.5l7 48q3 21 8 51.5t14 58t23.5 47.5t37.5 20q14 0 25.5 -8.5t12.5 -25.5v-6z" />
    <glyph glyph-name="m" unicode="m" horiz-adv-x="611" 
d="M421 252q-36 -57 -52.5 -112t-32.5 -113q-3 -12 -13 -16.5t-20.5 -3t-19 9.5t-8.5 20q0 26 1.5 67.5t0.5 86t-5 85t-15 64.5q-7 16 -11 18t-15 2q-13 0 -27.5 -23t-28.5 -58t-27 -77.5t-22.5 -81.5t-16 -69t-7.5 -41q0 -9 -1 -17t-6 -21q-6 -16 -14.5 -21t-16.5 -2.5
t-13 10.5t-4 19q6 79 10 134t7.5 101.5t6 92.5t5.5 107q0 12 8 18t17 5.5t17 -7t8 -18.5q-2 -40 -3 -74.5t-3 -66.5q6 23 15.5 52.5t24 55.5t34.5 43.5t47 17.5q36 0 56.5 -27.5t30 -65.5t11.5 -78.5t2 -67.5q3 7 13 30t23.5 48t29 44.5t29.5 19.5q32 0 55 -26.5t38 -62
t23.5 -71t11.5 -53.5q5 -29 9 -57t8 -48q2 -12 -6 -19.5t-18.5 -9t-20 3.5t-11.5 17q-4 23 -9 55.5t-12.5 66.5t-18 65.5t-25.5 53.5q-11 16 -20 13t-19 -18z" />
    <glyph glyph-name="n" unicode="n" horiz-adv-x="397" 
d="M235 334q-14 -8 -28.5 -31t-28 -54t-25.5 -66t-21.5 -67t-15.5 -57.5t-8 -37.5q-2 -15 -12 -22t-21 -6t-19.5 9.5t-7.5 24.5q5 88 11 184t22 184q3 15 14 21t22 4t19 -11t5 -24q-11 -53 -15 -108q7 16 17.5 36.5t25 39t32 31t38.5 12.5t34.5 -14t22 -34t12.5 -41.5
t7 -36.5q11 -57 23.5 -114.5t35.5 -111.5q6 -14 0 -24.5t-16.5 -15t-22 -1.5t-17.5 17q-24 57 -37 117.5t-24 120.5q-4 20 -8 39.5t-14 36.5z" />
    <glyph glyph-name="o" unicode="o" horiz-adv-x="372" 
d="M241 343q-16 0 -32 -5t-30.5 -12.5t-26.5 -15.5t-19 -13q-3 -2 -6 -9q-5 -11 -7 -13l-4 -4q-5 -5 -13.5 -8t-16.5 -2q-5 -16 -7 -29t-4 -25q-3 -30 1 -56.5t14 -47t24.5 -32t31.5 -11.5q29 0 54 19t44 47.5t32 63t18 66.5q1 15 -0.5 30.5t-7.5 28t-17 20.5t-28 8zM147 -1
q-34 0 -58.5 17t-41 44t-24.5 61t-8 67q0 10 0.5 18.5t1.5 16.5q5 40 22 75t45 52q23 14 40.5 16t26.5 0q35 19 61.5 28.5t47.5 9.5q28 0 47.5 -12.5t31 -32.5t16 -44t2.5 -48q-4 -41 -22 -88t-46 -87.5t-64.5 -67t-77.5 -25.5z" />
    <glyph glyph-name="p" unicode="p" horiz-adv-x="449" 
d="M123 27q-3 -41 -4.5 -87t-1 -89.5t2 -80t4.5 -58.5q1 -6 3.5 -11.5t5.5 -11.5q1 -3 2.5 -6t1.5 -6q0 -20 -7.5 -31t-18 -15.5t-21 -3.5t-16.5 5q-3 3 -5.5 10.5t-4 16t-2.5 16.5t-1 13q-3 22 -5 59t-2 80.5t1 90.5t4 89q-23 -9 -33 -3t-11 17.5t6.5 23.5t19.5 17
q4 1 8.5 2.5t15.5 6.5q6 57 13 102t15 77q2 11 6 24l12 39q-27 -14 -41.5 -24t-25.5 -21q-12 -12 -22.5 -11.5t-16.5 9.5q-6 8 -4.5 20.5t13.5 24.5q31 31 66 48.5t68.5 26.5t61.5 11t45 2h22q7 0 14 -0.5t15 -1.5q25 -2 50.5 -8t44.5 -19.5t27.5 -35.5t0.5 -55
q-11 -48 -41.5 -86.5t-73 -69.5t-92.5 -54.5t-99 -41.5zM314 333q-23 5 -42 5.5t-30 0.5t-17 -0.5t-11 -2.5q-5 -1 -13 -3t-22 -5q-8 -24 -14 -42.5t-10 -35.5q-7 -28 -13 -66t-13 -92q45 18 86 39.5t73 45.5t53 49.5t27 52.5q5 22 -11 35.5t-43 18.5z" />
    <glyph glyph-name="q" unicode="q" horiz-adv-x="360" 
d="M313 -419q-2 -1 -7 -1q-11 0 -20 6.5t-12 20.5q-14 63 -22 137.5t-8 152.5q0 69 7 137t24 127q-56 -73 -100.5 -113t-87.5 -40q-40 0 -54 25t-14 63q0 16 2 35t5.5 38.5t8 37t9.5 31.5q16 45 35.5 81t40.5 60.5t42.5 37.5t41.5 13q7 0 16.5 -2.5t17.5 -8.5t13.5 -15.5
t5.5 -23.5q0 -5 -6 -11.5t-10 -6.5q-8 0 -14 2t-11 2q-15 0 -23 -5q-30 -20 -50.5 -48.5t-33 -63t-18.5 -72.5t-6 -77v-12.5t1 -12.5q45 10 78 37t57 66.5t39.5 88t23.5 100.5q0 2 0.5 9.5t0.5 9.5q3 17 9 29.5t23 12.5q11 0 23 -5.5t12 -17.5q0 -10 -7 -31v-9
q-5 -42 -11.5 -102.5t-12.5 -126.5t-10 -131t-4 -116q0 -79 7 -143t24 -127q1 -3 1 -7q0 -13 -7.5 -21t-18.5 -10z" />
    <glyph glyph-name="r" unicode="r" horiz-adv-x="327" 
d="M378 452q4 -9 4 -17q-1 -8 -4 -16.5t-13 -12.5q-5 -2 -11.5 -1.5t-10.5 -1.5q-47 -22 -81 -56.5t-56.5 -77.5t-33.5 -92t-11 -100q0 -11 -0.5 -19.5t0.5 -19.5q0 -3 -0.5 -9.5t-1.5 -14t-2 -13.5t-2 -8q-9 -15 -26.5 -14.5t-29.5 9.5q-6 5 -10.5 17.5t-2.5 38.5
q1 20 1.5 40.5t0.5 42.5q0 65 -10.5 133t-39.5 122q-3 5 0.5 13.5t11.5 15.5t19.5 8t24.5 -9q13 -9 19.5 -29.5t13.5 -64.5l9 -56q33 66 81 122t117 87q14 6 26.5 0.5t17.5 -17.5z" />
    <glyph glyph-name="s" unicode="s" horiz-adv-x="355" 
d="M88 -60q-1 0 -2 -1q-12 -5 -20 -4q-12 4 -17 20q-4 11 -0.5 26.5t14.5 18.5q12 4 19.5 -0.5t18.5 -2.5q8 2 9 2q5 0 16 4q12 3 36 13t48.5 23.5t42.5 30t18 33.5q0 10 -9.5 18.5t-22 14.5t-26 10t-21.5 6q-11 3 -23.5 6t-26.5 8q-19 5 -40.5 13t-40 20t-30.5 29.5
t-12 41.5q0 28 13.5 51.5t35 41t48 30t53 20.5t50.5 10.5t39 0.5q11 -2 19.5 -7t8.5 -16q1 -7 0.5 -14t-3.5 -13q-5 -9 -16.5 -12.5t-18.5 1.5q-8 6 -17 6q-27 0 -54.5 -8.5t-49.5 -21.5t-36 -29t-14 -31q0 -28 38 -45q22 -8 40 -14q11 -4 23 -7t24 -7q23 -6 46 -13.5
t41 -19t29.5 -26.5t11.5 -36q0 -38 -25.5 -67t-62.5 -50t-79 -34.5t-74 -19.5h-1z" />
    <glyph glyph-name="t" unicode="t" horiz-adv-x="308" 
d="M27 333q-15 -1 -24 5t-11.5 14.5t3.5 16.5t22 11q4 0 11.5 1.5t16 4t15.5 4.5t10 3q16 5 36.5 11t43.5 14q11 56 27 109.5t37 106.5q4 12 14.5 16.5t21 2.5t17.5 -10t5 -21q-36 -89 -57 -185q30 8 57.5 14t47.5 6q16 -2 27 -12.5t-1 -26.5q-2 -2 -3 -2q-9 -8 -25 -8
q-29 -5 -57 -13t-57 -16q-16 -92 -19 -184.5t6 -183.5q-2 -12 -10 -18t-17.5 -6.5t-18.5 4.5t-13 16q-8 88 -6.5 176t14.5 176q-28 -8 -56 -14.5t-57 -11.5z" />
    <glyph glyph-name="u" unicode="u" horiz-adv-x="426" 
d="M383 -8q-13 -6 -26 -2.5t-20 18.5q-8 17 -15 32.5t-14 31.5q-3 8 -6 17t-6 21.5t-7.5 31.5t-10.5 48q-7 -25 -11.5 -41t-7.5 -26.5t-4.5 -17t-3.5 -12.5q-4 -14 -11.5 -29.5t-17.5 -28.5t-21.5 -22.5t-23.5 -11.5q-30 -4 -51 18t-34.5 59t-21 83.5t-11 91.5t-4.5 83
t-1 58q1 24 11 31.5t21 5.5q13 -2 24 -12t9 -27v-36q0 -51 5 -112t16 -118q4 -17 15.5 -34.5t22.5 -18.5q9 0 21 18.5t20 44.5q7 22 11.5 42.5t6.5 27.5q6 21 10.5 45.5t9.5 49.5q5 24 10 47t12 42q5 14 16 19.5t22.5 3.5t20 -10.5t8.5 -23.5q0 -36 -0.5 -76t2.5 -80
t10.5 -78.5t23.5 -71.5l18 -37q8 -15 2 -27t-19 -17z" />
    <glyph glyph-name="v" unicode="v" horiz-adv-x="374" 
d="M349 443q10 10 27 10q11 0 20 -5t9 -15q0 -7 -6 -16q-30 -38 -61.5 -88t-58.5 -104.5t-47 -110t-26 -104.5q-3 -35 -46 -35q-14 0 -25.5 10.5t-16.5 33.5q-17 81 -46 160.5t-52 153.5q0 14 8 20.5t19 6.5q8 0 17 -3.5t14 -11.5q20 -68 42.5 -132.5t39.5 -133.5
q12 43 33 92.5t46.5 98t54 93.5t55.5 80z" />
    <glyph glyph-name="w" unicode="w" horiz-adv-x="669" 
d="M407 -18q-27 0 -45.5 18t-30 48t-18.5 68t-12 77q-15 -35 -36 -72.5t-42 -69t-40 -52t-30 -20.5q-7 0 -12.5 6t-9.5 21q-9 34 -16 77.5t-16 89t-22 89.5t-33 80q-4 7 -4 15q0 12 9.5 20t21.5 8q16 0 32 -30t30.5 -75t26 -97t19.5 -95q22 43 34 64.5t22 39.5
q13 24 28 54.5t30.5 57.5t31.5 45.5t31 18.5q14 0 22 -9t8 -26q0 -15 -10 -36q0 -22 -3.5 -50t-3.5 -57q0 -19 1.5 -40.5t6 -41t11.5 -35t18 -24.5q26 0 50 20t42 51t29 69.5t11 75.5q0 38 -5.5 71.5t-16.5 53.5q-5 10 -5 17q0 14 11 23.5t25 9.5q16 0 27 -16.5t18 -41
t10.5 -54t3.5 -54.5q0 -51 -16 -103t-43 -94t-63 -68.5t-77 -26.5z" />
    <glyph glyph-name="x" unicode="x" horiz-adv-x="378" 
d="M327 439q14 0 24.5 -7t10.5 -17q0 -5 -3.5 -11t-11.5 -12q-35 -27 -72 -69t-70 -92l26 -27q37 -38 70 -78t47 -89q1 -3 1 -8q0 -13 -9.5 -20t-21.5 -7q-11 0 -21 5.5t-14 16.5q-14 44 -44 81t-65 75q-26 -47 -44 -93.5t-18 -83.5q0 -5 0.5 -12.5t1.5 -12.5q0 -3 0.5 -5.5
t0.5 -4.5q-4 -12 -14 -19.5t-20 -7.5q-24 0 -30.5 20t-6.5 44v6.5t1 6.5q11 55 32 108.5t50 104.5q-25 29 -45.5 62t-30.5 68q1 14 10.5 22.5t20.5 8.5q3 0 9 -1.5t12 -4t10 -6t4 -8.5q6 -26 17.5 -47.5t26.5 -41.5q62 88 145 151q9 5 21 5z" />
    <glyph glyph-name="y" unicode="y" horiz-adv-x="413" 
d="M108 -339q4 -7 4 -19q0 -15 -9.5 -25t-21.5 -13t-24 2t-17 19q-6 5 -7.5 12.5t5.5 21.5q2 4 2.5 7.5t2.5 6.5l4 11l2 3q10 42 22.5 80.5t27.5 76.5t32.5 78t38.5 85q-10 -4 -20.5 -1t-18.5 15q-12 20 -30 56.5t-35.5 77t-30.5 79.5t-15 64q-1 16 8.5 25t21.5 10
t22.5 -6.5t11.5 -23.5q2 -20 14.5 -55t28.5 -72.5t32.5 -70.5t26.5 -50l3 -6q20 42 38 82.5t35 78.5q23 57 49 112t49 113q6 15 18.5 19t23.5 -0.5t17.5 -16t0.5 -26.5q-23 -58 -49 -114t-50 -113q-28 -66 -63.5 -140.5t-69.5 -152.5q-15 -36 -27.5 -65t-22 -56t-17 -53
t-13.5 -56z" />
    <glyph glyph-name="z" unicode="z" horiz-adv-x="433" 
d="M73 -12q-11 -2 -18 -4t-8 -2q-22 0 -32.5 12t-10.5 26q1 8 4 16.5t11 13.5q32 22 58.5 45t53.5 49q16 16 39 37.5t47 44.5t46 45t37 39q-51 -2 -101.5 -3.5t-92.5 -9.5q-2 0 -3.5 -0.5t-3.5 -0.5q-11 0 -18 9.5t-7 20.5q0 8 5.5 16.5t16.5 10.5q56 11 119.5 13.5
t120.5 2.5q4 0 10.5 -2.5t13 -7t11 -10.5t4.5 -12q0 -8 -6.5 -20.5t-21.5 -30.5q-56 -66 -118.5 -123.5t-126.5 -112.5q28 7 65 12.5t74 9.5t69 5.5t51 1.5q12 0 24.5 -2.5t23 -7.5t17.5 -12.5t7 -17.5q0 -11 -10.5 -18t-21.5 -7q-13 0 -22 6q-11 5 -29 4t-32 -1
q-25 0 -54.5 -2.5t-61 -7t-63 -11t-59.5 -14.5h-7z" />
    <glyph glyph-name="braceleft" unicode="{" horiz-adv-x="312" 
d="M140 608q0 -29 11 -55.5t22 -52.5q12 -26 21 -53t9 -56q0 -40 -46 -74q17 -26 22.5 -51t5.5 -52q0 -35 -13 -68t-22 -67q-3 -11 -5 -23t-2 -25q0 -42 16.5 -62t36.5 -20q21 8 33.5 8.5t19 -2.5t9 -8.5t2.5 -10.5q-1 -16 -17.5 -32.5t-49.5 -16.5t-55.5 15t-36 37
t-19.5 47t-6 45q0 22 6.5 44t15 44.5t15 46t6.5 48.5v22q0 12 -3 23q-3 12 -11.5 22t-26.5 14q-15 3 -22 12t-6.5 19t8.5 18.5t24 9.5q9 1 19.5 3t19.5 6.5t14.5 11t5.5 16.5q-1 28 -10.5 54t-21 52t-21 53t-9.5 58q0 32 15.5 62t41 53.5t58.5 37.5t68 14q14 0 21.5 -8
t7.5 -18q0 -9 -7.5 -17t-21.5 -8q-24 0 -46.5 -10t-39 -26.5t-26.5 -37t-10 -42.5z" />
    <glyph glyph-name="bar" unicode="|" horiz-adv-x="250" 
d="M92 -22q-6 3 -11.5 8.5t-6.5 13.5t5 21t22 31q8 57 11 116.5t2 116.5q0 36 -5.5 80.5t-12.5 90.5t-13.5 91t-8.5 82q-2 42 1.5 68.5t19.5 30.5q32 7 44 -3t17 -30q5 -19 8.5 -58t6 -91t3.5 -111.5t1 -119.5t-0.5 -116t-2 -100.5t-4 -73.5t-6.5 -34q-8 -13 -29.5 -17
t-40.5 4z" />
    <glyph glyph-name="braceright" unicode="}" horiz-adv-x="280" 
d="M105 -113q-33 0 -49.5 16.5t-17.5 32.5q0 5 2.5 10.5t9 8.5t19 2.5t33.5 -8.5q20 0 36.5 20t16.5 62q0 25 -6.5 48t-14.5 45.5t-14.5 44.5t-6.5 45q0 27 5.5 52t22.5 51q-46 34 -46 74q0 29 9 56t21 53q11 26 22 52.5t11 55.5q0 22 -10 42.5t-26.5 37t-39 26.5t-46.5 10
q-14 0 -21 8t-7 17q0 10 7 18t21 8q35 0 68 -14t58.5 -37.5t41 -53.5t15.5 -62q0 -31 -9.5 -58t-21 -53t-21 -52t-10.5 -54q0 -10 5.5 -16.5t14.5 -11t19.5 -6.5t19.5 -3q16 -1 24 -9.5t8.5 -18.5t-6.5 -19t-22 -12q-18 -4 -26.5 -14t-11.5 -22q-3 -11 -3 -23v-22
q0 -25 6.5 -48.5t15 -46t15 -44.5t6.5 -44q0 -20 -6 -45t-19.5 -47t-36 -37t-55.5 -15z" />
    <glyph glyph-name="asciitilde" unicode="~" horiz-adv-x="625" 
d="M451 254q-48 0 -80.5 19t-59.5 43q-13 12 -26.5 24.5t-27.5 22t-30 16t-34 6.5q-29 0 -50 -11.5t-42 -31.5q-6 -5 -11.5 -11.5t-12.5 -12.5q-10 -10 -19.5 -8t-17.5 10q-7 9 -7.5 20t9.5 21q10 9 18.5 18t16.5 17q27 26 52.5 40t63.5 14q46 0 76 -18.5t56 -41.5
q14 -11 27.5 -23t28.5 -21q15 -10 32.5 -16t37.5 -6q38 0 67 9.5t57 29.5q14 11 26 6.5t19 -15.5q8 -12 6.5 -25.5t-15.5 -24.5q-35 -26 -72 -38t-88 -12z" />
    <glyph glyph-name="Euro" unicode="&#x20ac;" horiz-adv-x="659" 
d="M79 225v15v8t1 8q1 9 1.5 18t2.5 19q-11 -3 -21.5 -6.5t-21.5 -7.5q-12 -4 -20.5 1.5t-11.5 14.5t0 18t15 13q18 7 36 12t37 10q16 53 44 109.5t65.5 104.5t84 80.5t99.5 36.5q46 4 74.5 -7t46 -32.5t26 -52t15.5 -66.5q0 -4 -2 -10.5t-8 -12t-17 -9t-28 -1.5
q-10 1 -14.5 9.5t-7.5 23.5q0 54 -20.5 85t-56.5 27q-39 -4 -73.5 -30.5t-64 -65t-52 -85t-37.5 -89.5q51 9 102 16.5t102 19.5q12 3 20 -3t10 -15.5t-2 -18.5t-16 -12q-57 -14 -115.5 -21.5t-116.5 -18.5q-5 -19 -7 -35.5t-3 -30.5q57 17 112.5 30t115.5 13q9 0 15 -0.5
t15 -0.5q12 0 18.5 -8t6.5 -17t-6.5 -17t-18.5 -8q-9 0 -15 0.5t-15 0.5q-60 0 -114.5 -13.5t-111.5 -30.5q3 -32 12 -63t27 -55t47 -39t72 -15q40 0 79 13.5t76.5 37t72.5 56t68 70.5l10 10t11 7q10 4 32 -11q6 -5 6.5 -23.5t-21.5 -42.5q-24 -27 -58 -57.5t-77.5 -57
t-96.5 -43.5t-115 -17q-51 0 -88 18t-62.5 47.5t-39.5 67.5t-19 78q-11 -2 -20.5 -5t-20.5 -5q-12 -3 -19.5 3t-10 15.5t2 18.5t16.5 12z" />
    <glyph glyph-name="quotesinglbase" unicode="&#x201a;" horiz-adv-x="151" 
d="M98 67q14 -22 24.5 -45t10.5 -53q0 -13 -4.5 -27.5t-12.5 -27t-18 -21t-20 -8.5q-12 0 -20.5 11t-8.5 23q0 7 4.5 13t10.5 11.5t10.5 11.5t4.5 14q0 12 -4.5 23t-10.5 21t-10.5 18.5t-4.5 15.5q0 13 9 22.5t20 9.5q12 0 20 -12z" />
    <glyph glyph-name="florin" unicode="&#x192;" horiz-adv-x="453" 
d="M183 -16q-3 40 -7 71.5t-8 61t-6 61t-1 71.5q-17 -5 -29 -8.5t-25 -11.5t-24.5 -4.5t-17 12.5t-4 20t14.5 19q21 13 42.5 20.5t44.5 13.5q1 18 3 43t5 53t7 56t9 53q7 37 17.5 71t25 60t32.5 41.5t41 15.5q29 0 48 -18t29.5 -44t13.5 -54.5t0 -50.5q-5 -26 -27 -26
q-13 0 -24 8.5t-9 25.5q1 7 0 23t-4 33t-9.5 30t-17.5 13t-20.5 -15.5t-17.5 -36t-13.5 -40.5t-7.5 -29q-6 -21 -10 -46.5t-6.5 -52t-4 -52.5t-1.5 -48q36 8 59.5 10.5t51.5 3.5q11 1 20.5 -0.5t13.5 -8.5q8 -13 0.5 -28.5t-27.5 -17.5q-29 -4 -59 -8t-60 -9q0 -38 1.5 -69
t4 -61t6 -61t6.5 -69q7 -91 -4.5 -144t-53.5 -70q-47 -20 -84 -8.5t-54 40.5q-13 22 2 37q9 9 20.5 10t22.5 -13q4 -6 12 -11t18 -7t22 0t24 10q9 6 13.5 21.5t6 35t1 40.5t-1.5 38z" />
    <glyph glyph-name="quotedblbase" unicode="&#x201e;" horiz-adv-x="296" 
d="M98 67q14 -22 24.5 -45t10.5 -53q0 -13 -4.5 -27.5t-12.5 -27t-18 -21t-20 -8.5q-12 0 -20.5 11t-8.5 23q0 7 4.5 13t10.5 11.5t10.5 11.5t4.5 14q0 12 -4.5 23t-10.5 21t-10.5 18.5t-4.5 15.5q0 13 9 22.5t20 9.5q12 0 20 -12zM221 67q14 -22 24.5 -45t10.5 -53
q0 -13 -4.5 -27.5t-12.5 -27t-18 -21t-20 -8.5q-12 0 -20.5 11t-8.5 23q0 7 4.5 13t10.5 11.5t10.5 11.5t4.5 14q0 12 -4.5 23t-10.5 21t-10.5 18.5t-4.5 15.5q0 13 9 22.5t20 9.5q12 0 20 -12z" />
    <glyph glyph-name="ellipsis" unicode="&#x2026;" horiz-adv-x="653" 
d="M106 -2q-14 0 -29.5 13t-17.5 40q-3 28 4 37t26 12q4 1 8 1h9q13 0 23.5 -7t12.5 -29q2 -18 -1.5 -31t-9 -21t-12.5 -11.5t-13 -3.5zM333 -2q-14 0 -29.5 13t-17.5 40q-3 28 4 37t26 12q4 1 8 1h9q13 0 23.5 -7t12.5 -29q2 -18 -1.5 -31t-9 -21t-12.5 -11.5t-13 -3.5z
M555 -2q-14 0 -29.5 13t-17.5 40q-3 28 4 37t26 12q4 1 8 1h9q13 0 23.5 -7t12.5 -29q2 -18 -1.5 -31t-9 -21t-12.5 -11.5t-13 -3.5z" />
    <glyph glyph-name="dagger" unicode="&#x2020;" horiz-adv-x="471" 
d="M44 484q27 3 49 5t41.5 4t38.5 4t40 5q2 42 3 84.5t3 93.5q0 14 8 17.5t18 0.5t18 -10.5t8 -15.5q0 -48 -0.5 -87t-1.5 -77q21 2 39.5 3.5t37.5 3t40 2.5t48 1q15 0 22.5 -9.5t7.5 -20.5t-7.5 -20.5t-22.5 -9.5h-89q-19 0 -37.5 -0.5t-39.5 -1.5q-2 -36 -2.5 -65.5
t-0.5 -66.5v-201q0 -76 13 -147q2 -15 -6 -24t-19 -11t-21.5 4t-13.5 21q-13 75 -12 152t1 153v52.5t0.5 44.5t1.5 41.5t2 43.5q-21 -1 -39 -1.5t-37 -1t-40 -2t-47 -4.5q-10 -1 -15.5 4.5t-6.5 13t3.5 14.5t14.5 8z" />
    <glyph glyph-name="daggerdbl" unicode="&#x2021;" horiz-adv-x="471" 
d="M278 247q21 0 40 1t39 1.5t42 1t49 0.5q10 0 15 -7.5t5 -17t-4.5 -17.5t-14.5 -8q-26 0 -47 -0.5t-40 -2t-37.5 -2.5t-39.5 -2l-20 -2v-69q0 -76 13 -147q2 -15 -6 -24t-19 -11t-21.5 4t-13.5 21q-10 55 -11.5 110.5t-0.5 112.5q-17 -1 -32 -1t-23 -1l-39 -4l-49 -3
q-15 -2 -23 5t-10 18q-1 11 5.5 20.5t21.5 11.5q35 3 74 5t76 4v27v52.5t0.5 44.5t1.5 41.5t2 43.5q-21 -1 -39 -1.5t-37 -1t-40 -2t-47 -4.5q-10 -1 -15.5 4.5t-6.5 13t3.5 14.5t14.5 8q27 3 49 5t41.5 4t38.5 4t40 5q2 42 3 84.5t3 93.5q0 14 8 17.5t18 0.5t18 -10.5
t8 -15.5q0 -48 -0.5 -87t-1.5 -77q21 2 39.5 3.5t37.5 3t40 2.5t48 1q15 0 22.5 -9.5t7.5 -20.5t-7.5 -20.5t-22.5 -9.5h-89q-19 0 -37.5 -0.5t-39.5 -1.5q-2 -36 -2.5 -65.5t-0.5 -66.5v-78q3 0 6.5 0.5t6.5 0.5z" />
    <glyph glyph-name="circumflex" unicode="&#x2c6;" horiz-adv-x="354" 
d="M169 538q-11 -8 -23 -17t-21 -17l-9 -6q-6 -5 -12.5 -12t-11.5 -13q-8 -9 -17.5 -9.5t-17.5 4.5q-7 6 -9 14.5t5 17.5q8 11 19.5 24.5t23.5 28t24.5 27.5t22.5 22q19 20 37 -1q24 -24 51 -50.5t45 -52.5q8 -11 4.5 -21t-12.5 -16q-9 -7 -20.5 -6t-19.5 14q-5 6 -14 18.5
t-21 26.5q-8 7 -13.5 13.5t-10.5 10.5z" />
    <glyph glyph-name="perthousand" unicode="&#x2030;" horiz-adv-x="814" 
d="M65 409q-20 10 -36 38.5t-16 63.5q0 24 12 50q29 61 58.5 89t59.5 30q10 1 26 -3t31.5 -15.5t28 -31t16.5 -48.5q7 -46 -12 -83t-49 -60.5t-63.5 -32t-55.5 2.5zM452 583q-17 -33 -41 -70.5t-49 -76t-48.5 -76t-39.5 -69.5q-26 -51 -49.5 -103.5t-42.5 -106.5
q4 -21 2.5 -35.5t-6.5 -22.5t-12.5 -11.5t-14.5 -3.5q-18 -1 -33.5 11t-15.5 29q0 6 11 33t29 67.5t42 90.5t50.5 103.5t53.5 106t51.5 97.5t44 79t31.5 50q13 17 28.5 23t36.5 -14q11 -9 1.5 -36t-29.5 -65zM337 5q-20 9 -35.5 38t-15.5 64q0 22 11 49q29 63 58.5 90.5
t59.5 29.5q10 1 26 -3.5t31.5 -16t28 -31t16.5 -47.5q7 -46 -12 -83t-49 -60.5t-63.5 -32t-55.5 2.5zM160 631q-6 -1 -17.5 -6t-24 -16.5t-26 -30.5t-24.5 -48q-4 -9 -4 -22q0 -17 7.5 -34.5t21.5 -22.5q9 -3 22 1t25.5 12.5t23.5 19t16 20.5q13 25 17.5 49.5t-7.5 49.5
q-5 11 -10.5 17.5t-19.5 10.5zM432 227q-6 -2 -17.5 -7.5t-24 -16.5t-26 -29.5t-24.5 -47.5q-4 -9 -4 -23q0 -17 7.5 -34t21.5 -22q9 -3 22 1t25.5 12.5t23.5 19t16 20.5q13 25 17.5 49.5t-7.5 49.5q-5 11 -10.5 17.5t-19.5 10.5zM609 5q-20 9 -35.5 38t-15.5 64q0 22 11 49
q29 63 58.5 90.5t59.5 29.5q10 1 26 -3.5t31.5 -16t28 -31t16.5 -47.5q7 -46 -12 -83t-49 -60.5t-63.5 -32t-55.5 2.5zM704 227q-6 -2 -17.5 -7.5t-24 -16.5t-26 -29.5t-24.5 -47.5q-4 -9 -4 -23q0 -17 7.5 -34t21.5 -22q9 -3 22 1t25.5 12.5t23.5 19t16 20.5
q13 25 17.5 49.5t-7.5 49.5q-5 11 -10.5 17.5t-19.5 10.5z" />
    <glyph glyph-name="Scaron" unicode="&#x160;" horiz-adv-x="592" 
d="M358 -10q-31 -14 -64 -22t-65 -12.5t-61 -5.5t-52 -1q-20 0 -32.5 8t-12.5 28t7.5 27t15.5 7q12 0 20 -5t20 -5q75 0 141.5 14.5t129.5 52.5q13 9 28.5 20.5t28 26t21 31.5t8.5 37q0 26 -15.5 45.5t-38 34t-48 24.5t-44.5 17q-46 19 -98 34.5t-96.5 34.5t-73.5 43t-29 60
t16 66.5t42.5 55t61 42.5t72.5 30.5t76 18.5t72 6q9 0 17.5 -0.5t16.5 -1.5q10 -1 27 -2.5t32.5 -4.5t27 -9t11.5 -17q0 -17 -4 -30t-26 -13q-8 0 -20 3q-4 1 -9.5 7t-11.5 6q-17 2 -29.5 3t-26.5 1q-47 0 -97 -12.5t-90.5 -33t-66.5 -47t-26 -55.5q0 -16 15 -30.5t38.5 -27
t51.5 -23.5t55 -19.5t48.5 -15t31.5 -10.5q44 -16 81 -34.5t64 -41t42 -49.5t15 -60q-1 -39 -20 -69.5t-47.5 -53.5t-62.5 -41t-67 -32zM286 807q3 -2 7 -1t6 2q17 8 35 25.5t31 30.5q9 8 18 8t17 -6q7 -6 8 -15t-7 -19q-9 -9 -21 -21.5t-25.5 -25.5t-27 -25t-24.5 -20
q-21 -18 -39 5q-10 13 -21.5 26t-22.5 29q-13 14 -23 28t-18 28q-6 11 -2 21t14 17q9 5 21 1t19 -18q3 -5 8.5 -15t13 -21t16 -20.5t17.5 -13.5z" />
    <glyph glyph-name="guilsinglleft" unicode="&#x2039;" horiz-adv-x="248" 
d="M203 50q-5 -11 -17 -16.5t-26 1.5q-17 9 -29.5 20t-23.5 24q-11 14 -20.5 30t-25.5 36q-11 6 -16.5 16.5t-5.5 19.5q0 23 22 45q21 21 37.5 47t33.5 49q8 11 18.5 12t19.5 -6q11 -8 11.5 -17.5t-5 -21t-14.5 -23.5t-17 -25q-8 -12 -16.5 -24t-23.5 -28l8 -11
q7 -11 14.5 -22.5t16 -23t19.5 -22t25 -17.5q15 -7 18 -19.5t-3 -23.5z" />
    <glyph glyph-name="OE" unicode="&#x152;" horiz-adv-x="1070" 
d="M1051 661q-5 -1 -9.5 -1.5t-10.5 0.5q-6 0 -13 1t-15 0q-16 1 -35.5 0.5t-45.5 -5.5q-28 -6 -52.5 -10.5t-57 -12.5t-78.5 -21.5t-117 -36.5q-9 -48 -21.5 -94t-27.5 -106q47 16 97.5 31.5t95.5 23.5q28 4 57.5 8t55 5.5t43.5 0.5t24 -6q9 -7 8.5 -15t-6 -15t-13.5 -12.5
t-15 -6.5q-10 -2 -19.5 -2.5t-19.5 -0.5q-40 0 -84 -8.5t-87 -21t-83 -29t-71 -32.5l-11 -53q-2 -13 -4.5 -25t-2.5 -20q0 -28 4 -55t16 -48.5t33 -34.5t56 -13q13 0 44 7.5t70 18.5t81.5 24.5t80.5 26t66.5 22t39.5 13.5q18 7 30.5 0t17.5 -21t0.5 -27t-22.5 -20
q-20 -7 -51 -16t-65 -18.5t-65 -18.5t-51 -15q-24 -8 -45 -15.5t-42 -13.5t-42.5 -9.5t-46.5 -3.5q-59 0 -95 22t-53 60q-40 -39 -91.5 -61t-117.5 -20q-65 2 -110 37t-72 89t-36 120.5t-2 131.5q4 37 13 71t23 63t33 51t42 36q44 25 72 26.5t41 -1.5q43 24 75.5 34.5
t70.5 3.5q42 -8 67 -26.5t42 -41.5q2 16 4.5 29t4.5 22q2 10 7 26.5t18 20.5q17 5 27 -4.5t17 -32.5q14 3 38.5 9.5t56 14.5t67 16t72.5 16q39 8 73.5 14t62 9t46 2.5t24.5 -5.5q17 -14 13 -30t-24 -21zM283 43q151 -8 192 115v4q0 29 4 57.5t12 58.5q-21 18 -20 34
q2 11 5 16.5t11 11.5l17 11q5 26 11.5 58.5t11.5 65.5q-3 34 -10.5 55.5t-21 33.5t-32 17t-42.5 6q-34 1 -60.5 -7t-47 -19.5t-35 -24.5t-25.5 -22q-6 -8 -15.5 -15t-12.5 -13q-4 -7 -7 -12t-7 -9q-6 -8 -17 -10.5t-37 2.5q-11 -30 -18 -60.5t-10 -60.5q-6 -59 3.5 -111.5
t30 -92.5t51.5 -64t69 -25z" />
    <glyph glyph-name="Zcaron" unicode="&#x17d;" horiz-adv-x="626" 
d="M197 564q-14 4 -20.5 14t-6.5 21t6.5 20.5t20.5 14.5q46 1 91 7t90 13.5t90.5 15t91.5 11.5q12 -2 20.5 -10t10.5 -19t-2.5 -22t-18.5 -17q-19 -9 -50.5 -42.5t-66.5 -75.5q-47 -56 -82 -101.5t-67.5 -88.5t-66.5 -87.5t-77 -96.5q39 8 82.5 11.5t88.5 4.5t89 -1t82 -5
q19 -2 29 -2t17.5 -0.5t15.5 -1.5t25 -3q12 -2 18.5 -12.5t6 -22.5t-10 -22t-30.5 -11q-26 -1 -55.5 4.5t-56.5 7.5q-46 2 -92 3.5t-92 -1t-91 -10.5t-90 -24q-14 -9 -26.5 -16.5t-26.5 -5.5q-16 5 -24 17t-1 35q22 31 51.5 53.5t52.5 51.5q46 59 84 110.5t76 102t80 103
t97 112.5q-66 -11 -131 -22t-131 -13zM353 735q3 -2 7 -1t6 2q17 8 35 25.5t31 30.5q9 8 18 8t17 -6q7 -6 8 -15t-7 -19q-9 -9 -21 -21.5t-25.5 -25.5t-27 -25t-24.5 -20q-21 -18 -39 5q-10 13 -21.5 26t-22.5 29q-13 14 -23 28t-18 28q-6 11 -2 21t14 17q9 5 21 1t19 -18
q3 -5 8.5 -15t13 -21t16 -20.5t17.5 -13.5z" />
    <glyph glyph-name="quoteleft" unicode="&#x2018;" horiz-adv-x="156" 
d="M115 692q-7 -16 -11.5 -28t-7 -24t-3.5 -25.5t-1 -31.5q0 -6 5 -15.5t7 -15.5q5 -12 0 -21t-14 -12t-19 0t-15 15q-5 13 -10 23.5t-5 25.5q0 21 1 37t4 31t8.5 30t14.5 34q6 12 16 14t18.5 -2.5t13 -13.5t-1.5 -21z" />
    <glyph glyph-name="quoteright" unicode="&#x2019;" horiz-adv-x="194" 
d="M61 557q8 15 12.5 27t6.5 24t2.5 25.5t0.5 31.5q0 6 -4.5 16t-6.5 15q-5 12 0.5 21t14.5 12.5t19 0.5t14 -15q5 -14 10 -24.5t5 -25.5q0 -21 -1 -37t-4 -31t-8.5 -30t-14.5 -33q-6 -12 -16 -14t-19 2.5t-13 13.5t2 21z" />
    <glyph glyph-name="quotedblleft" unicode="&#x201c;" horiz-adv-x="259" 
d="M115 692q-7 -16 -11.5 -28t-7 -24t-3.5 -25.5t-1 -31.5q0 -6 5 -15.5t7 -15.5q5 -12 0 -21t-14 -12t-19 0t-15 15q-5 13 -10 23.5t-5 25.5q0 21 1 37t4 31t8.5 30t14.5 34q6 12 16 14t18.5 -2.5t13 -13.5t-1.5 -21zM230 692q-8 -16 -12.5 -28t-7 -24t-3 -25.5t-0.5 -31.5
q0 -6 5 -15.5t7 -15.5q5 -12 0 -21t-14 -12t-19 0t-15 15q-5 13 -10.5 23.5t-5.5 25.5q0 21 1 37t4.5 31t9 30t14.5 34q6 12 16 14t18.5 -2.5t13 -13.5t-1.5 -21z" />
    <glyph glyph-name="quotedblright" unicode="&#x201d;" horiz-adv-x="290" 
d="M175 557q8 15 12.5 27t7 24t3 25.5t0.5 31.5q0 6 -4.5 16t-6.5 15q-5 12 0.5 21t14.5 12.5t19 0.5t14 -15q5 -14 10 -24.5t5 -25.5q0 -21 -1 -37t-4 -31t-8.5 -30t-14.5 -33q-6 -12 -16 -14t-19 2.5t-13.5 13.5t1.5 21zM61 557q8 15 12.5 27t6.5 24t2.5 25.5t0.5 31.5
q0 6 -4.5 16t-6.5 15q-5 12 0.5 21t14.5 12.5t19 0.5t14 -15q5 -14 10 -24.5t5 -25.5q0 -21 -1 -37t-4 -31t-8.5 -30t-14.5 -33q-6 -12 -16 -14t-19 2.5t-13 13.5t2 21z" />
    <glyph glyph-name="bullet" unicode="&#x2022;" horiz-adv-x="210" 
d="M47 253q-2 27 8 42t40 19q36 5 54 -13.5t20 -43.5q2 -26 -12.5 -45.5t-43.5 -19.5q-24 0 -43.5 16.5t-22.5 44.5z" />
    <glyph glyph-name="endash" unicode="&#x2013;" horiz-adv-x="500" 
d="M277 196q-6 0 -23.5 0.5t-41 1.5t-50 3t-51 4t-44.5 4.5t-29 5.5q-12 5 -15 15.5t0.5 20.5t12.5 16t21 1q9 -4 19.5 -3.5t20.5 0.5q9 0 18 0.5t16 0.5q24 -1 41 -2.5t32.5 -2.5t32.5 -2t40 -1q25 0 45 1t39 2.5t39 3t46 1.5q15 0 22.5 -10t7.5 -23q0 -12 -7.5 -22
t-22.5 -10q-26 0 -46 -1t-39 -1.5t-39 -1.5t-45 -1z" />
    <glyph glyph-name="emdash" unicode="&#x2014;" horiz-adv-x="1000" 
d="M836 226q-30 0 -86 -1.5t-125.5 -3.5t-145 -4.5t-145 -4.5t-125.5 -3.5t-86 -1.5h-35q-20 0 -31.5 3.5t-18 9t-8.5 11t-2 10.5q1 12 10 20.5t22 5.5q15 -3 28 -3q8 0 16 1.5t19 1.5q30 0 86 2t125.5 4.5t145 6t145 6t125.5 4.5t86 2q24 0 46 -1t48 -1q15 0 23 -10.5
t8 -23.5t-8 -23.5t-23 -10.5q-26 0 -48 2t-46 2z" />
    <glyph glyph-name="tilde" unicode="&#x2dc;" horiz-adv-x="372" 
d="M346 523q-2 -18 -18.5 -35.5t-51.5 -17.5q-23 0 -44 11.5t-41 19.5q-15 7 -31 7q-13 0 -22 -2.5t-21 -13.5q-11 -9 -21 -7.5t-17 9.5q-8 8 -8 17q0 10 10 19q12 11 21 17.5t17.5 10.5t18 5t22.5 1q19 0 35 -4.5t30 -10.5q8 -3 14.5 -6t11.5 -5q6 -2 12.5 -4t15.5 -2
q18 8 23 13q25 11 35 2.5t9 -24.5z" />
    <glyph glyph-name="trademark" unicode="&#x2122;" horiz-adv-x="689" 
d="M655 348q-6 -8 -20 -8q-17 0 -22 27.5t-5 90.5q0 42 -4.5 69.5t-15.5 27.5q-9 0 -19 -19t-19 -43.5t-15.5 -47t-8.5 -29.5q-5 -17 -9.5 -23t-8.5 -7q-17 0 -24 18.5t-9 44.5t-0.5 54.5t1.5 49.5v34q0 22 -1 40.5t-5 18.5q-3 0 -7 -4.5t-7 -9.5q-4 -6 -8 -13
q-15 -23 -26.5 -58t-20 -72.5t-12.5 -71.5t-4 -54v-14q0 -8 -6.5 -11t-14.5 -3q-12 0 -17.5 3.5t-5.5 20.5q0 10 1 24t2 30t2 32.5t2 31.5t4.5 41.5t7.5 53.5t7.5 48t5.5 24q5 8 14 8q11 0 15 -6.5t4 -17.5q0 -3 -0.5 -6t-0.5 -5q40 75 64 75q8 0 18.5 -3.5t15.5 -13.5
q4 -6 7.5 -45t5.5 -117q14 28 24.5 45t20 26t19 12t21.5 3q18 0 28.5 -25.5t15.5 -60.5t6.5 -71t1.5 -57q0 -7 2.5 -13.5t2.5 -13.5q0 -6 -3 -10zM335 679q6 2 10 2q11 0 17 -8.5t6 -18.5q0 -8 -6.5 -15t-20.5 -7q-8 0 -15 4h-30.5h-24t-24 -1t-30.5 -3q-3 -66 -3 -128
q0 -32 5 -66.5t19 -59.5q3 -6 3 -12q0 -11 -9 -20t-21 -9q-7 0 -14.5 8t-13.5 30t-9.5 59.5t-3.5 97.5q0 25 2 45.5t3 50.5q-27 -2 -55 -4t-54 -10q-3 -1 -6.5 -2t-7.5 -1q-13 0 -13 16q0 15 15.5 23.5t40 12.5t56.5 5.5t64.5 2.5t64 2.5t55.5 5.5z" />
    <glyph glyph-name="scaron" unicode="&#x161;" horiz-adv-x="355" 
d="M88 -60q-1 0 -2 -1q-12 -5 -20 -4q-12 4 -17 20q-4 11 -0.5 26.5t14.5 18.5q12 4 19.5 -0.5t18.5 -2.5q8 2 9 2q5 0 16 4q12 3 36 13t48.5 23.5t42.5 30t18 33.5q0 10 -9.5 18.5t-22 14.5t-26 10t-21.5 6q-11 3 -23.5 6t-26.5 8q-19 5 -40.5 13t-40 20t-30.5 29.5
t-12 41.5q0 28 13.5 51.5t35 41t48 30t53 20.5t50.5 10.5t39 0.5q11 -2 19.5 -7t8.5 -16q1 -7 0.5 -14t-3.5 -13q-5 -9 -16.5 -12.5t-18.5 1.5q-8 6 -17 6q-27 0 -54.5 -8.5t-49.5 -21.5t-36 -29t-14 -31q0 -28 38 -45q22 -8 40 -14q11 -4 23 -7t24 -7q23 -6 46 -13.5
t41 -19t29.5 -26.5t11.5 -36q0 -38 -25.5 -67t-62.5 -50t-79 -34.5t-74 -19.5h-1zM159 535q3 -2 7 -1t6 2q17 8 35 25.5t31 30.5q9 8 18 8t17 -6q7 -6 8 -15t-7 -19q-9 -9 -21 -21.5t-25.5 -25.5t-27 -25t-24.5 -20q-21 -18 -39 5q-10 13 -21.5 26t-22.5 29q-13 14 -23 28
t-18 28q-6 11 -2 21t14 17q9 5 21 1t19 -18q3 -5 8.5 -15t13 -21t16 -20.5t17.5 -13.5z" />
    <glyph glyph-name="guilsinglright" unicode="&#x203a;" horiz-adv-x="248" 
d="M45 50q-6 11 -3 23.5t18 19.5q28 14 44 39t31 46l8 11q-15 16 -23.5 28t-16.5 24q-8 13 -17 25t-14.5 23.5t-5 21t11.5 17.5q9 7 19.5 6t18.5 -12q17 -23 33.5 -49t37.5 -47q22 -22 22 -45q0 -9 -5.5 -19.5t-16.5 -16.5q-16 -20 -25.5 -36t-20.5 -30q-11 -13 -23.5 -24
t-29.5 -20q-14 -7 -26 -1.5t-17 16.5z" />
    <glyph glyph-name="oe" unicode="&#x153;" horiz-adv-x="627" 
d="M222 356q-9 -2 -26.5 -10t-38 -26.5t-41.5 -49.5t-38 -79q-5 -16 -5 -37t5 -41t15.5 -36t26.5 -22t37 1.5t41 21.5t37 32.5t24 33.5q19 39 26 79.5t-11 82.5q-8 19 -17.5 31t-34.5 19zM342 190q22 1 52 10.5t58 27t48.5 43t22.5 58.5q1 26 -6.5 35t-18.5 9
q-25 0 -51 -17.5t-48 -44.5t-37.5 -59t-19.5 -62zM422 -13q-46 0 -81.5 25.5t-50.5 77.5q-27 -30 -56 -50.5t-56 -31t-51 -11.5t-41 8q-18 9 -34.5 31.5t-26.5 53.5t-9.5 68t16.5 75q41 96 83 137.5t82 44.5q12 1 28.5 -3t34 -15.5t35 -32t31.5 -51.5q31 51 77 84.5t98 33.5
q21 0 36 -9t23.5 -23.5t12 -33t2.5 -36.5q-3 -44 -27 -78.5t-58.5 -59.5t-73.5 -39.5t-72 -18.5q6 -51 29 -70t52 -19q22 0 44.5 6t42.5 16t36.5 23.5t25.5 28.5q8 12 19 13t19 -4.5t10.5 -16.5t-5.5 -23q-15 -24 -38 -42.5t-49.5 -31.5t-54.5 -19.5t-53 -6.5z" />
    <glyph glyph-name="zcaron" unicode="&#x17e;" horiz-adv-x="433" 
d="M73 -12q-11 -2 -18 -4t-8 -2q-22 0 -32.5 12t-10.5 26q1 8 4 16.5t11 13.5q32 22 58.5 45t53.5 49q16 16 39 37.5t47 44.5t46 45t37 39q-51 -2 -101.5 -3.5t-92.5 -9.5q-2 0 -3.5 -0.5t-3.5 -0.5q-11 0 -18 9.5t-7 20.5q0 8 5.5 16.5t16.5 10.5q56 11 119.5 13.5
t120.5 2.5q4 0 10.5 -2.5t13 -7t11 -10.5t4.5 -12q0 -8 -6.5 -20.5t-21.5 -30.5q-56 -66 -118.5 -123.5t-126.5 -112.5q28 7 65 12.5t74 9.5t69 5.5t51 1.5q12 0 24.5 -2.5t23 -7.5t17.5 -12.5t7 -17.5q0 -11 -10.5 -18t-21.5 -7q-13 0 -22 6q-11 5 -29 4t-32 -1
q-25 0 -54.5 -2.5t-61 -7t-63 -11t-59.5 -14.5h-7zM226 501q3 -2 7 -1t6 2q17 8 35 25.5t31 30.5q9 8 18 8t17 -6q7 -6 8 -15t-7 -19q-9 -9 -21 -21.5t-25.5 -25.5t-27 -25t-24.5 -20q-21 -18 -39 5q-10 13 -21.5 26t-22.5 29q-13 14 -23 28t-18 28q-6 11 -2 21t14 17
q9 5 21 1t19 -18q3 -5 8.5 -15t13 -21t16 -20.5t17.5 -13.5z" />
    <glyph glyph-name="Ydieresis" unicode="&#x178;" horiz-adv-x="465" 
d="M35 562q-3 7 -3 12q0 11 9 17t21 6q11 0 20 -5t16.5 -13t14 -17.5t12.5 -18.5q33 -44 64 -96.5t59 -111.5q29 82 67.5 160t86.5 154h-1q14 11 33 11q11 0 19.5 -5.5t8.5 -18.5q0 -5 -1 -8v1q-106 -170 -164 -357.5t-60 -387.5q-3 -6 -11 -13.5t-15 -11.5l-8 -1
q-9 0 -15 3.5t-9.5 8.5t-5.5 10t-2 8q0 93 14 186t40 183q-3 2 -5.5 2.5t-4.5 2.5q-20 57 -54 115t-69 109q-15 21 -30.5 38.5t-26.5 37.5zM331 680q-11 0 -22.5 9.5t-13.5 31.5t3.5 29t19.5 9q11 2 23.5 -3.5t14.5 -28.5q2 -29 -7.5 -38t-17.5 -9zM157 680q-11 0 -22.5 9.5
t-13.5 31.5t4 29t20 9q11 2 23.5 -3.5t14.5 -28.5q3 -29 -7 -38t-19 -9z" />
    <glyph glyph-name="exclamdown" unicode="&#xa1;" horiz-adv-x="228" 
d="M84 404q-2 17 1 28t8.5 17.5t13 9t13.5 2.5q14 0 30.5 -12t19.5 -38q2 -26 -5 -34.5t-27 -10.5q-17 -2 -34 4.5t-20 33.5zM93 18q3 19 4 39t1 45q0 24 -1 54.5t-4 70.5q-1 15 2 30t11 24.5t20 11t29 -9.5q12 -8 12 -45q0 -19 -1 -41t-3 -48t-5 -53t-6 -51t-5.5 -43.5
t-3.5 -32.5q-5 -49 -8 -89.5t-6 -71.5q-6 -63 -13 -69q-8 -7 -24 -9.5t-30 13.5q-2 2 -4 5.5t-3 11t0 20.5t4 35q5 39 9.5 69t9 54t8.5 43t7 37z" />
    <glyph glyph-name="cent" unicode="&#xa2;" horiz-adv-x="366" 
d="M231 -131q8 -12 6 -22.5t-9 -16.5t-18 -6t-21 10q-17 24 -24.5 62t-10.5 78q-32 -2 -58 12q-19 10 -32.5 29t-21 44t-9.5 55.5t2 63.5q3 22 11.5 50t23 56.5t33 55.5t41.5 47q0 42 0.5 82t0.5 82q3 12 10 18.5t15.5 7t16.5 -5t13 -17.5q0 -34 -0.5 -67t-0.5 -67
q14 5 33 5q29 -1 45 -14.5t22.5 -34t6.5 -43t-3 -41.5q-2 -10 -4 -16t-16 -7q-11 -2 -20.5 6.5t-9.5 22.5q-1 28 -7.5 50.5t-18.5 22.5q-14 0 -28 -8q-1 -69 0 -138t5 -138v-16.5t1 -20.5q24 13 47.5 37.5t43.5 57.5q8 13 19 17.5t20 -0.5l10 -4t7 -7t0.5 -13.5t-6.5 -16.5
q-31 -54 -66.5 -87t-71.5 -47q3 -37 9.5 -72t18.5 -53zM133 40q7 -4 18 -4q-1 14 -1.5 26.5t-0.5 22.5q-3 55 -4 110t-1 110q-21 -33 -35.5 -70t-17.5 -60q-7 -57 5 -91t37 -44z" />
    <glyph glyph-name="sterling" unicode="&#xa3;" horiz-adv-x="476" 
d="M472 -3q-6 -12 -18.5 -17.5t-28.5 2.5q-25 12 -57 19.5t-66 11t-67.5 4.5t-60.5 1q-19 0 -34.5 -4.5t-28.5 -9.5q-18 -7 -28.5 -5.5t-15 8t-4.5 16.5t3 19q3 11 14.5 20.5t19.5 26.5q4 7 6 16q4 20 3.5 40.5t-0.5 40.5q0 21 -2.5 43t-7.5 51q-7 -1 -11.5 -1h-6.5h-10
q-21 0 -36.5 2.5t-36.5 5.5q-14 2 -20 12t-4 20.5t10.5 18.5t23.5 6q18 -3 33.5 -4t45.5 -1q-7 37 -10.5 63.5t-3.5 52.5q0 63 18 107.5t50.5 72t78.5 40.5t103 13q15 0 25.5 -1t25.5 -1q31 0 40.5 -11t9.5 -19q0 -11 -8.5 -19.5t-24.5 -6.5q-5 0 -8.5 -0.5t-8.5 -0.5
q-15 0 -25.5 1t-25.5 1q-44 0 -78.5 -8.5t-59 -28.5t-37.5 -54t-13 -85q0 -26 3.5 -52t10.5 -59q60 0 118.5 -3t109.5 -3q17 0 25 -10.5t8 -22.5t-8 -22.5t-25 -10.5q-45 0 -99.5 4t-114.5 6q6 -32 7.5 -54t3.5 -42l4 -44q1 -11 -2 -30t-11 -33q22 1 35 2t22 1h17.5h22.5
q21 0 48 -3t54 -8t51.5 -12t40.5 -15q17 -8 19.5 -21.5t-3.5 -25.5z" />
    <glyph glyph-name="currency" unicode="&#xa4;" horiz-adv-x="372" 
d="M71 277q3 11 7 18t9 14q-19 18 -38.5 34t-35.5 36q-5 11 -3 20.5t8.5 15.5t16.5 6.5t20 -7.5q16 -18 34.5 -34t37.5 -33l7 3q-2 8 3.5 16.5t17.5 13.5q54 19 97 3q10 27 29 56.5t40 43.5q12 4 21.5 1.5t14.5 -9.5t5 -17t-9 -19q-18 -14 -32 -39t-22 -46q18 -17 27.5 -39
t10.5 -45.5t-8.5 -47t-30.5 -43.5l-9 -8q20 -16 38.5 -32t25.5 -40q-1 -12 -7.5 -20t-15 -9.5t-17 2.5t-14.5 16q-4 14 -20.5 24.5t-28.5 19.5l-10 -4q-14 -5 -29 -10.5t-29 -6.5q-13 0 -23.5 2.5t-20.5 6.5q-13 -28 -31.5 -55.5t-41.5 -44.5q-12 -8 -22.5 -5.5t-16 10.5
t-4.5 19t11 20q17 18 33.5 42t24.5 48q-20 25 -27 58.5t7 64.5zM217 178q33 21 48 48t13.5 52t-18.5 41.5t-48 16.5q-3 -8 -11 -12q-14 -8 -25.5 -14t-21 -12.5t-17.5 -16.5t-15 -25q-9 -21 -3 -40.5t21.5 -32t36 -15t40.5 9.5z" />
    <glyph glyph-name="yen" unicode="&#xa5;" horiz-adv-x="531" 
d="M77 92q-16 0 -25.5 7t-9.5 16q0 11 17.5 17.5t42 11t51.5 7t46 5.5l6 68h-6q-29 -4 -61 -4t-58 -10q-15 0 -25.5 6t-10.5 17q0 15 19.5 22t46.5 10t55 3.5t44 2.5q1 14 1.5 27.5t0.5 27.5q-15 3 -25 14.5t-17.5 27t-14.5 33.5t-16 34q-14 21 -24 41t-20 40.5t-22 42.5
t-29 46q-7 5 -13.5 22.5t-6.5 37.5q0 10 8 15.5t19 5.5q14 0 20.5 -4.5t9.5 -12.5t5 -18t7 -20q22 -25 37.5 -54.5t29.5 -60.5t28 -61t34 -57q5 8 13 19t16.5 23t16.5 23.5t13 19.5q8 12 22 34t32 48t38.5 53t40.5 49t38.5 36t32.5 14q12 0 21.5 -6t9.5 -17q0 -14 -10 -20
t-18 -8q-20 -18 -47.5 -53.5t-54.5 -74t-49 -71.5t-30 -46q-9 -14 -18 -30.5t-20 -31.5q0 -5 2 -7.5t2 -7.5q0 -15 -1 -32t-3 -34q49 5 91.5 8.5t95.5 3.5q7 -1 13 -2.5t9 -5.5q6 -8 7 -12t1 -5q0 1 -0.5 -2.5t-2.5 -8t-8 -8t-16 -3.5h-3q-28 0 -51.5 -1t-46 -2.5t-45 -3.5
t-48.5 -5l-7 -67q14 2 27 3.5t27 3.5q27 3 56 8.5t56 5.5h1q14 -1 22.5 -8t8.5 -15q0 -10 -10.5 -20t-23.5 -10q-10 0 -19 6q-41 -5 -77 -11t-71 -11q-1 -9 -1 -18v-19q0 -23 1.5 -44.5t5.5 -42.5q11 -11 11 -23t-10.5 -22t-24.5 -10q-15 0 -23 14t-12 34t-5 42.5t-1 39.5
v20.5t1 21.5q-30 -4 -59.5 -8t-59.5 -9z" />
    <glyph glyph-name="brokenbar" unicode="&#xa6;" horiz-adv-x="250" 
d="M111 379q-2 70 -11 128t-17 120q-5 42 -0.5 68.5t17.5 30.5q27 7 37 -3t14 -30q8 -34 13 -113.5t3 -187.5v-4.5t-1 -4.5q-4 -6 -11 -10t-14.5 -5.5t-15 0t-11.5 5.5q-3 3 -3 6zM167 293v-157t-2 -110q-1 -14 -1.5 -21.5t-4.5 -13.5q-7 -13 -25 -12.5t-27 8.5
q-5 4 -7.5 16.5t5.5 48.5q8 57 10 106t1 106v14.5t-1 14.5q0 3 0.5 8t4.5 7q9 6 25 8t21 -5q0 -1 0.5 -3.5t0.5 -4.5v-10z" />
    <glyph glyph-name="section" unicode="&#xa7;" horiz-adv-x="354" 
d="M248 392q-28 -1 -58 -11.5t-55.5 -26t-42 -33.5t-16.5 -34q0 -14 9 -24t23 -18h5q6 2 10 2.5t16 3.5q12 4 36.5 14t49.5 24t43.5 30.5t18.5 34.5q0 13 -12 22t-27 16zM91 -52q-1 0 -2 -0.5t-2 -0.5q-12 -5 -19 -4q-11 5 -16 18q-4 11 -0.5 26t13.5 17q6 2 10 1.5t9 -1.5
q10 -4 19 -3q6 2 10 2.5t16 3.5q12 4 36.5 14t49.5 24t43.5 30.5t18.5 34.5q0 11 -9.5 20t-23 15.5t-27 10.5t-21.5 6q-21 6 -51 13.5t-57.5 20t-46.5 32.5t-19 51q0 27 12 49t32 39t44.5 30t50.5 21q-22 6 -45 14t-41.5 20t-30.5 29.5t-12 41.5q0 42 28.5 72.5t67.5 49
t79.5 26.5t63.5 5q11 -2 19 -7t9 -14q0 -8 -0.5 -15t-3.5 -12q-5 -8 -15.5 -11.5t-16.5 1.5q-5 5 -14 7h-4q-28 0 -56 -8.5t-51 -22t-37.5 -30.5t-14.5 -33q0 -21 19 -34t47.5 -22.5t62 -18t62 -20t47.5 -29t19 -45.5q0 -27 -13 -49t-35 -40t-49.5 -32t-55.5 -24
q26 -7 51.5 -15t46 -19t33 -27t12.5 -38q0 -37 -25.5 -66t-63 -50t-79 -34.5t-74.5 -19.5z" />
    <glyph glyph-name="dieresis" unicode="&#xa8;" horiz-adv-x="354" 
d="M270 502q-11 0 -22.5 9.5t-13.5 31.5t3.5 29t19.5 9q11 2 23.5 -3.5t14.5 -28.5q2 -29 -7.5 -38t-17.5 -9zM96 502q-11 0 -22.5 9.5t-13.5 31.5t4 29t20 9q11 2 23.5 -3.5t14.5 -28.5q3 -29 -7 -38t-19 -9z" />
    <glyph glyph-name="copyright" unicode="&#xa9;" horiz-adv-x="707" 
d="M369 4q-24 0 -51.5 5t-54 14t-49.5 22t-39 30q-30 33 -55.5 68t-44.5 73t-29.5 81t-10.5 92q0 78 36.5 143.5t100.5 101.5q4 15 20 20q41 11 76.5 19t81.5 8q32 0 62 -10t57 -26.5t49.5 -37t40.5 -42.5q19 -22 33.5 -54t24.5 -68t15 -74t5 -72q0 -53 -21 -105t-57 -94
t-85 -68t-105 -26zM577 297q0 28 -4 59.5t-12 62.5t-20 58.5t-29 47.5q-34 42 -75.5 68.5t-86.5 26.5q-40 0 -71 -4.5t-65 -13.5q-29 -14 -52 -36.5t-38.5 -50.5t-24 -60.5t-8.5 -65.5q0 -32 8 -69t23 -72.5t36 -67t46 -53.5q43 -37 91 -51q18 -5 36 -9.5t38 -4.5
q43 0 81 21.5t66.5 55t44.5 75.5t16 83zM501 231q-14 -17 -34 -36t-45.5 -36t-57 -28t-69.5 -11q-39 0 -65 18t-41 46t-20.5 61.5t-3.5 63.5q2 33 16 77.5t38.5 86t58 71.5t73.5 33q29 3 47 -4.5t28.5 -22t16 -34.5t9.5 -42q0 -8 -8 -19t-31 -9q-15 1 -18 27q0 34 -11 49.5
t-27 13.5q-30 -4 -56 -32.5t-44.5 -66t-29.5 -76.5t-11 -64q0 -23 3.5 -46t13 -41t26 -29.5t43.5 -11.5q45 0 87 30t80 78l3 3q15 19 37 1q7 -6 6.5 -20t-14.5 -30z" />
    <glyph glyph-name="ordfeminine" unicode="&#xaa;" horiz-adv-x="296" 
d="M258 273q-23 0 -37 17t-21 55q-32 -35 -60.5 -54.5t-51.5 -19.5q-16 0 -27 8t-17.5 19.5t-9.5 24.5t-3 24q0 28 3 47t11 38q6 16 18.5 39.5t30 45.5t37.5 38t41 16q15 0 27 -10.5t12 -19.5q-2 -9 -6 -15.5t-9 -7.5q-9 0 -12 1h-14q-3 0 -11 -4t-14 -10q-32 -29 -50 -66.5
t-18 -77.5q0 -23 13.5 -27t26.5 4q13 7 25.5 19.5t23 26.5t19.5 28.5t15 27.5v-1q5 17 7 35t4 31l4 17q3 7 11.5 11.5t17.5 4.5t15 -5.5t4 -20.5q0 -16 -2.5 -21.5t-4.5 -13.5q-2 -13 -4.5 -24.5t-3.5 -20.5q-3 -26 -1.5 -53.5t7.5 -45.5l4 -11q12 -2 16 -10t3 -16.5
t-6.5 -15.5t-12.5 -7z" />
    <glyph glyph-name="guillemotleft" unicode="&#xab;" horiz-adv-x="369" 
d="M218 50q-5 -11 -17 -16.5t-26 1.5q-17 9 -29.5 20t-23.5 24q-11 14 -20 29.5t-22 33.5l-4 3q-11 6 -16.5 14t-5.5 22q0 17 5.5 25.5t16.5 19.5q4 4 7.5 8t7.5 9l56 79q8 11 18.5 12t19.5 -6q11 -8 11.5 -17.5t-5 -21t-14.5 -23.5t-17 -25q-8 -12 -16.5 -24t-23.5 -28
l8 -11q7 -11 14.5 -22.5t16 -23t19.5 -22t25 -17.5q15 -7 18 -19.5t-3 -23.5zM330 58q-11 -7 -23 -6t-20 15q-7 11 -13.5 22.5t-13.5 24.5t-14 25.5t-17 25.5l-6 4q-21 15 -21 36q0 17 7.5 29.5t18 23l21.5 21.5t17 25q5 12 17.5 15t23.5 -3q4 -2 7.5 -7t3.5 -13
q0 -7 -4.5 -18t-16.5 -26q-4 -4 -6.5 -7t-5.5 -6.5t-8.5 -8.5t-15.5 -14q15 -14 25 -28t19 -30l34 -57q8 -14 4.5 -25t-13.5 -18z" />
    <glyph glyph-name="logicalnot" unicode="&#xac;" horiz-adv-x="500" 
d="M277 196q-6 0 -23.5 0.5t-41 1.5t-50.5 2.5t-51.5 3.5t-44 4.5t-28.5 6.5q-12 5 -15 15.5t0.5 20.5t12.5 16t21 1q9 -4 19.5 -3.5t20.5 0.5q9 0 18 0.5t16 0.5q24 -2 41 -3t32.5 -2.5t32.5 -2t40 -0.5q25 0 45 1t39 2.5t39 3t46 1.5q11 0 18 -5.5t10 -14t2 -17.5t-6 -16
q-1 -3 -2 -5.5t-2 -4.5q-8 -24 -13 -42.5t-9.5 -36.5t-9.5 -37t-12 -43q-4 -14 -15.5 -19t-22.5 -3t-18 10.5t-3 22.5q7 22 12.5 40t10 34.5t9.5 33.5t11 37q-34 -1 -62 -2.5t-67 -1.5z" />
    <glyph glyph-name="sfthyphen" unicode="&#xad;" horiz-adv-x="316" 
d="M63 187q-12 0 -18.5 9.5t-6.5 20.5q0 12 6.5 21.5t18.5 9.5q48 0 93 -2.5t96 -2.5q13 0 19.5 -10.5t6.5 -22.5t-6.5 -22.5t-19.5 -10.5q-51 0 -96 5t-93 5z" />
    <glyph glyph-name="registered" unicode="&#xae;" horiz-adv-x="707" 
d="M369 4q-24 0 -51.5 5t-54 14t-49.5 22t-39 30q-30 33 -55.5 68t-44.5 73t-29.5 81t-10.5 92q0 78 36.5 143.5t100.5 101.5q4 15 20 20q41 11 76.5 19t81.5 8q32 0 62 -10t57 -26.5t49.5 -37t40.5 -42.5q19 -22 33.5 -54t24.5 -68t15 -74t5 -72q0 -53 -21 -105t-57 -94
t-85 -68t-105 -26zM218 528q-1 0 -1 1q-1 1 -1 2q-8 -6 -18 -1t-13 13q-4 14 8 20.5t23 8.5q2 0 5.5 0.5t9.5 0.5l4 10q3 9 10 13t14 3t13 -6.5t7 -15.5q54 0 98 -10q16 -3 33 -9t30 -16t19 -25.5t0 -37.5q-10 -39 -48.5 -63.5t-95.5 -41.5q31 -22 62.5 -51.5t58.5 -61.5
t47.5 -65.5t28.5 -62.5q30 35 47.5 78t17.5 86q0 28 -4 59.5t-12 62.5t-20 58.5t-29 47.5q-34 42 -75.5 68.5t-86.5 26.5q-40 0 -71 -4.5t-65 -13.5q-29 -14 -52 -36.5t-38.5 -50.5t-24 -60.5t-8.5 -65.5q0 -32 8 -69t23 -72.5t36 -67t46 -53.5q43 -37 91 -51q18 -5 36 -9.5
t38 -4.5q28 0 53 9t48 25v3q0 18 -12 42t-31 49.5t-43 51.5t-48.5 48.5t-47 40.5t-38.5 28l-12 -2q0 -9 -0.5 -36t-0.5 -58q0 -30 1.5 -57.5t5.5 -36.5q2 -4 5.5 -9t1.5 -10q-3 -17 -18 -25.5t-26 0.5q-7 5 -9 18t-3 21q-3 21 -5.5 59t-2.5 76q0 13 0.5 22t1 15.5l1 13
t0.5 15.5q1 10 2 18l2 16q4 32 9 64.5t15 64.5zM379 518q-26 8 -55 11t-56 2q-10 -29 -15.5 -61.5t-9.5 -61.5q4 1 6.5 1.5t4.5 0.5q25 5 51.5 12t49 17t38 22t19.5 26q4 18 -33 31z" />
    <glyph glyph-name="macron" unicode="&#xaf;" horiz-adv-x="372" 
d="M163 514q-6 4 -8.5 11.5t-1.5 15t6 13t13 6.5q7 1 11.5 1h9.5t11.5 -1t10.5 -1q42 -2 77.5 -2.5t77.5 -0.5q8 0 13.5 -6.5t5.5 -18.5q0 -11 -3.5 -20.5t-11.5 -9.5z" />
    <glyph glyph-name="degree" unicode="&#xb0;" horiz-adv-x="343" 
d="M191 456q-49 0 -75.5 28.5t-30 64t16.5 67t64 37.5q28 4 49.5 -2.5t36.5 -20t23 -32t9 -37.5q2 -20 -3.5 -38.5t-17.5 -33.5t-30 -24t-42 -9zM173 610q-27 -4 -36.5 -17.5t-7.5 -37.5q2 -25 20 -39.5t41 -14.5q27 0 39 19.5t10 39.5q-2 21 -18.5 37.5t-47.5 12.5z" />
    <glyph glyph-name="plusminus" unicode="&#xb1;" horiz-adv-x="420" 
d="M376 232q-25 1 -58.5 3t-71.5 6q-4 -41 -4 -72.5t2 -62.5q1 -17 -9 -25.5t-24 -9.5q-14 -2 -24.5 6t-11.5 26q-2 32 0.5 64t7.5 76q-25 -1 -38.5 -2t-28.5 -1t-35.5 1.5t-35.5 1.5t-22.5 9.5t-7.5 20.5t7.5 20.5t22.5 9.5t35.5 -1t35.5 -1q17 0 31 1t40 1v121
q0 15 9 22.5t21 7.5t21 -7.5t9 -22.5v-39q0 -17 0.5 -38.5t0.5 -44.5q38 -2 71 -3t58 -2q17 0 24.5 -10t7.5 -23t-8 -23t-25 -9zM47 -34q-12 2 -17.5 9.5t-5 16t6.5 16t18 8.5q42 0 81.5 5.5t79 10.5t80 8t85.5 -2q9 -3 12.5 -11.5t1.5 -17.5t-8.5 -16.5t-16.5 -9.5
q-41 7 -80 5.5t-77.5 -6.5t-78 -10.5t-81.5 -5.5z" />
    <glyph glyph-name="twosuperior" unicode="&#xb2;" horiz-adv-x="414" 
d="M81 608q-1 -1 -1 -3q8 -12 0.5 -26t-27.5 -12q-12 3 -17.5 10.5t-6.5 17t1 20t7 18.5q22 44 57.5 76.5t83.5 46.5q24 7 42 -2t29 -26.5t16 -39.5t4 -41q-3 -52 -17 -88t-39 -66q38 13 75.5 25t74.5 27q12 5 21 1t13 -11.5t1.5 -17.5t-13.5 -17q-20 -8 -53.5 -19
t-70.5 -23t-73.5 -25.5t-62.5 -26.5q-11 -14 -22.5 -26.5t-28.5 -14.5q-11 2 -16 5.5t-9 12.5q-4 12 -0.5 22t11.5 18t18 13.5t20 10.5q4 5 7.5 9t7.5 6q24 19 48 46t40.5 58t20.5 65t-12 67q-9 17 -29 9t-41 -26.5t-38.5 -40.5t-20.5 -32z" />
    <glyph glyph-name="threesuperior" unicode="&#xb3;" horiz-adv-x="367" 
d="M114 714q-5 -12 -13.5 -16t-16.5 -2t-13 10.5t-3 20.5q5 15 18 26t29.5 17t33.5 7.5t30 -0.5q26 -5 46.5 -26.5t22.5 -47.5q3 -21 -5 -46t-19 -41q16 0 31.5 -3t28.5 -10t22 -20t12 -33q3 -22 -9 -46.5t-31.5 -47t-41.5 -40t-39 -25.5q-25 -12 -52 -22t-69 -16
q-11 1 -17 7.5t-7 14t3 15t15 10.5q10 1 14 1.5t6.5 0.5t6.5 0.5t13 3.5q14 4 34 12.5t41 20.5t39.5 26.5t30 30t13 31.5t-11.5 31q-9 10 -21.5 12.5t-26.5 0.5t-29 -6.5t-28 -8.5q-15 -11 -30 -17t-35 -4q-12 6 -15.5 17t4.5 22q11 11 26.5 16t29.5 9q2 2 6 4q12 9 27.5 20
t26 24.5t12 30t-12.5 36.5q-7 9 -19 12t-24 2.5t-21.5 -4.5t-11.5 -10z" />
    <glyph glyph-name="acute" unicode="&#xb4;" horiz-adv-x="404" 
d="M300 599q-10 -3 -19.5 -14.5t-17.5 -25.5t-14.5 -29.5t-11.5 -25.5q-6 -14 -17.5 -17t-22 1.5t-15.5 15t1 24.5q6 15 18.5 31.5t27.5 31.5t30.5 27t28.5 17q9 3 15.5 -1t8.5 -11t-0.5 -14t-11.5 -10z" />
    <glyph glyph-name="mu" unicode="&#xb5;" horiz-adv-x="390" 
d="M363 4q-13 -6 -26 -2.5t-20 18.5q-8 16 -15 31l-14 30q-3 8 -6 16.5t-6 21t-7.5 31t-10.5 46.5q-7 -25 -11.5 -40.5t-7.5 -25.5t-4.5 -16t-3.5 -12q-4 -14 -11 -28t-17 -26t-21.5 -20.5t-24.5 -10.5q-5 -1 -19 6.5t-38 38.5l3 -56q2 -17 3 -29.5t2.5 -27t3.5 -34t6 -50.5
q9 -81 17 -123.5t10 -46.5q13 -19 5 -36t-26 -18q-20 -1 -30 16.5t-12 49.5q-14 65 -20.5 121t-12.5 118q-5 46 -7.5 79t-4.5 58.5t-2.5 47t-0.5 44.5v247q0 13 10 19.5t22 6.5t22 -6.5t10 -19.5q0 -17 -0.5 -34.5t0.5 -46.5q1 -48 6 -97t16 -100q1 -8 5.5 -17t9.5 -16.5
t11 -12.5t12 -5q8 -1 20.5 17.5t20.5 44.5q6 21 11 40.5t7 26.5q6 21 10.5 44t9.5 47q5 23 10 44t12 40q5 14 16 19t22.5 3t20 -10.5t8.5 -22.5q0 -35 -0.5 -75t2.5 -80t10.5 -78t23.5 -70q5 -10 9 -18.5t9 -17.5q7 -15 1.5 -26.5t-18.5 -16.5z" />
    <glyph glyph-name="mu" unicode="&#x3bc;" horiz-adv-x="390" 
d="M363 4q-13 -6 -26 -2.5t-20 18.5q-8 16 -15 31l-14 30q-3 8 -6 16.5t-6 21t-7.5 31t-10.5 46.5q-7 -25 -11.5 -40.5t-7.5 -25.5t-4.5 -16t-3.5 -12q-4 -14 -11 -28t-17 -26t-21.5 -20.5t-24.5 -10.5q-5 -1 -19 6.5t-38 38.5l3 -56q2 -17 3 -29.5t2.5 -27t3.5 -34t6 -50.5
q9 -81 17 -123.5t10 -46.5q13 -19 5 -36t-26 -18q-20 -1 -30 16.5t-12 49.5q-14 65 -20.5 121t-12.5 118q-5 46 -7.5 79t-4.5 58.5t-2.5 47t-0.5 44.5v247q0 13 10 19.5t22 6.5t22 -6.5t10 -19.5q0 -17 -0.5 -34.5t0.5 -46.5q1 -48 6 -97t16 -100q1 -8 5.5 -17t9.5 -16.5
t11 -12.5t12 -5q8 -1 20.5 17.5t20.5 44.5q6 21 11 40.5t7 26.5q6 21 10.5 44t9.5 47q5 23 10 44t12 40q5 14 16 19t22.5 3t20 -10.5t8.5 -22.5q0 -35 -0.5 -75t2.5 -80t10.5 -78t23.5 -70q5 -10 9 -18.5t9 -17.5q7 -15 1.5 -26.5t-18.5 -16.5z" />
    <glyph glyph-name="paragraph" unicode="&#xb6;" horiz-adv-x="570" 
d="M437 696q17 -1 24.5 -9t6.5 -19q0 -8 -5 -16t-19 -10q-18 -2 -25 -2t-11 -0.5t-10 -2.5t-23 -7q1 -176 -5 -348.5t-4 -348.5q-1 -14 -10 -21t-19 -6t-17.5 8t-9.5 21q-2 170 4 338t5 338q-20 -4 -36 -10t-38 -13q0 -57 -4 -118t-9 -117h4q17 -2 21.5 -10t4.5 -19
q1 -11 -6.5 -17t-13.5 -9l-6 -2l-4 -2t-4 -1q-15 -185 -18 -371q-1 -14 -10 -20.5t-18 -6.5q-11 1 -19 8t-9 21q0 86 6 170.5t12 169.5q-13 -5 -19 -6.5t-16 -0.5q-45 3 -69.5 36t-26.5 81q0 41 12.5 81.5t38 76.5t62.5 64.5t86 46.5q8 3 36.5 11.5t61 17.5t61.5 16t38 8z
" />
    <glyph glyph-name="periodcentered" unicode="&#xb7;" horiz-adv-x="153" 
d="M86 204q-14 0 -29.5 10t-17.5 33q-3 23 4 30t26 9q16 2 32 -4t19 -29q2 -15 -1 -24.5t-8.5 -15t-12.5 -7.5t-12 -2z" />
    <glyph glyph-name="cedilla" unicode="&#xb8;" horiz-adv-x="381" 
d="M241 -142q-6 -3 -14 -3q-10 0 -17.5 5t-7.5 16q0 8 9.5 33t9.5 56q0 21 3 27t13 6l4 -0.5t9 -2t9 -5t4 -10.5q0 -15 -0.5 -33t-3.5 -38q19 -8 25 -22t6 -33q0 -30 -15 -50t-37 -32t-46.5 -17.5t-42.5 -5.5q-15 0 -20.5 5t-5.5 13q0 17 6 33.5t23 16.5q8 0 14.5 -3.5
t9.5 -11.5q28 5 46 19.5t18 32.5q0 3 1 4z" />
    <glyph glyph-name="onesuperior" unicode="&#xb9;" horiz-adv-x="236" 
d="M127 735q2 12 9.5 17.5t15.5 5.5q11 0 18 -7.5t7 -21.5q-3 -42 -13.5 -82t-22.5 -79.5t-22.5 -79.5t-13.5 -82q-4 -10 -10.5 -14.5t-14.5 -4.5t-15.5 6.5t-9.5 18.5q3 42 13.5 82t22.5 79.5t22.5 79.5t13.5 82z" />
    <glyph glyph-name="ordmasculine" unicode="&#xba;" horiz-adv-x="300" 
d="M127 274q-24 0 -42 12t-30 31.5t-17.5 43.5t-5.5 47q0 4 0.5 7t0.5 6v12q6 45 31.5 74t57.5 29q6 0 8 -1q24 13 42.5 19.5t33.5 6.5q19 0 33 -8t23 -20.5t13 -28t4 -30.5q0 -29 -12.5 -64t-33.5 -65t-48.5 -50.5t-57.5 -20.5zM193 512q-9 0 -20.5 -3t-22 -7.5t-19 -10
t-12.5 -9.5l-2 -1h1q0 -13 -12 -19t-20 -6q-7 -16 -7.5 -28.5t-0.5 -22.5q0 -35 14 -58.5t35 -23.5q19 0 36 13t30 32.5t21.5 43t12.5 45.5v-1q1 4 1 11q0 18 -7.5 31.5t-27.5 13.5z" />
    <glyph glyph-name="guillemotright" unicode="&#xbb;" horiz-adv-x="369" 
d="M280 127q-32 -40 -49.5 -65.5t-30.5 -25.5q-12 0 -22.5 8.5t-10.5 21.5q0 10 9.5 25.5t22 32.5t26.5 33.5t23 28.5l8 10q-12 16 -17.5 28.5t-9.5 23t-9.5 20.5t-18.5 21q-16 14 -32 32.5t-16 37.5q0 11 9.5 18.5t20.5 7.5q7 0 11 -2.5t7 -7t7.5 -11.5t12.5 -17l22 -22
q11 -11 18 -19.5t13 -18.5t12 -22t15 -29q7 -10 14 -17t7 -24q0 -9 -13 -27.5t-29 -40.5zM93 240q-11 13 -25 21.5t-26 15.5t-20 13.5t-8 16.5q0 11 6.5 20t18.5 9q18 0 40 -15t43.5 -35t39.5 -40.5t26 -30.5q7 -10 7 -26q0 -9 -10.5 -22.5t-24.5 -29.5t-28.5 -33.5
t-23.5 -33.5q-5 -9 -11.5 -12.5t-14.5 -3.5q-11 0 -20.5 8t-9.5 20q0 5 7 18.5t18 30.5t24.5 35t25.5 31q-5 8 -16.5 22t-17.5 21z" />
    <glyph glyph-name="onequarter" unicode="&#xbc;" horiz-adv-x="653" 
d="M321 223q-1 -1 -1 -3q4 -5 4 -13q0 -10 -7 -17.5t-20 -7.5q-16 0 -22 11.5t-6 22.5q0 21 15.5 48t40 51.5t54.5 41.5t59 17q18 0 31.5 -10t22 -25.5t13 -34t4.5 -35.5q0 -54 -15.5 -92.5t-40.5 -68.5q38 13 75.5 25t74.5 27q7 3 13 3q11 0 17.5 -7t6.5 -17q0 -14 -15 -24
q-20 -8 -53.5 -19t-70.5 -23t-73.5 -25.5t-62.5 -26.5q-11 -14 -22.5 -26.5t-28.5 -14.5q-12 2 -19.5 8t-7.5 22q0 20 17 32t34 20q4 5 7.5 9t7.5 6q19 15 38.5 35.5t35.5 44t26 49.5t10 53q0 8 -1.5 19t-5 21.5t-9.5 17.5t-15 7q-14 0 -31.5 -12.5t-34.5 -29.5t-29.5 -33.5
t-15.5 -25.5zM405 589q-18 -33 -43 -71.5t-51 -77.5t-50 -77t-41 -71q-26 -51 -51 -105.5t-45 -109.5q3 -17 3 -27q0 -26 -10 -34t-20 -8q-17 0 -31 10t-14 26q0 8 19.5 52t50 107t67.5 136.5t73 141.5t66.5 120.5t46.5 74.5q16 23 32 23q3 0 8.5 -1.5t11 -4.5t9.5 -8t4 -12
q0 -14 -10 -35.5t-25 -48.5zM105 685q2 12 9.5 17.5t15.5 5.5q11 0 18 -7.5t7 -21.5q-3 -42 -13.5 -82t-22.5 -79.5t-22.5 -79.5t-13.5 -82q-4 -10 -10.5 -14.5t-14.5 -4.5t-15.5 6.5t-9.5 18.5q3 42 13.5 82t22.5 79.5t22.5 79.5t13.5 82z" />
    <glyph glyph-name="onehalf" unicode="&#xbd;" horiz-adv-x="655" 
d="M456 589q-18 -33 -43 -71.5t-51 -77.5t-50 -77t-41 -71q-26 -51 -51 -105.5t-45 -109.5q3 -17 3 -27q0 -26 -10 -34t-20 -8q-17 0 -31 10t-14 26q0 8 19.5 52t50 107t67.5 136.5t73 141.5t66.5 120.5t46.5 74.5q16 23 32 23q3 0 8.5 -1.5t11 -4.5t9.5 -8t4 -12
q0 -14 -10 -35.5t-25 -48.5zM520 364q9 15 24 15q10 0 17 -7.5t7 -21.5q-16 -57 -31 -111t-26 -110q11 4 23.5 11.5t23.5 14.5t20.5 12t14.5 5q6 0 16.5 -5.5t10.5 -19.5q0 -11 -13.5 -22t-32 -20t-39 -17t-34.5 -13q-5 -28 -7.5 -55.5t-3.5 -56.5q-1 -14 -8.5 -20.5
t-16.5 -6.5t-16 6t-9 19q1 25 3 49t5 48q-12 -2 -23 -6t-25 -4q-16 0 -27 6t-17.5 15t-9.5 20t-3 22q0 20 7 42t16.5 43t20 40t16.5 33q9 15 24 15q9 0 16 -7t7 -18q0 -8 -2 -12q-7 -16 -16.5 -34t-17.5 -37t-14 -38.5t-6 -37.5q15 2 30.5 4t31.5 7q12 63 29 126t35 127z
M146 685q2 12 9.5 17.5t15.5 5.5q11 0 18 -7.5t7 -21.5q-3 -42 -13.5 -82t-22.5 -79.5t-22.5 -79.5t-13.5 -82q-4 -10 -10.5 -14.5t-14.5 -4.5t-15.5 6.5t-9.5 18.5q3 42 13.5 82t22.5 79.5t22.5 79.5t13.5 82z" />
    <glyph glyph-name="threequarters" unicode="&#xbe;" horiz-adv-x="655" 
d="M87 664q-5 -12 -13.5 -16t-16.5 -2t-13 10.5t-3 20.5q5 15 18 26t29.5 17t33.5 7.5t30 -0.5q26 -5 46.5 -26.5t22.5 -47.5q3 -21 -5 -46t-19 -41q16 0 31.5 -3t28.5 -10t22 -20t12 -33q3 -22 -9 -46.5t-31.5 -47t-41.5 -40t-39 -25.5q-25 -12 -52 -22t-69 -16
q-11 1 -17 7.5t-7 14t3 15t15 10.5q10 1 14 1.5t6.5 0.5t6.5 0.5t13 3.5q14 4 34 12.5t41 20.5t39.5 26.5t30 30t13 31.5t-11.5 31q-9 10 -21.5 12.5t-26.5 0.5t-29 -6.5t-28 -8.5q-15 -11 -30 -17t-35 -4q-12 6 -15.5 17t4.5 22q11 11 26.5 16t29.5 9q2 2 6 4q12 9 27.5 20
t26 24.5t12 30t-12.5 36.5q-7 9 -19 12t-24 2.5t-21.5 -4.5t-11.5 -10zM520 589q-18 -33 -43 -71.5t-51 -77.5t-50 -77t-41 -71q-26 -51 -51 -105.5t-45 -109.5q4 -21 2.5 -34.5t-6 -21t-11 -10.5t-12.5 -3q-17 -1 -31 10t-14 26q0 8 19.5 52t50 107t68 137t73.5 141.5
t66 120.5t46 74q13 17 26.5 21.5t33.5 -12.5q10 -9 0 -35t-30 -61zM558 364q6 9 14 12.5t16 1.5t13 -9t5 -19q-16 -57 -31 -111t-26 -110q32 14 61 32q6 10 19.5 11.5t24.5 -12.5q0 -1 2 -3q2 -9 1 -15.5t-8 -14.5q-26 -17 -53.5 -29t-56.5 -23q-5 -28 -7.5 -55.5
t-3.5 -56.5q-1 -13 -8 -20t-16 -7.5t-17 6t-9 19.5q1 25 3 49t5 48q-5 -1 -15 -5q-14 -4 -30.5 -5.5t-29.5 6.5q-27 17 -29 45t8 59.5t26 61t25 49.5q7 11 16.5 13.5t17.5 -1.5t11.5 -13t-0.5 -21q-7 -15 -16.5 -33.5t-18 -38t-14.5 -38.5t-5 -37q15 2 30.5 4t31.5 7
q12 63 29 126t35 127z" />
    <glyph glyph-name="questiondown" unicode="&#xbf;" horiz-adv-x="348" 
d="M88 113q15 16 28 30.5t22.5 30t15.5 34t7 43.5q-8 15 -1 25.5t21 12.5q12 2 24.5 -6t12.5 -35q0 -33 -7.5 -56t-20.5 -43q-6 -10 -14 -19.5t-16 -19.5q-10 -10 -19 -21t-19 -23q-23 -28 -34 -56.5t-11 -65.5q0 -15 3.5 -29.5t11.5 -26t20.5 -18.5t31.5 -7q18 0 37 5
t37.5 13t34 19t25.5 23q8 9 18 9.5t17 -4.5t9.5 -13.5t-4.5 -16.5q-13 -16 -33 -31.5t-43.5 -27.5t-49 -19t-48.5 -7q-32 0 -55 11t-39 29t-23.5 41.5t-7.5 49.5q0 33 6 58.5t15.5 45.5t22 35.5t25.5 29.5zM167 462q11 0 23 -10t14 -32t-4 -29t-20 -9q-11 -2 -24 4t-15 28
q-2 29 8 38.5t18 9.5z" />
    <glyph glyph-name="Agrave" unicode="&#xc0;" horiz-adv-x="614" 
d="M525 -51q-11 0 -21.5 5.5t-10.5 21.5q-1 36 -8 72t-16 72t-18.5 71.5t-16.5 69.5q-40 -4 -72 -7.5t-62.5 -9t-62 -15t-70.5 -26.5q-14 -22 -31.5 -55t-35 -68.5t-32.5 -69t-22 -57.5q-8 -24 -31 -24q-13 0 -23.5 7.5t-9.5 21.5q1 15 12 44.5t26 62.5t30.5 63t25.5 46
q-14 0 -22 9.5t-7 21.5q1 11 8.5 17t18.5 10t24 7t25 9q51 81 96 163.5t96 163.5q5 8 10.5 18t10 20t8.5 17.5t7 10.5l-2 5q-3 8 -2 14q1 13 12 21t24 8q15 0 26.5 -18.5t19 -44.5t13 -54t8.5 -47q18 -106 39 -208t49 -205q8 -30 15.5 -65t5.5 -71q-2 -13 -12 -19.5
t-22 -7.5zM220 287q49 16 100.5 22t102.5 11q-10 60 -21 118.5t-25 118.5l-22 -34l-22 -34q-32 -49 -55.5 -95t-51.5 -95zM253 842q-13 4 -13 18q0 7 5 13t13 6q15 0 34.5 -15t37.5 -35.5t30.5 -40.5t12.5 -30q0 -13 -9.5 -21t-21.5 -8q-14 0 -23.5 16t-18.5 36t-19.5 38
t-27.5 23z" />
    <glyph glyph-name="Aacute" unicode="&#xc1;" horiz-adv-x="614" 
d="M525 -51q-11 0 -21.5 5.5t-10.5 21.5q-1 36 -8 72t-16 72t-18.5 71.5t-16.5 69.5q-40 -4 -72 -7.5t-62.5 -9t-62 -15t-70.5 -26.5q-14 -22 -31.5 -55t-35 -68.5t-32.5 -69t-22 -57.5q-8 -24 -31 -24q-13 0 -23.5 7.5t-9.5 21.5q1 15 12 44.5t26 62.5t30.5 63t25.5 46
q-14 0 -22 9.5t-7 21.5q1 11 8.5 17t18.5 10t24 7t25 9q51 81 96 163.5t96 163.5q5 8 10.5 18t10 20t8.5 17.5t7 10.5l-2 5q-3 8 -2 14q1 13 12 21t24 8q15 0 26.5 -18.5t19 -44.5t13 -54t8.5 -47q18 -106 39 -208t49 -205q8 -30 15.5 -65t5.5 -71q-2 -13 -12 -19.5
t-22 -7.5zM220 287q49 16 100.5 22t102.5 11q-10 60 -21 118.5t-25 118.5l-22 -34l-22 -34q-32 -49 -55.5 -95t-51.5 -95zM440 831q-10 -3 -19.5 -14.5t-17.5 -25.5t-14.5 -29.5t-11.5 -25.5q-6 -14 -17.5 -17t-22 1.5t-15.5 15t1 24.5q6 15 18.5 31.5t27.5 31.5t30.5 27
t28.5 17q9 3 15.5 -1t8.5 -11t-0.5 -14t-11.5 -10z" />
    <glyph glyph-name="Acircumflex" unicode="&#xc2;" horiz-adv-x="614" 
d="M525 -51q-11 0 -21.5 5.5t-10.5 21.5q-1 36 -8 72t-16 72t-18.5 71.5t-16.5 69.5q-40 -4 -72 -7.5t-62.5 -9t-62 -15t-70.5 -26.5q-14 -22 -31.5 -55t-35 -68.5t-32.5 -69t-22 -57.5q-8 -24 -31 -24q-13 0 -23.5 7.5t-9.5 21.5q1 15 12 44.5t26 62.5t30.5 63t25.5 46
q-14 0 -22 9.5t-7 21.5q1 11 8.5 17t18.5 10t24 7t25 9q51 81 96 163.5t96 163.5q5 8 10.5 18t10 20t8.5 17.5t7 10.5l-2 5q-3 8 -2 14q1 13 12 21t24 8q15 0 26.5 -18.5t19 -44.5t13 -54t8.5 -47q18 -106 39 -208t49 -205q8 -30 15.5 -65t5.5 -71q-2 -13 -12 -19.5
t-22 -7.5zM220 287q49 16 100.5 22t102.5 11q-10 60 -21 118.5t-25 118.5l-22 -34l-22 -34q-32 -49 -55.5 -95t-51.5 -95zM377 785l-25.5 -17t-23.5 -17l-9 -6q-8 -5 -15 -12t-12 -13q-18 -16 -39 -5q-8 6 -10 14.5t6 17.5q9 11 21.5 24.5t26 28t27.5 27.5t25 22
q9 10 20 9.5t20 -10.5q26 -24 56 -50.5t50 -52.5q9 -11 5.5 -21t-14.5 -16q-10 -7 -22.5 -6t-21.5 14q-5 6 -15 18.5t-23 26.5q-10 7 -15.5 13.5t-11.5 10.5z" />
    <glyph glyph-name="Atilde" unicode="&#xc3;" horiz-adv-x="614" 
d="M525 -51q-11 0 -21.5 5.5t-10.5 21.5q-1 36 -8 72t-16 72t-18.5 71.5t-16.5 69.5q-40 -4 -72 -7.5t-62.5 -9t-62 -15t-70.5 -26.5q-14 -22 -31.5 -55t-35 -68.5t-32.5 -69t-22 -57.5q-8 -24 -31 -24q-13 0 -23.5 7.5t-9.5 21.5q1 15 12 44.5t26 62.5t30.5 63t25.5 46
q-14 0 -22 9.5t-7 21.5q1 11 8.5 17t18.5 10t24 7t25 9q51 81 96 163.5t96 163.5q5 8 10.5 18t10 20t8.5 17.5t7 10.5l-2 5q-3 8 -2 14q1 13 12 21t24 8q15 0 26.5 -18.5t19 -44.5t13 -54t8.5 -47q18 -106 39 -208t49 -205q8 -30 15.5 -65t5.5 -71q-2 -13 -12 -19.5
t-22 -7.5zM220 287q49 16 100.5 22t102.5 11q-10 60 -21 118.5t-25 118.5l-22 -34l-22 -34q-32 -49 -55.5 -95t-51.5 -95zM525 776q-2 -18 -18.5 -35.5t-51.5 -17.5q-23 0 -44 11.5t-41 19.5q-15 7 -31 7q-13 0 -22 -2.5t-21 -13.5q-11 -9 -21 -7.5t-17 9.5q-8 8 -8 17
q0 10 10 19q12 11 21 17.5t17.5 10.5t18 5t22.5 1q19 0 35 -4.5t30 -10.5q8 -3 14.5 -6t11.5 -5q6 -2 12.5 -4t15.5 -2q18 8 23 13q25 11 35 2.5t9 -24.5z" />
    <glyph glyph-name="Adieresis" unicode="&#xc4;" horiz-adv-x="614" 
d="M525 -51q-11 0 -21.5 5.5t-10.5 21.5q-1 36 -8 72t-16 72t-18.5 71.5t-16.5 69.5q-40 -4 -72 -7.5t-62.5 -9t-62 -15t-70.5 -26.5q-14 -22 -31.5 -55t-35 -68.5t-32.5 -69t-22 -57.5q-8 -24 -31 -24q-13 0 -23.5 7.5t-9.5 21.5q1 15 12 44.5t26 62.5t30.5 63t25.5 46
q-14 0 -22 9.5t-7 21.5q1 11 8.5 17t18.5 10t24 7t25 9q51 81 96 163.5t96 163.5q5 8 10.5 18t10 20t8.5 17.5t7 10.5l-2 5q-3 8 -2 14q1 13 12 21t24 8q15 0 26.5 -18.5t19 -44.5t13 -54t8.5 -47q18 -106 39 -208t49 -205q8 -30 15.5 -65t5.5 -71q-2 -13 -12 -19.5
t-22 -7.5zM220 287q49 16 100.5 22t102.5 11q-10 60 -21 118.5t-25 118.5l-22 -34l-22 -34q-32 -49 -55.5 -95t-51.5 -95zM479 734q-11 0 -22.5 9.5t-13.5 31.5t3.5 29t19.5 9q11 2 23.5 -3.5t14.5 -28.5q2 -29 -7.5 -38t-17.5 -9zM305 734q-11 0 -22.5 9.5t-13.5 31.5t4 29
t20 9q11 2 23.5 -3.5t14.5 -28.5q3 -29 -7 -38t-19 -9z" />
    <glyph glyph-name="Aring" unicode="&#xc5;" horiz-adv-x="614" 
d="M525 -51q-11 0 -21.5 5.5t-10.5 21.5q-1 36 -8 72t-16 72t-18.5 71.5t-16.5 69.5q-40 -4 -72 -7.5t-62.5 -9t-62 -15t-70.5 -26.5q-14 -22 -31.5 -55t-35 -68.5t-32.5 -69t-22 -57.5q-8 -24 -31 -24q-13 0 -23.5 7.5t-9.5 21.5q1 15 12 44.5t26 62.5t30.5 63t25.5 46
q-14 0 -22 9.5t-7 21.5q1 11 8.5 17t18.5 10t24 7t25 9q51 81 96 163.5t96 163.5q5 8 10.5 18t10 20t8.5 17.5t7 10.5l-2 5q-3 8 -2 14q1 13 12 21t24 8q15 0 26.5 -18.5t19 -44.5t13 -54t8.5 -47q18 -106 39 -208t49 -205q8 -30 15.5 -65t5.5 -71q-2 -13 -12 -19.5
t-22 -7.5zM220 287q49 16 100.5 22t102.5 11q-10 60 -21 118.5t-25 118.5l-22 -34l-22 -34q-32 -49 -55.5 -95t-51.5 -95zM394 714q-13 -2 -27 1t-25 8q-21 10 -32.5 30.5t-11.5 37.5q0 27 12.5 46t32.5 27q14 6 31.5 9t37.5 -1q31 -6 41.5 -31.5t10.5 -53.5q0 -14 -6.5 -27
t-16.5 -22.5t-22.5 -16t-24.5 -7.5zM367 820q-17 -11 -18 -28q-2 -14 8 -23t17 -10q4 -1 11 0.5t13.5 4.5t11 9t4.5 14q0 12 -4 24t-20 12h-5q-9 0 -18 -3z" />
    <glyph glyph-name="AE" unicode="&#xc6;" horiz-adv-x="965" 
d="M971 661q-4 -1 -13 -1q-7 0 -14 0.5t-15 0.5h-6q-5 0 -11 0.5t-13 0.5q-12 0 -26 -1t-31 -5q-28 -6 -52.5 -10.5t-57 -12.5t-78.5 -21.5t-117 -36.5q-9 -48 -21.5 -94t-27.5 -106q90 30 176 50t158 20q32 0 40 -7t8 -15q0 -13 -8.5 -20.5t-20.5 -11t-24.5 -4.5t-20.5 -1
q-40 0 -84 -8t-87 -21t-83 -29.5t-71 -32.5q-2 -8 -3 -15t-3 -15q3 -8 4 -14.5t1 -11.5q0 -11 -4.5 -16t-10.5 -6q-1 -6 -1.5 -11t-0.5 -9q0 -28 4 -55t16 -48.5t33 -34.5t56 -13q13 0 44 7.5t70 18.5t81.5 24.5t80.5 26t66.5 22t39.5 13.5q9 3 16 3q16 0 25.5 -12t9.5 -27
q0 -22 -25 -32q-20 -7 -51 -16t-65 -18.5t-65 -18t-51 -15.5q-47 -17 -87 -29.5t-89 -12.5q-45 0 -77 13.5t-52 37.5t-29 57.5t-9 73.5q0 33 6 68q-2 2 -7.5 3t-13 1.5t-15.5 0.5h-14q-24 0 -50.5 -2.5t-52 -7t-47 -10.5t-36.5 -12q-12 -22 -27.5 -55t-30 -68.5t-26.5 -69
t-18 -57.5q-3 -13 -12 -18.5t-20 -5.5q-12 0 -22.5 7.5t-10.5 21.5t9 43.5t21.5 62.5t25.5 63.5t22 46.5q-14 1 -22.5 10.5t-8.5 20.5q0 10 6.5 16.5t17 10.5t23.5 7.5t25 8.5q20 34 39 74q13 29 46 70.5t74 82.5t85 75.5t79 49.5q0 1 9 5t21 8q1 3 2.5 13t5.5 21t11 19.5
t19 8.5q23 0 34 -39q16 4 46.5 11.5t69 16.5t81 18.5t82.5 17.5t74.5 13t56.5 5q29 0 36.5 -10.5t7.5 -19.5t-6.5 -16.5t-18.5 -10.5zM207 278q9 3 25.5 6t38.5 6t46 5t48 2h15t14 -1q-3 6 -3 13q0 17 7.5 23.5t25.5 18.5q3 17 7.5 40.5t9 50t9.5 54t9 53.5q-33 -15 -63 -40
t-59 -57t-57.5 -70t-58.5 -79z" />
    <glyph glyph-name="Ccedilla" unicode="&#xc7;" horiz-adv-x="659" 
d="M299 -142q-6 -3 -14 -3q-10 0 -17 5t-7 16q0 4 2.5 12t6 17.5t7.5 20t6 20.5q-63 0 -106 24t-69.5 63.5t-38 90.5t-11.5 105q0 37 10.5 87.5t30.5 103.5t49 104.5t66 92.5t82 66t97 25q39 0 63 -13.5t39 -36.5t23.5 -53.5t14.5 -65.5q0 -4 -2 -10t-7 -12t-14 -10t-22 -4
q-17 0 -23 8t-9 28q0 54 -18.5 86.5t-50.5 32.5q-38 0 -72.5 -23.5t-63.5 -61.5t-52.5 -85t-40 -93.5t-25.5 -88.5t-9 -69q0 -39 6 -80t23.5 -74.5t49 -55t82.5 -21.5q41 0 80 14t76.5 39.5t72.5 60t68 75.5l12.5 12.5t14.5 6.5q2 0 7.5 -1.5t11 -5t10 -10.5t4.5 -17
q0 -9 -4.5 -21.5t-17.5 -27.5q-29 -33 -62.5 -64t-71 -56t-79 -41.5t-87.5 -21.5q0 -20 -3 -39q19 -8 25 -22t6 -33q0 -30 -15 -50t-37 -32t-46.5 -17.5t-42.5 -5.5q-15 0 -20.5 4.5t-5.5 12.5q0 16 6.5 33.5t23.5 17.5t23 -15q28 5 46 19.5t18 32.5q0 3 1 4z" />
    <glyph glyph-name="Egrave" unicode="&#xc8;" horiz-adv-x="642" 
d="M623 661q-5 -1 -9.5 -1.5t-10.5 0.5q-6 0 -13 1t-15 0q-16 1 -35.5 0.5t-45.5 -5.5q-28 -6 -52.5 -11t-57 -13t-78.5 -21t-117 -36q-9 -48 -21.5 -94t-27.5 -106q48 16 98 31.5t95 23.5q28 5 57.5 8.5t55 5t43.5 0t24 -5.5q9 -7 8.5 -15t-6 -15t-14 -12t-14.5 -7
q-10 -2 -19.5 -2.5t-19.5 -0.5q-40 0 -84 -8t-87 -21t-83 -29.5t-71 -32.5l-11 -53q-2 -13 -4.5 -25t-2.5 -20q0 -28 4 -55t16 -48.5t33 -34.5t56 -13q13 0 43.5 7t70 18.5t82 24.5t81 25.5t67 22.5t38.5 14q18 7 30.5 -0.5t17.5 -20t0 -26.5t-22 -21q-20 -7 -51 -16
t-64.5 -18.5t-65 -18.5t-51.5 -15q-48 -16 -87.5 -29t-88.5 -13q-45 0 -77 13.5t-52 37.5t-29 57.5t-9 73.5q0 58 16 116q-21 18 -20 34q2 11 5 16.5t11 11.5q3 2 6.5 4t10.5 7q5 24 12 62t13.5 77.5t13 76t10.5 59.5q2 10 7 26.5t18 20.5q17 5 27 -4.5t17 -32.5
q14 3 38.5 9.5t56 14.5t67.5 16.5t72 15.5q39 8 73.5 14t62 9t46 2.5t24.5 -5.5q17 -14 13 -30t-24 -21zM251 842q-13 4 -13 18q0 7 5 13t13 6q15 0 34.5 -15t37.5 -35.5t30.5 -40.5t12.5 -30q0 -13 -9.5 -21t-21.5 -8q-14 0 -23.5 16t-18.5 36t-19.5 38t-27.5 23z" />
    <glyph glyph-name="Eacute" unicode="&#xc9;" horiz-adv-x="642" 
d="M623 661q-5 -1 -9.5 -1.5t-10.5 0.5q-6 0 -13 1t-15 0q-16 1 -35.5 0.5t-45.5 -5.5q-28 -6 -52.5 -11t-57 -13t-78.5 -21t-117 -36q-9 -48 -21.5 -94t-27.5 -106q48 16 98 31.5t95 23.5q28 5 57.5 8.5t55 5t43.5 0t24 -5.5q9 -7 8.5 -15t-6 -15t-14 -12t-14.5 -7
q-10 -2 -19.5 -2.5t-19.5 -0.5q-40 0 -84 -8t-87 -21t-83 -29.5t-71 -32.5l-11 -53q-2 -13 -4.5 -25t-2.5 -20q0 -28 4 -55t16 -48.5t33 -34.5t56 -13q13 0 43.5 7t70 18.5t82 24.5t81 25.5t67 22.5t38.5 14q18 7 30.5 -0.5t17.5 -20t0 -26.5t-22 -21q-20 -7 -51 -16
t-64.5 -18.5t-65 -18.5t-51.5 -15q-48 -16 -87.5 -29t-88.5 -13q-45 0 -77 13.5t-52 37.5t-29 57.5t-9 73.5q0 58 16 116q-21 18 -20 34q2 11 5 16.5t11 11.5q3 2 6.5 4t10.5 7q5 24 12 62t13.5 77.5t13 76t10.5 59.5q2 10 7 26.5t18 20.5q17 5 27 -4.5t17 -32.5
q14 3 38.5 9.5t56 14.5t67.5 16.5t72 15.5q39 8 73.5 14t62 9t46 2.5t24.5 -5.5q17 -14 13 -30t-24 -21zM460 831q-10 -3 -19.5 -14.5t-17.5 -25.5t-14.5 -29.5t-11.5 -25.5q-6 -14 -17.5 -17t-22 1.5t-15.5 15t1 24.5q6 15 18.5 31.5t27.5 31.5t30.5 27t28.5 17
q9 3 15.5 -1t8.5 -11t-0.5 -14t-11.5 -10z" />
    <glyph glyph-name="Ecircumflex" unicode="&#xca;" horiz-adv-x="642" 
d="M623 661q-5 -1 -9.5 -1.5t-10.5 0.5q-6 0 -13 1t-15 0q-16 1 -35.5 0.5t-45.5 -5.5q-28 -6 -52.5 -11t-57 -13t-78.5 -21t-117 -36q-9 -48 -21.5 -94t-27.5 -106q48 16 98 31.5t95 23.5q28 5 57.5 8.5t55 5t43.5 0t24 -5.5q9 -7 8.5 -15t-6 -15t-14 -12t-14.5 -7
q-10 -2 -19.5 -2.5t-19.5 -0.5q-40 0 -84 -8t-87 -21t-83 -29.5t-71 -32.5l-11 -53q-2 -13 -4.5 -25t-2.5 -20q0 -28 4 -55t16 -48.5t33 -34.5t56 -13q13 0 43.5 7t70 18.5t82 24.5t81 25.5t67 22.5t38.5 14q18 7 30.5 -0.5t17.5 -20t0 -26.5t-22 -21q-20 -7 -51 -16
t-64.5 -18.5t-65 -18.5t-51.5 -15q-48 -16 -87.5 -29t-88.5 -13q-45 0 -77 13.5t-52 37.5t-29 57.5t-9 73.5q0 58 16 116q-21 18 -20 34q2 11 5 16.5t11 11.5q3 2 6.5 4t10.5 7q5 24 12 62t13.5 77.5t13 76t10.5 59.5q2 10 7 26.5t18 20.5q17 5 27 -4.5t17 -32.5
q14 3 38.5 9.5t56 14.5t67.5 16.5t72 15.5q39 8 73.5 14t62 9t46 2.5t24.5 -5.5q17 -14 13 -30t-24 -21zM366 808l-25.5 -17t-23.5 -17l-9 -6q-8 -5 -15 -12t-12 -13q-18 -16 -39 -5q-8 6 -10 14.5t6 17.5q9 11 21.5 24.5t26 28t27.5 27.5t25 22q9 10 20 9.5t20 -10.5
q26 -24 56 -50.5t50 -52.5q9 -11 5.5 -21t-14.5 -16q-10 -7 -22.5 -6t-21.5 14q-5 6 -15 18.5t-23 26.5q-10 7 -15.5 13.5t-11.5 10.5z" />
    <glyph glyph-name="Edieresis" unicode="&#xcb;" horiz-adv-x="642" 
d="M623 661q-5 -1 -9.5 -1.5t-10.5 0.5q-6 0 -13 1t-15 0q-16 1 -35.5 0.5t-45.5 -5.5q-28 -6 -52.5 -11t-57 -13t-78.5 -21t-117 -36q-9 -48 -21.5 -94t-27.5 -106q48 16 98 31.5t95 23.5q28 5 57.5 8.5t55 5t43.5 0t24 -5.5q9 -7 8.5 -15t-6 -15t-14 -12t-14.5 -7
q-10 -2 -19.5 -2.5t-19.5 -0.5q-40 0 -84 -8t-87 -21t-83 -29.5t-71 -32.5l-11 -53q-2 -13 -4.5 -25t-2.5 -20q0 -28 4 -55t16 -48.5t33 -34.5t56 -13q13 0 43.5 7t70 18.5t82 24.5t81 25.5t67 22.5t38.5 14q18 7 30.5 -0.5t17.5 -20t0 -26.5t-22 -21q-20 -7 -51 -16
t-64.5 -18.5t-65 -18.5t-51.5 -15q-48 -16 -87.5 -29t-88.5 -13q-45 0 -77 13.5t-52 37.5t-29 57.5t-9 73.5q0 58 16 116q-21 18 -20 34q2 11 5 16.5t11 11.5q3 2 6.5 4t10.5 7q5 24 12 62t13.5 77.5t13 76t10.5 59.5q2 10 7 26.5t18 20.5q17 5 27 -4.5t17 -32.5
q14 3 38.5 9.5t56 14.5t67.5 16.5t72 15.5q39 8 73.5 14t62 9t46 2.5t24.5 -5.5q17 -14 13 -30t-24 -21zM306 760q-11 0 -22.5 9.5t-13.5 31.5t4 29t20 9q11 2 23.5 -3.5t14.5 -28.5q3 -29 -7 -38t-19 -9zM480 760q-11 0 -22.5 9.5t-13.5 31.5t3.5 29t19.5 9q11 2 23.5 -3.5
t14.5 -28.5q2 -29 -7.5 -38t-17.5 -9z" />
    <glyph glyph-name="Igrave" unicode="&#xcc;" 
d="M154 297q-7 -58 -10.5 -117.5t-3.5 -119.5q12 -18 16 -31t2 -22t-7 -14t-11 -7q-16 -7 -33.5 -2t-23.5 19q-2 6 -2.5 32.5t1.5 68.5q1 41 4 93t7 107t9.5 110t11 102.5t11 84.5t11.5 56q6 21 17.5 30t37.5 0q13 -4 13 -31t-7 -69q-11 -76 -23 -146.5t-20 -143.5zM67 842
q-13 4 -13 18q0 7 5 13t13 6q15 0 34.5 -15t37.5 -35.5t30.5 -40.5t12.5 -30q0 -13 -9.5 -21t-21.5 -8q-14 0 -23.5 16t-18.5 36t-19.5 38t-27.5 23z" />
    <glyph glyph-name="Iacute" unicode="&#xcd;" 
d="M154 297q-7 -58 -10.5 -117.5t-3.5 -119.5q12 -18 16 -31t2 -22t-7 -14t-11 -7q-16 -7 -33.5 -2t-23.5 19q-2 6 -2.5 32.5t1.5 68.5q1 41 4 93t7 107t9.5 110t11 102.5t11 84.5t11.5 56q6 21 17.5 30t37.5 0q13 -4 13 -31t-7 -69q-11 -76 -23 -146.5t-20 -143.5zM258 831
q-10 -3 -19.5 -14.5t-17.5 -25.5t-14.5 -29.5t-11.5 -25.5q-6 -14 -17.5 -17t-22 1.5t-15.5 15t1 24.5q6 15 18.5 31.5t27.5 31.5t30.5 27t28.5 17q9 3 15.5 -1t8.5 -11t-0.5 -14t-11.5 -10z" />
    <glyph glyph-name="Icircumflex" unicode="&#xce;" 
d="M154 297q-7 -58 -10.5 -117.5t-3.5 -119.5q12 -18 16 -31t2 -22t-7 -14t-11 -7q-16 -7 -33.5 -2t-23.5 19q-2 6 -2.5 32.5t1.5 68.5q1 41 4 93t7 107t9.5 110t11 102.5t11 84.5t11.5 56q6 21 17.5 30t37.5 0q13 -4 13 -31t-7 -69q-11 -76 -23 -146.5t-20 -143.5zM183 785
l-25.5 -17t-23.5 -17l-9 -6q-8 -5 -15 -12t-12 -13q-18 -16 -39 -5q-8 6 -10 14.5t6 17.5q9 11 21.5 24.5t26 28t27.5 27.5t25 22q9 10 20 9.5t20 -10.5q26 -24 56 -50.5t50 -52.5q9 -11 5.5 -21t-14.5 -16q-10 -7 -22.5 -6t-21.5 14q-5 6 -15 18.5t-23 26.5
q-10 7 -15.5 13.5t-11.5 10.5z" />
    <glyph glyph-name="Idieresis" unicode="&#xcf;" 
d="M154 297q-7 -58 -10.5 -117.5t-3.5 -119.5q12 -18 16 -31t2 -22t-7 -14t-11 -7q-16 -7 -33.5 -2t-23.5 19q-2 6 -2.5 32.5t1.5 68.5q1 41 4 93t7 107t9.5 110t11 102.5t11 84.5t11.5 56q6 21 17.5 30t37.5 0q13 -4 13 -31t-7 -69q-11 -76 -23 -146.5t-20 -143.5zM271 731
q-11 0 -22.5 9.5t-13.5 31.5t3.5 29t19.5 9q11 2 23.5 -3.5t14.5 -28.5q2 -29 -7.5 -38t-17.5 -9zM97 731q-11 0 -22.5 9.5t-13.5 31.5t4 29t20 9q11 2 23.5 -3.5t14.5 -28.5q3 -29 -7 -38t-19 -9z" />
    <glyph glyph-name="Eth" unicode="&#xd0;" horiz-adv-x="658" 
d="M149 631q50 14 96 19t94 5q44 0 95.5 -9t95 -31t72.5 -60t29 -95q0 -41 -15 -84t-35 -71q-66 -91 -151.5 -158.5t-188.5 -111.5q-15 -6 -32.5 -14.5t-37 -16t-39.5 -13t-39 -6.5v-1q-12 -18 -34 -18q-10 0 -22 7t-12 22q0 9 3 15q-2 4 -2 14l3 9q3 8 9 14q2 10 4.5 34
t5.5 56t6 70.5t6 78.5q-25 -8 -46 -15t-28 -7q-13 0 -21 8.5t-8 19.5q0 9 8.5 17.5t23.5 15.5t34.5 14t41.5 13q2 34 4 66t3.5 59t2.5 47t2 30q-5 7 -5 15q0 6 3 14l3 6q1 13 1.5 25.5t0.5 25.5v16q0 16 10.5 24t23.5 8q11 0 20.5 -6t13.5 -17l1 -5q1 -5 1 -15v-5.5t-1 -4.5
v-4zM233 590q-6 -1 -17 -3t-24 -5t-25.5 -6.5t-19.5 -8.5q-1 -22 -4 -76.5t-7 -121.5q47 10 95 13t98 5q13 -4 19 -12.5t6 -18.5t-7 -18t-21 -11q-51 -2 -99.5 -6.5t-95.5 -14.5q-3 -43 -5.5 -84.5t-5.5 -76.5t-6 -60.5t-5 -37.5q49 10 104.5 36.5t107.5 60.5t95 71t68 67
q28 35 52 81.5t24 94.5q0 42 -18 69t-48.5 43t-69.5 22.5t-81 6.5q-31 0 -59.5 -2.5t-50.5 -6.5z" />
    <glyph glyph-name="Ntilde" unicode="&#xd1;" horiz-adv-x="584" 
d="M507 727q20 0 30.5 -9t10.5 -38q0 -44 -14 -95q-6 -26 -11 -57t-8 -63t-4.5 -64t-1.5 -60q0 -81 10.5 -170t29.5 -172q11 -6 13.5 -11.5t2.5 -12.5q0 -8 -5 -13.5t-11.5 -8.5t-14 -4.5t-12.5 -1.5q-13 0 -23 11.5t-17 31t-12.5 45t-9.5 52.5q-8 59 -12 117.5t-4 114.5
q0 69 8 149.5t27 182.5l-2 1q-68 -88 -121.5 -168.5t-97 -157.5t-79.5 -153t-70 -155q-2 -22 -12 -33.5t-23 -11.5q-23 0 -30.5 16t-7.5 39q0 11 2 25.5t4 26.5q3 14 9.5 48.5t14.5 79t16 95t16 98t14 87.5t10 63q1 6 1.5 14t0.5 13q1 20 5.5 35t25.5 23q3 1 9 1
q22 0 29.5 -6.5t8 -17t-3.5 -24t-5 -26.5q-2 -17 -6 -41t-8 -50t-8.5 -51.5t-8.5 -46.5l-2 -9q-5 -28 -10.5 -61.5t-12.5 -63.5h2q19 33 31 54.5t19.5 34.5t10.5 19l4 8q26 47 50.5 87t48 76t48 69.5t50.5 67.5q23 31 52 51t54 20zM431 774q-2 -18 -18.5 -35.5t-51.5 -17.5
q-23 0 -44 11.5t-41 19.5q-15 7 -31 7q-13 0 -22 -2.5t-21 -13.5q-11 -9 -21 -7.5t-17 9.5q-8 8 -8 17q0 10 10 19q12 11 21 17.5t17.5 10.5t18 5t22.5 1q19 0 35 -4.5t30 -10.5q8 -3 14.5 -6t11.5 -5q6 -2 12.5 -4t15.5 -2q18 8 23 13q25 11 35 2.5t9 -24.5z" />
    <glyph glyph-name="Ograve" unicode="&#xd2;" horiz-adv-x="708" 
d="M285 -19q-65 0 -110 35t-72 89.5t-36 121.5t-2 132q4 37 13 71t23 63t33 51.5t42 35.5q43 25 72 27t41 -2q66 35 115.5 53t88.5 18q46 0 78 -21t50.5 -54t25 -73.5t2.5 -80.5q-5 -49 -21 -102.5t-40.5 -105.5t-57.5 -99t-71.5 -83t-82.5 -56.5t-91 -19.5zM241 514
q-6 -8 -9.5 -15l-6.5 -13q-4 -7 -7 -12t-7 -9q-6 -8 -17 -10.5t-37 2.5q-11 -30 -18 -60.5t-10 -60.5q-6 -59 3 -111.5t30 -92.5t52 -64t69 -25q39 -1 75 16.5t68 47.5t59 70t47.5 84t34 89t18.5 86q3 33 -0.5 65t-17 58.5t-38 43t-62.5 17.5q-34 1 -69.5 -12t-66.5 -31
t-55 -36t-35 -27zM305 842q-13 4 -13 18q0 7 5 13t13 6q15 0 34.5 -15t37.5 -35.5t30.5 -40.5t12.5 -30q0 -13 -9.5 -21t-21.5 -8q-14 0 -23.5 16t-18.5 36t-19.5 38t-27.5 23z" />
    <glyph glyph-name="Oacute" unicode="&#xd3;" horiz-adv-x="708" 
d="M285 -19q-65 0 -110 35t-72 89.5t-36 121.5t-2 132q4 37 13 71t23 63t33 51.5t42 35.5q43 25 72 27t41 -2q66 35 115.5 53t88.5 18q46 0 78 -21t50.5 -54t25 -73.5t2.5 -80.5q-5 -49 -21 -102.5t-40.5 -105.5t-57.5 -99t-71.5 -83t-82.5 -56.5t-91 -19.5zM241 514
q-6 -8 -9.5 -15l-6.5 -13q-4 -7 -7 -12t-7 -9q-6 -8 -17 -10.5t-37 2.5q-11 -30 -18 -60.5t-10 -60.5q-6 -59 3 -111.5t30 -92.5t52 -64t69 -25q39 -1 75 16.5t68 47.5t59 70t47.5 84t34 89t18.5 86q3 33 -0.5 65t-17 58.5t-38 43t-62.5 17.5q-34 1 -69.5 -12t-66.5 -31
t-55 -36t-35 -27zM456 831q-10 -3 -19.5 -14.5t-17.5 -25.5t-14.5 -29.5t-11.5 -25.5q-6 -14 -17.5 -17t-22 1.5t-15.5 15t1 24.5q6 15 18.5 31.5t27.5 31.5t30.5 27t28.5 17q9 3 15.5 -1t8.5 -11t-0.5 -14t-11.5 -10z" />
    <glyph glyph-name="Ocircumflex" unicode="&#xd4;" horiz-adv-x="708" 
d="M285 -19q-65 0 -110 35t-72 89.5t-36 121.5t-2 132q4 37 13 71t23 63t33 51.5t42 35.5q43 25 72 27t41 -2q66 35 115.5 53t88.5 18q46 0 78 -21t50.5 -54t25 -73.5t2.5 -80.5q-5 -49 -21 -102.5t-40.5 -105.5t-57.5 -99t-71.5 -83t-82.5 -56.5t-91 -19.5zM241 514
q-6 -8 -9.5 -15l-6.5 -13q-4 -7 -7 -12t-7 -9q-6 -8 -17 -10.5t-37 2.5q-11 -30 -18 -60.5t-10 -60.5q-6 -59 3 -111.5t30 -92.5t52 -64t69 -25q39 -1 75 16.5t68 47.5t59 70t47.5 84t34 89t18.5 86q3 33 -0.5 65t-17 58.5t-38 43t-62.5 17.5q-34 1 -69.5 -12t-66.5 -31
t-55 -36t-35 -27zM397 785l-25.5 -17t-23.5 -17l-9 -6q-8 -5 -15 -12t-12 -13q-18 -16 -39 -5q-8 6 -10 14.5t6 17.5q9 11 21.5 24.5t26 28t27.5 27.5t25 22q9 10 20 9.5t20 -10.5q26 -24 56 -50.5t50 -52.5q9 -11 5.5 -21t-14.5 -16q-10 -7 -22.5 -6t-21.5 14
q-5 6 -15 18.5t-23 26.5q-10 7 -15.5 13.5t-11.5 10.5z" />
    <glyph glyph-name="Otilde" unicode="&#xd5;" horiz-adv-x="708" 
d="M285 -19q-65 0 -110 35t-72 89.5t-36 121.5t-2 132q4 37 13 71t23 63t33 51.5t42 35.5q43 25 72 27t41 -2q66 35 115.5 53t88.5 18q46 0 78 -21t50.5 -54t25 -73.5t2.5 -80.5q-5 -49 -21 -102.5t-40.5 -105.5t-57.5 -99t-71.5 -83t-82.5 -56.5t-91 -19.5zM241 514
q-6 -8 -9.5 -15l-6.5 -13q-4 -7 -7 -12t-7 -9q-6 -8 -17 -10.5t-37 2.5q-11 -30 -18 -60.5t-10 -60.5q-6 -59 3 -111.5t30 -92.5t52 -64t69 -25q39 -1 75 16.5t68 47.5t59 70t47.5 84t34 89t18.5 86q3 33 -0.5 65t-17 58.5t-38 43t-62.5 17.5q-34 1 -69.5 -12t-66.5 -31
t-55 -36t-35 -27zM520 792q-2 -18 -18.5 -35.5t-51.5 -17.5q-23 0 -44 11.5t-41 19.5q-15 7 -31 7q-13 0 -22 -2.5t-21 -13.5q-11 -9 -21 -7.5t-17 9.5q-8 8 -8 17q0 10 10 19q12 11 21 17.5t17.5 10.5t18 5t22.5 1q19 0 35 -4.5t30 -10.5q8 -3 14.5 -6t11.5 -5
q6 -2 12.5 -4t15.5 -2q18 8 23 13q25 11 35 2.5t9 -24.5z" />
    <glyph glyph-name="Odieresis" unicode="&#xd6;" horiz-adv-x="708" 
d="M285 -19q-65 0 -110 35t-72 89.5t-36 121.5t-2 132q4 37 13 71t23 63t33 51.5t42 35.5q43 25 72 27t41 -2q66 35 115.5 53t88.5 18q46 0 78 -21t50.5 -54t25 -73.5t2.5 -80.5q-5 -49 -21 -102.5t-40.5 -105.5t-57.5 -99t-71.5 -83t-82.5 -56.5t-91 -19.5zM241 514
q-6 -8 -9.5 -15l-6.5 -13q-4 -7 -7 -12t-7 -9q-6 -8 -17 -10.5t-37 2.5q-11 -30 -18 -60.5t-10 -60.5q-6 -59 3 -111.5t30 -92.5t52 -64t69 -25q39 -1 75 16.5t68 47.5t59 70t47.5 84t34 89t18.5 86q3 33 -0.5 65t-17 58.5t-38 43t-62.5 17.5q-34 1 -69.5 -12t-66.5 -31
t-55 -36t-35 -27zM482 734q-11 0 -22.5 9.5t-13.5 31.5t3.5 29t19.5 9q11 2 23.5 -3.5t14.5 -28.5q2 -29 -7.5 -38t-17.5 -9zM308 734q-11 0 -22.5 9.5t-13.5 31.5t4 29t20 9q11 2 23.5 -3.5t14.5 -28.5q3 -29 -7 -38t-19 -9z" />
    <glyph glyph-name="multiply" unicode="&#xd7;" horiz-adv-x="420" 
d="M88 336q-11 10 -11 22t6.5 19.5t18 9.5t23.5 -7q16 -14 33.5 -35.5t35.5 -45.5l12 -14q19 26 36.5 53t34.5 56q5 8 12 12.5t14 4.5q14 0 23.5 -11t2.5 -28q-21 -35 -41 -67t-44 -64q8 -8 19.5 -21t23.5 -26.5t23 -24.5t17 -16q9 -7 12.5 -17t0.5 -18q-4 -11 -15.5 -17
t-28.5 2q-10 7 -21.5 18.5t-23 24.5t-22 25.5t-19.5 21.5l-41 -54l-49 -64q-10 -11 -20.5 -10.5t-17.5 8t-8.5 19.5t6.5 25q7 8 11.5 15t11.5 15v-1q17 24 34.5 46.5t35.5 45.5q-4 5 -6.5 9.5t-6.5 8.5q-17 22 -34 42.5t-37 37.5h-1z" />
    <glyph glyph-name="Oslash" unicode="&#xd8;" horiz-adv-x="708" 
d="M547 819q8 14 22 14q8 0 14.5 -6t6.5 -17q0 -2 -2 -10q-18 -31 -34.5 -63t-31.5 -64q34 -6 58.5 -25t40 -46t22.5 -60t7 -66q0 -49 -13.5 -104.5t-37.5 -110.5t-58 -105.5t-74 -89.5t-86 -62t-94 -23h-12.5t-11.5 1q-15 -51 -28 -101.5t-23 -102.5q-3 -9 -9 -13t-12 -4
q-8 0 -14.5 6t-8.5 17q10 54 23 105.5t29 103.5q-41 14 -70.5 45t-49 72.5t-29 90.5t-9.5 99q0 70 16 126.5t44 97t65 62.5t78 22q8 0 13.5 -1t10.5 -2q57 31 102 48.5t82 21.5q17 37 35.5 73t38.5 71zM241 514q-10 -14 -17.5 -24t-16.5 -17t-20.5 -11t-29.5 -5
q-15 -41 -22.5 -82.5t-7.5 -81.5q0 -43 8 -81.5t23 -70t35.5 -54.5t45.5 -34q50 144 101.5 284t108.5 282q-32 -3 -65 -16.5t-61.5 -30.5t-50 -33.5t-31.5 -24.5zM585 436q1 8 1.5 15.5t0.5 15.5q0 25 -5 49.5t-15.5 44.5t-28 34.5t-42.5 20.5q-59 -143 -110 -285.5
t-104 -287.5h1q39 0 75 17.5t68 47.5t59 69.5t47.5 83t34 88.5t18.5 87z" />
    <glyph glyph-name="Ugrave" unicode="&#xd9;" horiz-adv-x="608" 
d="M94 566q4 12 14.5 17.5t21.5 5t20.5 -7.5t12.5 -20q-10 -54 -17.5 -117t-8 -127.5t8 -126.5t30.5 -112q18 -40 41.5 -48.5t48 2t46.5 34t36 47.5q10 17 17 30t13 25.5t12 26.5t13 34q13 37 25.5 80t20.5 82q17 75 23.5 146.5t-3.5 147.5q0 15 9.5 23t22 8.5t23.5 -6.5
t14 -21q10 -71 5 -150t-22.5 -158t-45.5 -153.5t-63 -137.5t-88 -94.5t-124 -21.5q-18 3 -36 15t-27 26q-22 33 -35 69t-19.5 74.5t-8.5 77.5t-2 78q-1 63 5 126t17 126zM189 842q-13 4 -13 18q0 7 5 13t13 6q15 0 34.5 -15t37.5 -35.5t30.5 -40.5t12.5 -30q0 -13 -9.5 -21
t-21.5 -8q-14 0 -23.5 16t-18.5 36t-19.5 38t-27.5 23z" />
    <glyph glyph-name="Uacute" unicode="&#xda;" horiz-adv-x="608" 
d="M94 566q4 12 14.5 17.5t21.5 5t20.5 -7.5t12.5 -20q-10 -54 -17.5 -117t-8 -127.5t8 -126.5t30.5 -112q18 -40 41.5 -48.5t48 2t46.5 34t36 47.5q10 17 17 30t13 25.5t12 26.5t13 34q13 37 25.5 80t20.5 82q17 75 23.5 146.5t-3.5 147.5q0 15 9.5 23t22 8.5t23.5 -6.5
t14 -21q10 -71 5 -150t-22.5 -158t-45.5 -153.5t-63 -137.5t-88 -94.5t-124 -21.5q-18 3 -36 15t-27 26q-22 33 -35 69t-19.5 74.5t-8.5 77.5t-2 78q-1 63 5 126t17 126zM366 831q-10 -3 -19.5 -14.5t-17.5 -25.5t-14.5 -29.5t-11.5 -25.5q-6 -14 -17.5 -17t-22 1.5
t-15.5 15t1 24.5q6 15 18.5 31.5t27.5 31.5t30.5 27t28.5 17q9 3 15.5 -1t8.5 -11t-0.5 -14t-11.5 -10z" />
    <glyph glyph-name="Ucircumflex" unicode="&#xdb;" horiz-adv-x="608" 
d="M94 566q4 12 14.5 17.5t21.5 5t20.5 -7.5t12.5 -20q-10 -54 -17.5 -117t-8 -127.5t8 -126.5t30.5 -112q18 -40 41.5 -48.5t48 2t46.5 34t36 47.5q10 17 17 30t13 25.5t12 26.5t13 34q13 37 25.5 80t20.5 82q17 75 23.5 146.5t-3.5 147.5q0 15 9.5 23t22 8.5t23.5 -6.5
t14 -21q10 -71 5 -150t-22.5 -158t-45.5 -153.5t-63 -137.5t-88 -94.5t-124 -21.5q-18 3 -36 15t-27 26q-22 33 -35 69t-19.5 74.5t-8.5 77.5t-2 78q-1 63 5 126t17 126zM300 785l-25.5 -17t-23.5 -17l-9 -6q-8 -5 -15 -12t-12 -13q-18 -16 -39 -5q-8 6 -10 14.5t6 17.5
q9 11 21.5 24.5t26 28t27.5 27.5t25 22q9 10 20 9.5t20 -10.5q26 -24 56 -50.5t50 -52.5q9 -11 5.5 -21t-14.5 -16q-10 -7 -22.5 -6t-21.5 14q-5 6 -15 18.5t-23 26.5q-10 7 -15.5 13.5t-11.5 10.5z" />
    <glyph glyph-name="Udieresis" unicode="&#xdc;" horiz-adv-x="608" 
d="M94 566q4 12 14.5 17.5t21.5 5t20.5 -7.5t12.5 -20q-10 -54 -17.5 -117t-8 -127.5t8 -126.5t30.5 -112q18 -40 41.5 -48.5t48 2t46.5 34t36 47.5q10 17 17 30t13 25.5t12 26.5t13 34q13 37 25.5 80t20.5 82q17 75 23.5 146.5t-3.5 147.5q0 15 9.5 23t22 8.5t23.5 -6.5
t14 -21q10 -71 5 -150t-22.5 -158t-45.5 -153.5t-63 -137.5t-88 -94.5t-124 -21.5q-18 3 -36 15t-27 26q-22 33 -35 69t-19.5 74.5t-8.5 77.5t-2 78q-1 63 5 126t17 126zM393 734q-11 0 -22.5 9.5t-13.5 31.5t3.5 29t19.5 9q11 2 23.5 -3.5t14.5 -28.5q2 -29 -7.5 -38
t-17.5 -9zM219 734q-11 0 -22.5 9.5t-13.5 31.5t4 29t20 9q11 2 23.5 -3.5t14.5 -28.5q3 -29 -7 -38t-19 -9z" />
    <glyph glyph-name="Yacute" unicode="&#xdd;" horiz-adv-x="465" 
d="M35 562q-3 7 -3 12q0 11 9 17t21 6q11 0 20 -5t16.5 -13t14 -17.5t12.5 -18.5q33 -44 64 -96.5t59 -111.5q29 82 67.5 160t86.5 154h-1q14 11 33 11q11 0 19.5 -5.5t8.5 -18.5q0 -5 -1 -8v1q-106 -170 -164 -357.5t-60 -387.5q-3 -6 -11 -13.5t-15 -11.5l-8 -1
q-9 0 -15 3.5t-9.5 8.5t-5.5 10t-2 8q0 93 14 186t40 183q-3 2 -5.5 2.5t-4.5 2.5q-20 57 -54 115t-69 109q-15 21 -30.5 38.5t-26.5 37.5zM329 831q-10 -3 -19.5 -14.5t-17.5 -25.5t-14.5 -29.5t-11.5 -25.5q-6 -14 -17.5 -17t-22 1.5t-15.5 15t1 24.5q6 15 18.5 31.5
t27.5 31.5t30.5 27t28.5 17q9 3 15.5 -1t8.5 -11t-0.5 -14t-11.5 -10z" />
    <glyph glyph-name="Thorn" unicode="&#xde;" horiz-adv-x="570" 
d="M164 167q-4 -40 -5 -62t0 -36t4 -26t6 -31q2 -7 4.5 -13t5.5 -11q6 -8 5 -12q-3 -12 -10.5 -22t-17 -16t-19 -7.5t-16.5 2.5q-6 3 -11 22q-2 9 -3 18t-2 15q-6 45 -8 87.5t2 72.5q-29 -10 -39.5 -4t-12.5 17q-1 11 6.5 22.5t23.5 16.5q4 2 9.5 3.5t19.5 5.5
q15 115 33 179q3 11 7.5 24t15.5 41q-34 -15 -51.5 -25t-31.5 -22q-14 -11 -25.5 -10.5t-18.5 8.5q-8 8 -6 20.5t16 23.5q32 27 67.5 43.5t72.5 25.5q15 45 30 81.5t26 58.5q2 5 5.5 13t9.5 17q10 16 17 17q7 2 16 -2.5t16 -13t11 -20t2 -23.5q0 -3 -2.5 -5.5l-5.5 -5.5
q-5 -3 -10 -8t-8 -11q-7 -14 -17.5 -36t-21.5 -50q27 3 52.5 4t50.5 1q21 0 47 -0.5t51.5 -3t49 -9.5t39.5 -20t22 -33.5t-2 -50.5q-14 -48 -54.5 -86t-96.5 -68t-121 -53.5t-127 -42.5zM435 472q-27 5 -54.5 5h-40.5q-26 0 -50.5 -2.5t-59.5 -8.5q-10 -24 -17 -42.5
t-12 -35.5q-8 -27 -15 -66t-15 -93q54 18 109.5 39.5t102 45.5t78.5 50t40 53q6 22 -14 36t-52 19z" />
    <glyph glyph-name="germandbls" unicode="&#xdf;" horiz-adv-x="399" 
d="M169 343l-0.5 4t0 9t3 10.5t7.5 7.5q14 7 25.5 14t22.5 17.5t23 26.5t26 40q18 31 21.5 62.5t-15.5 63.5q-17 26 -47 36.5t-58 -5.5q-12 -10 -18.5 -25t-9.5 -32t-4.5 -35.5t-3.5 -35.5q-6 -44 -8.5 -67.5t-4 -43t-3 -45t-5.5 -73.5q-2 -28 -4.5 -67t-4.5 -73
q0 -3 -1.5 -18t-3.5 -31.5t-3 -31t0 -17.5q3 -8 4.5 -17t-1 -16t-11 -11.5t-24.5 -3.5q-18 2 -25 11.5t-2 18.5q2 3 4.5 27.5t6.5 59.5q1 54 1.5 88.5t2.5 62.5q2 25 4 59t4.5 69.5t5 69.5t5.5 60q4 32 9 62.5t17.5 54.5t35.5 39.5t63 18.5q16 1 39.5 -4t47 -19t42.5 -37
t27 -58q6 -27 -1.5 -55.5t-23 -54.5t-35.5 -47t-38 -33q4 -1 3.5 -1.5t4.5 -1.5q29 -4 51 -17t37 -30.5t22.5 -37t7.5 -37.5q0 -44 -16.5 -83t-44.5 -71.5t-65 -57t-77 -39.5q-17 -10 -26.5 -5t-17.5 14q-4 5 -2 11.5t7 13t13 12.5t17 10q32 14 60.5 33.5t49.5 45t33.5 57
t12.5 69.5q0 30 -21.5 45.5t-42.5 21.5q-13 4 -27 6.5t-42 -7.5q-14 0 -20.5 4t-8.5 9z" />
    <glyph glyph-name="agrave" unicode="&#xe0;" horiz-adv-x="388" 
d="M105 -11q-21 0 -34.5 11t-21.5 27.5t-11.5 35.5t-3.5 35q0 40 5.5 68.5t14.5 56.5q7 21 23.5 56t39.5 68.5t50.5 58t56.5 24.5q18 0 33 -12.5t15 -23.5q0 -16 -7 -22t-12 -8h-5q-6 0 -13.5 1t-14.5 1q-7 -1 -18 -7t-22 -17q-45 -45 -66.5 -100.5t-21.5 -118.5
q0 -27 10.5 -44t20.5 -17q3 0 19 8.5t37 28.5t44.5 53t42.5 83q9 39 13 66.5t8 45t11 26t23 8.5q9 0 15.5 -6t6.5 -21q0 -32 -10 -64t-12 -64q-1 -13 -1 -22.5v-22.5q0 -54 10 -97.5t27 -70.5q7 -11 7 -22q0 -14 -10.5 -18.5t-21.5 -4.5q-15 0 -25.5 15t-18 38.5t-12.5 51
t-8 51.5q-43 -65 -85.5 -100t-77.5 -35zM159 599q-9 3 -11.5 10t-0.5 14t8.5 11t15.5 1q13 -5 29 -17t31 -27t27 -32t18 -31t1 -24.5t-15.5 -15t-22 -1.5t-17.5 17q-5 10 -11.5 25.5t-14.5 29.5t-17.5 25.5t-19.5 14.5z" />
    <glyph glyph-name="aacute" unicode="&#xe1;" horiz-adv-x="388" 
d="M105 -11q-21 0 -34.5 11t-21.5 27.5t-11.5 35.5t-3.5 35q0 40 5.5 68.5t14.5 56.5q7 21 23.5 56t39.5 68.5t50.5 58t56.5 24.5q18 0 33 -12.5t15 -23.5q0 -16 -7 -22t-12 -8h-5q-6 0 -13.5 1t-14.5 1q-7 -1 -18 -7t-22 -17q-45 -45 -66.5 -100.5t-21.5 -118.5
q0 -27 10.5 -44t20.5 -17q3 0 19 8.5t37 28.5t44.5 53t42.5 83q9 39 13 66.5t8 45t11 26t23 8.5q9 0 15.5 -6t6.5 -21q0 -32 -10 -64t-12 -64q-1 -13 -1 -22.5v-22.5q0 -54 10 -97.5t27 -70.5q7 -11 7 -22q0 -14 -10.5 -18.5t-21.5 -4.5q-15 0 -25.5 15t-18 38.5t-12.5 51
t-8 51.5q-43 -65 -85.5 -100t-77.5 -35zM322 599q-10 -3 -19.5 -14.5t-17.5 -25.5t-14.5 -29.5t-11.5 -25.5q-6 -14 -17.5 -17t-22 1.5t-15.5 15t1 24.5q6 15 18.5 31.5t27.5 31.5t30.5 27t28.5 17q9 3 15.5 -1t8.5 -11t-0.5 -14t-11.5 -10z" />
    <glyph glyph-name="acircumflex" unicode="&#xe2;" horiz-adv-x="388" 
d="M105 -11q-21 0 -34.5 11t-21.5 27.5t-11.5 35.5t-3.5 35q0 40 5.5 68.5t14.5 56.5q7 21 23.5 56t39.5 68.5t50.5 58t56.5 24.5q18 0 33 -12.5t15 -23.5q0 -16 -7 -22t-12 -8h-5q-6 0 -13.5 1t-14.5 1q-7 -1 -18 -7t-22 -17q-45 -45 -66.5 -100.5t-21.5 -118.5
q0 -27 10.5 -44t20.5 -17q3 0 19 8.5t37 28.5t44.5 53t42.5 83q9 39 13 66.5t8 45t11 26t23 8.5q9 0 15.5 -6t6.5 -21q0 -32 -10 -64t-12 -64q-1 -13 -1 -22.5v-22.5q0 -54 10 -97.5t27 -70.5q7 -11 7 -22q0 -14 -10.5 -18.5t-21.5 -4.5q-15 0 -25.5 15t-18 38.5t-12.5 51
t-8 51.5q-43 -65 -85.5 -100t-77.5 -35zM242 538q-11 -8 -23 -17t-21 -17l-9 -6q-6 -5 -12.5 -12t-11.5 -13q-8 -9 -17.5 -9.5t-17.5 4.5q-7 6 -9 14.5t5 17.5q8 11 19.5 24.5t23.5 28t24.5 27.5t22.5 22q19 20 37 -1q24 -24 51 -50.5t45 -52.5q8 -11 4.5 -21t-12.5 -16
q-9 -7 -20.5 -6t-19.5 14q-5 6 -14 18.5t-21 26.5q-8 7 -13.5 13.5t-10.5 10.5z" />
    <glyph glyph-name="atilde" unicode="&#xe3;" horiz-adv-x="388" 
d="M105 -11q-21 0 -34.5 11t-21.5 27.5t-11.5 35.5t-3.5 35q0 40 5.5 68.5t14.5 56.5q7 21 23.5 56t39.5 68.5t50.5 58t56.5 24.5q18 0 33 -12.5t15 -23.5q0 -16 -7 -22t-12 -8h-5q-6 0 -13.5 1t-14.5 1q-7 -1 -18 -7t-22 -17q-45 -45 -66.5 -100.5t-21.5 -118.5
q0 -27 10.5 -44t20.5 -17q3 0 19 8.5t37 28.5t44.5 53t42.5 83q9 39 13 66.5t8 45t11 26t23 8.5q9 0 15.5 -6t6.5 -21q0 -32 -10 -64t-12 -64q-1 -13 -1 -22.5v-22.5q0 -54 10 -97.5t27 -70.5q7 -11 7 -22q0 -14 -10.5 -18.5t-21.5 -4.5q-15 0 -25.5 15t-18 38.5t-12.5 51
t-8 51.5q-43 -65 -85.5 -100t-77.5 -35zM373 523q-2 -18 -18.5 -35.5t-51.5 -17.5q-23 0 -44 11.5t-41 19.5q-15 7 -31 7q-13 0 -22 -2.5t-21 -13.5q-11 -9 -21 -7.5t-17 9.5q-8 8 -8 17q0 10 10 19q12 11 21 17.5t17.5 10.5t18 5t22.5 1q19 0 35 -4.5t30 -10.5
q8 -3 14.5 -6t11.5 -5q6 -2 12.5 -4t15.5 -2q18 8 23 13q25 11 35 2.5t9 -24.5z" />
    <glyph glyph-name="adieresis" unicode="&#xe4;" horiz-adv-x="388" 
d="M105 -11q-21 0 -34.5 11t-21.5 27.5t-11.5 35.5t-3.5 35q0 40 5.5 68.5t14.5 56.5q7 21 23.5 56t39.5 68.5t50.5 58t56.5 24.5q18 0 33 -12.5t15 -23.5q0 -16 -7 -22t-12 -8h-5q-6 0 -13.5 1t-14.5 1q-7 -1 -18 -7t-22 -17q-45 -45 -66.5 -100.5t-21.5 -118.5
q0 -27 10.5 -44t20.5 -17q3 0 19 8.5t37 28.5t44.5 53t42.5 83q9 39 13 66.5t8 45t11 26t23 8.5q9 0 15.5 -6t6.5 -21q0 -32 -10 -64t-12 -64q-1 -13 -1 -22.5v-22.5q0 -54 10 -97.5t27 -70.5q7 -11 7 -22q0 -14 -10.5 -18.5t-21.5 -4.5q-15 0 -25.5 15t-18 38.5t-12.5 51
t-8 51.5q-43 -65 -85.5 -100t-77.5 -35zM322 502q-11 0 -22.5 9.5t-13.5 31.5t3.5 29t19.5 9q11 2 23.5 -3.5t14.5 -28.5q2 -29 -7.5 -38t-17.5 -9zM148 502q-11 0 -22.5 9.5t-13.5 31.5t4 29t20 9q11 2 23.5 -3.5t14.5 -28.5q3 -29 -7 -38t-19 -9z" />
    <glyph glyph-name="aring" unicode="&#xe5;" horiz-adv-x="388" 
d="M105 -11q-21 0 -34.5 11t-21.5 27.5t-11.5 35.5t-3.5 35q0 40 5.5 68.5t14.5 56.5q7 21 23.5 56t39.5 68.5t50.5 58t56.5 24.5q18 0 33 -12.5t15 -23.5q0 -16 -7 -22t-12 -8h-5q-6 0 -13.5 1t-14.5 1q-7 -1 -18 -7t-22 -17q-45 -45 -66.5 -100.5t-21.5 -118.5
q0 -27 10.5 -44t20.5 -17q3 0 19 8.5t37 28.5t44.5 53t42.5 83q9 39 13 66.5t8 45t11 26t23 8.5q9 0 15.5 -6t6.5 -21q0 -32 -10 -64t-12 -64q-1 -13 -1 -22.5v-22.5q0 -54 10 -97.5t27 -70.5q7 -11 7 -22q0 -14 -10.5 -18.5t-21.5 -4.5q-15 0 -25.5 15t-18 38.5t-12.5 51
t-8 51.5q-43 -65 -85.5 -100t-77.5 -35zM285 471q-13 -2 -27 1t-25 8q-21 10 -32.5 30.5t-11.5 37.5q0 27 12.5 46t32.5 27q14 6 31.5 9t37.5 -1q31 -6 41.5 -31.5t10.5 -53.5q0 -14 -6.5 -27t-16.5 -22.5t-22.5 -16t-24.5 -7.5zM258 577q-17 -11 -18 -28q-2 -14 8 -23
t17 -10q4 -1 11 0.5t13.5 4.5t11 9t4.5 14q0 12 -4 24t-20 12h-5q-9 0 -18 -3z" />
    <glyph glyph-name="ae" unicode="&#xe6;" horiz-adv-x="672" 
d="M450 -13q-50 0 -85.5 25t-47.5 83q-20 -32 -45.5 -52t-51.5 -31t-50 -15t-41 -4q-27 0 -47 12t-33 29.5t-19 37.5t-6 36q0 36 12 64.5t34 47t52.5 26.5t66.5 4q29 -3 56 -10t66 -20q6 47 -2 74.5t-22.5 42.5t-31.5 20.5t-27 7.5q-11 2 -26 -0.5t-29.5 -6t-26.5 -6.5
t-18 -3q-20 0 -28 15t0 32q5 10 21.5 15.5t37.5 8t42 2.5t35 -1q51 -4 81.5 -26t38.5 -70q15 24 34.5 42.5t41.5 30.5t46 18t47 6q45 0 71.5 -29t26.5 -74q0 -46 -24.5 -78t-62 -51.5t-81.5 -28t-83 -7.5q6 -51 29 -80.5t52 -29.5q22 0 44.5 6t42.5 16t36.5 23.5t25.5 28.5
q8 14 22 14q11 0 19 -8t8 -19q0 -9 -6 -18q-15 -24 -38.5 -42.5t-50 -31.5t-54.5 -19.5t-52 -6.5zM370 211q28 -4 63 -1t66 15.5t51.5 35.5t20.5 58q0 20 -14.5 33.5t-30.5 13.5q-25 0 -51.5 -10t-48.5 -29.5t-37.5 -48.5t-18.5 -67zM292 162q-32 10 -61.5 20.5t-52.5 10.5
q-16 0 -32 -3t-29.5 -11t-22 -22t-8.5 -37q0 -32 19 -47t39 -15t42 9.5t42 24.5t36.5 33.5t27.5 36.5z" />
    <glyph glyph-name="ccedilla" unicode="&#xe7;" horiz-adv-x="366" 
d="M161 -99q-8 -3 -15.5 -2.5t-13 4.5t-8 11t1.5 18q4 8 8.5 20.5t8.5 24.5q-33 1 -47 9q-19 10 -32.5 29t-21 44t-9.5 55.5t2 63.5q4 31 20.5 74.5t43 82.5t60.5 65.5t73 24.5q22 -1 36 -9t22.5 -21t12 -29t3.5 -33q0 -22 -3 -41q-2 -10 -4 -16t-16 -7q-11 -2 -20.5 6.5
t-9.5 22.5q-1 28 -7.5 50.5t-18.5 22.5q-25 0 -48 -22.5t-41.5 -54t-31 -64.5t-15.5 -55q-7 -57 5 -91t37 -44q17 -7 38.5 -3t43 18t43 37t38.5 53q8 13 19 17.5t20 -0.5q11 -2 16.5 -11.5t-5.5 -29.5q-32 -55 -69 -89t-74 -48q-5 -2 -10.5 -2.5t-10.5 -1.5q0 -7 -0.5 -13.5
t-1.5 -13.5q18 -8 24.5 -22t6.5 -33q0 -30 -15 -50t-37 -32t-46.5 -17.5t-42.5 -5.5q-14 0 -19.5 4t-6.5 10.5t1 15t3 17.5q5 21 23 21q8 0 15.5 -4t10.5 -12q27 5 45.5 19.5t18.5 33.5v3z" />
    <glyph glyph-name="egrave" unicode="&#xe8;" horiz-adv-x="389" 
d="M104 190q22 1 52 10.5t58 27t48 43t22 58.5q2 26 -5.5 35t-18.5 9q-25 0 -51 -17.5t-48 -44.5t-37.5 -59t-19.5 -62zM184 -13q-32 0 -58.5 12t-46 36t-29 60t-6.5 84q3 45 21.5 90t48.5 81t68.5 58.5t80.5 22.5q21 0 36 -9t23.5 -23.5t12 -33t2.5 -36.5q-3 -44 -27 -78.5
t-58.5 -59.5t-73.5 -39.5t-72 -18.5q6 -51 29 -70t52 -19q22 0 44.5 6t42.5 16t36.5 23.5t25.5 28.5q8 12 18.5 13t18.5 -4.5t11 -16.5t-5 -23q-15 -24 -38.5 -42.5t-50 -31.5t-54.5 -19.5t-52 -6.5zM143 599q-9 3 -11.5 10t-0.5 14t8.5 11t15.5 1q13 -5 29 -17t31 -27
t27 -32t18 -31t1 -24.5t-15.5 -15t-22 -1.5t-17.5 17q-5 10 -11.5 25.5t-14.5 29.5t-17.5 25.5t-19.5 14.5z" />
    <glyph glyph-name="eacute" unicode="&#xe9;" horiz-adv-x="389" 
d="M104 190q22 1 52 10.5t58 27t48 43t22 58.5q2 26 -5.5 35t-18.5 9q-25 0 -51 -17.5t-48 -44.5t-37.5 -59t-19.5 -62zM184 -13q-32 0 -58.5 12t-46 36t-29 60t-6.5 84q3 45 21.5 90t48.5 81t68.5 58.5t80.5 22.5q21 0 36 -9t23.5 -23.5t12 -33t2.5 -36.5q-3 -44 -27 -78.5
t-58.5 -59.5t-73.5 -39.5t-72 -18.5q6 -51 29 -70t52 -19q22 0 44.5 6t42.5 16t36.5 23.5t25.5 28.5q8 12 18.5 13t18.5 -4.5t11 -16.5t-5 -23q-15 -24 -38.5 -42.5t-50 -31.5t-54.5 -19.5t-52 -6.5zM324 599q-10 -3 -19.5 -14.5t-17.5 -25.5t-14.5 -29.5t-11.5 -25.5
q-6 -14 -17.5 -17t-22 1.5t-15.5 15t1 24.5q6 15 18.5 31.5t27.5 31.5t30.5 27t28.5 17q9 3 15.5 -1t8.5 -11t-0.5 -14t-11.5 -10z" />
    <glyph glyph-name="ecircumflex" unicode="&#xea;" horiz-adv-x="389" 
d="M104 190q22 1 52 10.5t58 27t48 43t22 58.5q2 26 -5.5 35t-18.5 9q-25 0 -51 -17.5t-48 -44.5t-37.5 -59t-19.5 -62zM184 -13q-32 0 -58.5 12t-46 36t-29 60t-6.5 84q3 45 21.5 90t48.5 81t68.5 58.5t80.5 22.5q21 0 36 -9t23.5 -23.5t12 -33t2.5 -36.5q-3 -44 -27 -78.5
t-58.5 -59.5t-73.5 -39.5t-72 -18.5q6 -51 29 -70t52 -19q22 0 44.5 6t42.5 16t36.5 23.5t25.5 28.5q8 12 18.5 13t18.5 -4.5t11 -16.5t-5 -23q-15 -24 -38.5 -42.5t-50 -31.5t-54.5 -19.5t-52 -6.5zM248 539q-11 -8 -23 -17t-21 -17l-9 -6q-6 -5 -12.5 -12t-11.5 -13
q-8 -9 -17.5 -9.5t-17.5 4.5q-7 6 -9 14.5t5 17.5q8 11 19.5 24.5t23.5 28t24.5 27.5t22.5 22q19 20 37 -1q24 -24 51 -50.5t45 -52.5q8 -11 4.5 -21t-12.5 -16q-9 -7 -20.5 -6t-19.5 14q-5 6 -14 18.5t-21 26.5q-8 7 -13.5 13.5t-10.5 10.5z" />
    <glyph glyph-name="edieresis" unicode="&#xeb;" horiz-adv-x="389" 
d="M104 190q22 1 52 10.5t58 27t48 43t22 58.5q2 26 -5.5 35t-18.5 9q-25 0 -51 -17.5t-48 -44.5t-37.5 -59t-19.5 -62zM184 -13q-32 0 -58.5 12t-46 36t-29 60t-6.5 84q3 45 21.5 90t48.5 81t68.5 58.5t80.5 22.5q21 0 36 -9t23.5 -23.5t12 -33t2.5 -36.5q-3 -44 -27 -78.5
t-58.5 -59.5t-73.5 -39.5t-72 -18.5q6 -51 29 -70t52 -19q22 0 44.5 6t42.5 16t36.5 23.5t25.5 28.5q8 12 18.5 13t18.5 -4.5t11 -16.5t-5 -23q-15 -24 -38.5 -42.5t-50 -31.5t-54.5 -19.5t-52 -6.5zM330 502q-11 0 -22.5 9.5t-13.5 31.5t3.5 29t19.5 9q11 2 23.5 -3.5
t14.5 -28.5q2 -29 -7.5 -38t-17.5 -9zM156 502q-11 0 -22.5 9.5t-13.5 31.5t4 29t20 9q11 2 23.5 -3.5t14.5 -28.5q3 -29 -7 -38t-19 -9z" />
    <glyph glyph-name="igrave" unicode="&#xec;" 
d="M142 123q-2 -23 3 -39l11 -31q6 -15 0.5 -25.5t-16.5 -15.5t-24 -4.5t-21 6.5q-5 4 -11 24t-5 62q1 35 5 84t6 112q1 7 1 15v18q0 11 1 21t3 20q9 40 30 42q18 1 32.5 -12.5t12.5 -34.5q-1 -7 -3 -25t-5 -41.5t-6 -50.5t-6 -51.5t-5 -44.5t-3 -29zM47 599q-9 3 -11.5 10
t-0.5 14t8.5 11t15.5 1q13 -5 29 -17t31 -27t27 -32t18 -31t1 -24.5t-15.5 -15t-22 -1.5t-17.5 17q-5 10 -11.5 25.5t-14.5 29.5t-17.5 25.5t-19.5 14.5z" />
    <glyph glyph-name="iacute" unicode="&#xed;" 
d="M142 123q-2 -23 3 -39l11 -31q6 -15 0.5 -25.5t-16.5 -15.5t-24 -4.5t-21 6.5q-5 4 -11 24t-5 62q1 35 5 84t6 112q1 7 1 15v18q0 11 1 21t3 20q9 40 30 42q18 1 32.5 -12.5t12.5 -34.5q-1 -7 -3 -25t-5 -41.5t-6 -50.5t-6 -51.5t-5 -44.5t-3 -29zM236 599
q-10 -3 -19.5 -14.5t-17.5 -25.5t-14.5 -29.5t-11.5 -25.5q-6 -14 -17.5 -17t-22 1.5t-15.5 15t1 24.5q6 15 18.5 31.5t27.5 31.5t30.5 27t28.5 17q9 3 15.5 -1t8.5 -11t-0.5 -14t-11.5 -10z" />
    <glyph glyph-name="icircumflex" unicode="&#xee;" 
d="M142 123q-2 -23 3 -39l11 -31q6 -15 0.5 -25.5t-16.5 -15.5t-24 -4.5t-21 6.5q-5 4 -11 24t-5 62q1 35 5 84t6 112q1 7 1 15v18q0 11 1 21t3 20q9 40 30 42q18 1 32.5 -12.5t12.5 -34.5q-1 -7 -3 -25t-5 -41.5t-6 -50.5t-6 -51.5t-5 -44.5t-3 -29zM141 538
q-11 -8 -23 -17t-21 -17l-9 -6q-6 -5 -12.5 -12t-11.5 -13q-8 -9 -17.5 -9.5t-17.5 4.5q-7 6 -9 14.5t5 17.5q8 11 19.5 24.5t23.5 28t24.5 27.5t22.5 22q19 20 37 -1q24 -24 51 -50.5t45 -52.5q8 -11 4.5 -21t-12.5 -16q-9 -7 -20.5 -6t-19.5 14q-5 6 -14 18.5t-21 26.5
q-8 7 -13.5 13.5t-10.5 10.5z" />
    <glyph glyph-name="idieresis" unicode="&#xef;" 
d="M142 123q-2 -23 3 -39l11 -31q6 -15 0.5 -25.5t-16.5 -15.5t-24 -4.5t-21 6.5q-5 4 -11 24t-5 62q1 35 5 84t6 112q1 7 1 15v18q0 11 1 21t3 20q9 40 30 42q18 1 32.5 -12.5t12.5 -34.5q-1 -7 -3 -25t-5 -41.5t-6 -50.5t-6 -51.5t-5 -44.5t-3 -29zM51 502
q-11 0 -22.5 9.5t-13.5 31.5t4 29t20 9q11 2 23.5 -3.5t14.5 -28.5q3 -29 -7 -38t-19 -9zM225 502q-11 0 -22.5 9.5t-13.5 31.5t3.5 29t19.5 9q11 2 23.5 -3.5t14.5 -28.5q2 -29 -7.5 -38t-17.5 -9z" />
    <glyph glyph-name="eth" unicode="&#xf0;" horiz-adv-x="393" 
d="M170 -3q-3 -1 -10 -1q-28 0 -49.5 10.5t-37.5 28.5t-25 41.5t-12 48.5q-6 54 2.5 104.5t31 89t58.5 62t87 23.5q30 0 54.5 -11.5t32.5 -40.5q-2 -13 -10 -18t-20 -6h-4q-11 2 -17.5 7t-12.5 10.5t-13.5 9.5t-22.5 4q-30 -4 -52 -26t-35.5 -53t-19 -67t-2.5 -69
q5 -45 17.5 -72t42.5 -27q17 0 35 10.5t34 26t29 34t21 33.5q12 23 23 53t18.5 64.5t11 72t-0.5 73.5q-6 71 -36 126q-11 -8 -23 -19t-23.5 -21t-22 -17.5t-19.5 -7.5q-11 0 -20 5.5t-10 16.5q-2 13 22.5 35.5t62.5 52.5q-11 11 -23.5 20.5t-27.5 17.5q-14 7 -30.5 11
t-31.5 8.5t-25 10.5t-11 15q-1 8 4.5 15t18.5 9q55 -2 97 -22.5t72 -53.5q20 14 38 22.5t29 10.5q15 -1 23.5 -8t9.5 -16q1 -11 -19 -26.5t-47 -29.5q21 -36 33 -78t17 -87q4 -37 1 -74.5t-10.5 -72.5t-19 -67t-24.5 -59q-9 -18 -26 -40t-38 -41.5t-45.5 -33.5t-49.5 -17z
" />
    <glyph glyph-name="ntilde" unicode="&#xf1;" horiz-adv-x="397" 
d="M235 334q-14 -8 -28.5 -31t-28 -54t-25.5 -66t-21.5 -67t-15.5 -57.5t-8 -37.5q-2 -15 -12 -22t-21 -6t-19.5 9.5t-7.5 24.5q5 88 11 184t22 184q3 15 14 21t22 4t19 -11t5 -24q-11 -53 -15 -108q7 16 17.5 36.5t25 39t32 31t38.5 12.5t34.5 -14t22 -34t12.5 -41.5
t7 -36.5q11 -57 23.5 -114.5t35.5 -111.5q6 -14 0 -24.5t-16.5 -15t-22 -1.5t-17.5 17q-24 57 -37 117.5t-24 120.5q-4 20 -8 39.5t-14 36.5zM340 523q-2 -18 -18.5 -35.5t-51.5 -17.5q-23 0 -44 11.5t-41 19.5q-15 7 -31 7q-13 0 -22 -2.5t-21 -13.5q-11 -9 -21 -7.5
t-17 9.5q-8 8 -8 17q0 10 10 19q12 11 21 17.5t17.5 10.5t18 5t22.5 1q19 0 35 -4.5t30 -10.5q8 -3 14.5 -6t11.5 -5q6 -2 12.5 -4t15.5 -2q18 8 23 13q25 11 35 2.5t9 -24.5z" />
    <glyph glyph-name="ograve" unicode="&#xf2;" horiz-adv-x="372" 
d="M241 343q-16 0 -32 -5t-30.5 -12.5t-26.5 -15.5t-19 -13q-3 -2 -6 -9q-5 -11 -7 -13l-4 -4q-5 -5 -13.5 -8t-16.5 -2q-5 -16 -7 -29t-4 -25q-3 -30 1 -56.5t14 -47t24.5 -32t31.5 -11.5q29 0 54 19t44 47.5t32 63t18 66.5q1 15 -0.5 30.5t-7.5 28t-17 20.5t-28 8zM147 -1
q-34 0 -58.5 17t-41 44t-24.5 61t-8 67q0 10 0.5 18.5t1.5 16.5q5 40 22 75t45 52q23 14 40.5 16t26.5 0q35 19 61.5 28.5t47.5 9.5q28 0 47.5 -12.5t31 -32.5t16 -44t2.5 -48q-4 -41 -22 -88t-46 -87.5t-64.5 -67t-77.5 -25.5zM128 599q-9 3 -11.5 10t-0.5 14t8.5 11
t15.5 1q13 -5 29 -17t31 -27t27 -32t18 -31t1 -24.5t-15.5 -15t-22 -1.5t-17.5 17q-5 10 -11.5 25.5t-14.5 29.5t-17.5 25.5t-19.5 14.5z" />
    <glyph glyph-name="oacute" unicode="&#xf3;" horiz-adv-x="372" 
d="M241 343q-16 0 -32 -5t-30.5 -12.5t-26.5 -15.5t-19 -13q-3 -2 -6 -9q-5 -11 -7 -13l-4 -4q-5 -5 -13.5 -8t-16.5 -2q-5 -16 -7 -29t-4 -25q-3 -30 1 -56.5t14 -47t24.5 -32t31.5 -11.5q29 0 54 19t44 47.5t32 63t18 66.5q1 15 -0.5 30.5t-7.5 28t-17 20.5t-28 8zM147 -1
q-34 0 -58.5 17t-41 44t-24.5 61t-8 67q0 10 0.5 18.5t1.5 16.5q5 40 22 75t45 52q23 14 40.5 16t26.5 0q35 19 61.5 28.5t47.5 9.5q28 0 47.5 -12.5t31 -32.5t16 -44t2.5 -48q-4 -41 -22 -88t-46 -87.5t-64.5 -67t-77.5 -25.5zM305 599q-10 -3 -19.5 -14.5t-17.5 -25.5
t-14.5 -29.5t-11.5 -25.5q-6 -14 -17.5 -17t-22 1.5t-15.5 15t1 24.5q6 15 18.5 31.5t27.5 31.5t30.5 27t28.5 17q9 3 15.5 -1t8.5 -11t-0.5 -14t-11.5 -10z" />
    <glyph glyph-name="ocircumflex" unicode="&#xf4;" horiz-adv-x="372" 
d="M241 343q-16 0 -32 -5t-30.5 -12.5t-26.5 -15.5t-19 -13q-3 -2 -6 -9q-5 -11 -7 -13l-4 -4q-5 -5 -13.5 -8t-16.5 -2q-5 -16 -7 -29t-4 -25q-3 -30 1 -56.5t14 -47t24.5 -32t31.5 -11.5q29 0 54 19t44 47.5t32 63t18 66.5q1 15 -0.5 30.5t-7.5 28t-17 20.5t-28 8zM147 -1
q-34 0 -58.5 17t-41 44t-24.5 61t-8 67q0 10 0.5 18.5t1.5 16.5q5 40 22 75t45 52q23 14 40.5 16t26.5 0q35 19 61.5 28.5t47.5 9.5q28 0 47.5 -12.5t31 -32.5t16 -44t2.5 -48q-4 -41 -22 -88t-46 -87.5t-64.5 -67t-77.5 -25.5zM229 538q-11 -8 -23 -17t-21 -17l-9 -6
q-6 -5 -12.5 -12t-11.5 -13q-8 -9 -17.5 -9.5t-17.5 4.5q-7 6 -9 14.5t5 17.5q8 11 19.5 24.5t23.5 28t24.5 27.5t22.5 22q19 20 37 -1q24 -24 51 -50.5t45 -52.5q8 -11 4.5 -21t-12.5 -16q-9 -7 -20.5 -6t-19.5 14q-5 6 -14 18.5t-21 26.5q-8 7 -13.5 13.5t-10.5 10.5z" />
    <glyph glyph-name="otilde" unicode="&#xf5;" horiz-adv-x="372" 
d="M241 343q-16 0 -32 -5t-30.5 -12.5t-26.5 -15.5t-19 -13q-3 -2 -6 -9q-5 -11 -7 -13l-4 -4q-5 -5 -13.5 -8t-16.5 -2q-5 -16 -7 -29t-4 -25q-3 -30 1 -56.5t14 -47t24.5 -32t31.5 -11.5q29 0 54 19t44 47.5t32 63t18 66.5q1 15 -0.5 30.5t-7.5 28t-17 20.5t-28 8zM147 -1
q-34 0 -58.5 17t-41 44t-24.5 61t-8 67q0 10 0.5 18.5t1.5 16.5q5 40 22 75t45 52q23 14 40.5 16t26.5 0q35 19 61.5 28.5t47.5 9.5q28 0 47.5 -12.5t31 -32.5t16 -44t2.5 -48q-4 -41 -22 -88t-46 -87.5t-64.5 -67t-77.5 -25.5zM365 523q-2 -18 -18.5 -35.5t-51.5 -17.5
q-23 0 -44 11.5t-41 19.5q-15 7 -31 7q-13 0 -22 -2.5t-21 -13.5q-11 -9 -21 -7.5t-17 9.5q-8 8 -8 17q0 10 10 19q12 11 21 17.5t17.5 10.5t18 5t22.5 1q19 0 35 -4.5t30 -10.5q8 -3 14.5 -6t11.5 -5q6 -2 12.5 -4t15.5 -2q18 8 23 13q25 11 35 2.5t9 -24.5z" />
    <glyph glyph-name="odieresis" unicode="&#xf6;" horiz-adv-x="372" 
d="M241 343q-16 0 -32 -5t-30.5 -12.5t-26.5 -15.5t-19 -13q-3 -2 -6 -9q-5 -11 -7 -13l-4 -4q-5 -5 -13.5 -8t-16.5 -2q-5 -16 -7 -29t-4 -25q-3 -30 1 -56.5t14 -47t24.5 -32t31.5 -11.5q29 0 54 19t44 47.5t32 63t18 66.5q1 15 -0.5 30.5t-7.5 28t-17 20.5t-28 8zM147 -1
q-34 0 -58.5 17t-41 44t-24.5 61t-8 67q0 10 0.5 18.5t1.5 16.5q5 40 22 75t45 52q23 14 40.5 16t26.5 0q35 19 61.5 28.5t47.5 9.5q28 0 47.5 -12.5t31 -32.5t16 -44t2.5 -48q-4 -41 -22 -88t-46 -87.5t-64.5 -67t-77.5 -25.5zM322 502q-11 0 -22.5 9.5t-13.5 31.5t3.5 29
t19.5 9q11 2 23.5 -3.5t14.5 -28.5q2 -29 -7.5 -38t-17.5 -9zM148 502q-11 0 -22.5 9.5t-13.5 31.5t4 29t20 9q11 2 23.5 -3.5t14.5 -28.5q3 -29 -7 -38t-19 -9z" />
    <glyph glyph-name="divide" unicode="&#xf7;" horiz-adv-x="316" 
d="M152 341q14 0 21 -7.5t7 -18.5t-7 -22.5t-28 -11.5q-12 0 -18 8.5t-6 21.5q0 12 7 21t24 9zM35 149q-2 0 -3 -0.5t-3 -0.5q-11 0 -17.5 9t-6.5 20q0 8 4 15.5t13 10.5q38 11 70 18t63 10.5t63.5 4.5t71.5 1q9 -3 14 -11.5t5 -17.5t-5 -17t-16 -10q-38 0 -68.5 -1
t-59.5 -4t-59 -9.5t-66 -17.5zM124 75q-5 8 -4.5 15.5t5 13.5t12 9.5t15.5 3.5q6 0 13 -2.5t12 -10.5t6.5 -11t1.5 -7q0 -12 -10.5 -20t-23.5 -8t-21 8z" />
    <glyph glyph-name="oslash" unicode="&#xf8;" horiz-adv-x="372" 
d="M257 558q6 10 15 12.5t16 -1t10.5 -11.5t-0.5 -19q-14 -32 -25 -65t-21 -67q16 -6 32 -16.5t30.5 -27t25 -40t15.5 -54.5q8 -58 -9.5 -106t-49 -83t-71 -56t-74.5 -25q-12 -57 -18 -115q-3 -10 -10 -14t-14 -3t-13 7t-7 16q3 28 7.5 55.5t9.5 54.5q-5 1 -13 5
q-18 9 -35.5 31.5t-28 53.5t-10.5 68t17 75q43 95 86.5 136.5t84.5 45.5q11 36 23.5 72t26.5 71zM289 306q-8 17 -18 29.5t-34 19.5q-8 -32 -16 -63t-16 -63q-11 -44 -22 -87t-21 -87q16 4 33 14t32 22.5t27 26.5t18 26q20 39 28 79.5t-11 82.5zM83 191q-5 -15 -5.5 -34.5
t4 -38t13.5 -34.5t23 -25q10 46 21 91t23 91l23 92q-25 -17 -53 -49.5t-49 -92.5z" />
    <glyph glyph-name="ugrave" unicode="&#xf9;" horiz-adv-x="426" 
d="M383 -8q-13 -6 -26 -2.5t-20 18.5q-8 17 -15 32.5t-14 31.5q-3 8 -6 17t-6 21.5t-7.5 31.5t-10.5 48q-7 -25 -11.5 -41t-7.5 -26.5t-4.5 -17t-3.5 -12.5q-4 -14 -11.5 -29.5t-17.5 -28.5t-21.5 -22.5t-23.5 -11.5q-30 -4 -51 18t-34.5 59t-21 83.5t-11 91.5t-4.5 83
t-1 58q1 24 11 31.5t21 5.5q13 -2 24 -12t9 -27v-36q0 -51 5 -112t16 -118q4 -17 15.5 -34.5t22.5 -18.5q9 0 21 18.5t20 44.5q7 22 11.5 42.5t6.5 27.5q6 21 10.5 45.5t9.5 49.5q5 24 10 47t12 42q5 14 16 19.5t22.5 3.5t20 -10.5t8.5 -23.5q0 -36 -0.5 -76t2.5 -80
t10.5 -78.5t23.5 -71.5l18 -37q8 -15 2 -27t-19 -17zM112 599q-9 3 -11.5 10t-0.5 14t8.5 11t15.5 1q13 -5 29 -17t31 -27t27 -32t18 -31t1 -24.5t-15.5 -15t-22 -1.5t-17.5 17q-5 10 -11.5 25.5t-14.5 29.5t-17.5 25.5t-19.5 14.5z" />
    <glyph glyph-name="uacute" unicode="&#xfa;" horiz-adv-x="426" 
d="M383 -8q-13 -6 -26 -2.5t-20 18.5q-8 17 -15 32.5t-14 31.5q-3 8 -6 17t-6 21.5t-7.5 31.5t-10.5 48q-7 -25 -11.5 -41t-7.5 -26.5t-4.5 -17t-3.5 -12.5q-4 -14 -11.5 -29.5t-17.5 -28.5t-21.5 -22.5t-23.5 -11.5q-30 -4 -51 18t-34.5 59t-21 83.5t-11 91.5t-4.5 83
t-1 58q1 24 11 31.5t21 5.5q13 -2 24 -12t9 -27v-36q0 -51 5 -112t16 -118q4 -17 15.5 -34.5t22.5 -18.5q9 0 21 18.5t20 44.5q7 22 11.5 42.5t6.5 27.5q6 21 10.5 45.5t9.5 49.5q5 24 10 47t12 42q5 14 16 19.5t22.5 3.5t20 -10.5t8.5 -23.5q0 -36 -0.5 -76t2.5 -80
t10.5 -78.5t23.5 -71.5l18 -37q8 -15 2 -27t-19 -17zM301 599q-10 -3 -19.5 -14.5t-17.5 -25.5t-14.5 -29.5t-11.5 -25.5q-6 -14 -17.5 -17t-22 1.5t-15.5 15t1 24.5q6 15 18.5 31.5t27.5 31.5t30.5 27t28.5 17q9 3 15.5 -1t8.5 -11t-0.5 -14t-11.5 -10z" />
    <glyph glyph-name="ucircumflex" unicode="&#xfb;" horiz-adv-x="426" 
d="M383 -8q-13 -6 -26 -2.5t-20 18.5q-8 17 -15 32.5t-14 31.5q-3 8 -6 17t-6 21.5t-7.5 31.5t-10.5 48q-7 -25 -11.5 -41t-7.5 -26.5t-4.5 -17t-3.5 -12.5q-4 -14 -11.5 -29.5t-17.5 -28.5t-21.5 -22.5t-23.5 -11.5q-30 -4 -51 18t-34.5 59t-21 83.5t-11 91.5t-4.5 83
t-1 58q1 24 11 31.5t21 5.5q13 -2 24 -12t9 -27v-36q0 -51 5 -112t16 -118q4 -17 15.5 -34.5t22.5 -18.5q9 0 21 18.5t20 44.5q7 22 11.5 42.5t6.5 27.5q6 21 10.5 45.5t9.5 49.5q5 24 10 47t12 42q5 14 16 19.5t22.5 3.5t20 -10.5t8.5 -23.5q0 -36 -0.5 -76t2.5 -80
t10.5 -78.5t23.5 -71.5l18 -37q8 -15 2 -27t-19 -17zM208 538q-11 -8 -23 -17t-21 -17l-9 -6q-6 -5 -12.5 -12t-11.5 -13q-8 -9 -17.5 -9.5t-17.5 4.5q-7 6 -9 14.5t5 17.5q8 11 19.5 24.5t23.5 28t24.5 27.5t22.5 22q19 20 37 -1q24 -24 51 -50.5t45 -52.5q8 -11 4.5 -21
t-12.5 -16q-9 -7 -20.5 -6t-19.5 14q-5 6 -14 18.5t-21 26.5q-8 7 -13.5 13.5t-10.5 10.5z" />
    <glyph glyph-name="udieresis" unicode="&#xfc;" horiz-adv-x="426" 
d="M383 -8q-13 -6 -26 -2.5t-20 18.5q-8 17 -15 32.5t-14 31.5q-3 8 -6 17t-6 21.5t-7.5 31.5t-10.5 48q-7 -25 -11.5 -41t-7.5 -26.5t-4.5 -17t-3.5 -12.5q-4 -14 -11.5 -29.5t-17.5 -28.5t-21.5 -22.5t-23.5 -11.5q-30 -4 -51 18t-34.5 59t-21 83.5t-11 91.5t-4.5 83
t-1 58q1 24 11 31.5t21 5.5q13 -2 24 -12t9 -27v-36q0 -51 5 -112t16 -118q4 -17 15.5 -34.5t22.5 -18.5q9 0 21 18.5t20 44.5q7 22 11.5 42.5t6.5 27.5q6 21 10.5 45.5t9.5 49.5q5 24 10 47t12 42q5 14 16 19.5t22.5 3.5t20 -10.5t8.5 -23.5q0 -36 -0.5 -76t2.5 -80
t10.5 -78.5t23.5 -71.5l18 -37q8 -15 2 -27t-19 -17zM127 502q-11 0 -22.5 9.5t-13.5 31.5t4 29t20 9q11 2 23.5 -3.5t14.5 -28.5q3 -29 -7 -38t-19 -9zM301 502q-11 0 -22.5 9.5t-13.5 31.5t3.5 29t19.5 9q11 2 23.5 -3.5t14.5 -28.5q2 -29 -7.5 -38t-17.5 -9z" />
    <glyph glyph-name="yacute" unicode="&#xfd;" horiz-adv-x="413" 
d="M108 -339q4 -7 4 -19q0 -15 -9.5 -25t-21.5 -13t-24 2t-17 19q-6 5 -7.5 12.5t5.5 21.5q2 4 2.5 7.5t2.5 6.5l4 11l2 3q10 42 22.5 80.5t27.5 76.5t32.5 78t38.5 85q-10 -4 -20.5 -1t-18.5 15q-12 20 -30 56.5t-35.5 77t-30.5 79.5t-15 64q-1 16 8.5 25t21.5 10
t22.5 -6.5t11.5 -23.5q2 -20 14.5 -55t28.5 -72.5t32.5 -70.5t26.5 -50l3 -6q20 42 38 82.5t35 78.5q23 57 49 112t49 113q6 15 18.5 19t23.5 -0.5t17.5 -16t0.5 -26.5q-23 -58 -49 -114t-50 -113q-28 -66 -63.5 -140.5t-69.5 -152.5q-15 -36 -27.5 -65t-22 -56t-17 -53
t-13.5 -56zM276 599q-10 -3 -19.5 -14.5t-17.5 -25.5t-14.5 -29.5t-11.5 -25.5q-6 -14 -17.5 -17t-22 1.5t-15.5 15t1 24.5q6 15 18.5 31.5t27.5 31.5t30.5 27t28.5 17q9 3 15.5 -1t8.5 -11t-0.5 -14t-11.5 -10z" />
    <glyph glyph-name="thorn" unicode="&#xfe;" horiz-adv-x="449" 
d="M123 27q-3 -36 -4 -76t-1 -79q0 -66 2.5 -114.5t12.5 -68.5q1 -4 2.5 -7t1.5 -7q0 -27 -14.5 -37.5t-28.5 -10.5q-12 0 -18 6t-9 15t-4 19.5t-2 20.5q-2 26 -4.5 71.5t-2.5 99.5q0 37 1 75t4 73q-13 -5 -24 -5t-15 6.5t-4 15.5q0 20 11 28t38 19q4 43 8.5 74.5t9.5 58.5
t11.5 52t16.5 57q-20 -11 -34.5 -21t-24.5 -17.5t-17 -12.5t-13 -5q-9 0 -15.5 7t-6.5 18q0 16 15.5 32t36.5 29.5t43.5 23t36.5 14.5q15 51 33.5 101t36.5 92.5t32.5 72.5t21.5 40t12 13.5t11 4.5q13 0 26 -15.5t13 -35.5q0 -14 -10.5 -20t-17.5 -19q-8 -15 -20 -39.5
t-25.5 -54.5t-27 -62.5t-24.5 -63.5q25 2 40 3.5t30 1.5q23 0 52.5 -3t55.5 -12.5t44 -28t18 -49.5q0 -54 -30 -97.5t-76 -78t-100.5 -60.5t-103.5 -44zM313 337q-32 7 -61 7q-11 0 -17 -1t-12.5 -3t-16 -5t-27.5 -7q-11 -31 -18 -54.5t-12 -49t-9.5 -56.5t-10.5 -76
q45 18 88.5 40.5t77 48t54 53t20.5 54.5q0 19 -16 31.5t-40 17.5z" />
    <glyph glyph-name="ydieresis" unicode="&#xff;" horiz-adv-x="413" 
d="M108 -339q4 -7 4 -19q0 -15 -9.5 -25t-21.5 -13t-24 2t-17 19q-6 5 -7.5 12.5t5.5 21.5q2 4 2.5 7.5t2.5 6.5l4 11l2 3q10 42 22.5 80.5t27.5 76.5t32.5 78t38.5 85q-10 -4 -20.5 -1t-18.5 15q-12 20 -30 56.5t-35.5 77t-30.5 79.5t-15 64q-1 16 8.5 25t21.5 10
t22.5 -6.5t11.5 -23.5q2 -20 14.5 -55t28.5 -72.5t32.5 -70.5t26.5 -50l3 -6q20 42 38 82.5t35 78.5q23 57 49 112t49 113q6 15 18.5 19t23.5 -0.5t17.5 -16t0.5 -26.5q-23 -58 -49 -114t-50 -113q-28 -66 -63.5 -140.5t-69.5 -152.5q-15 -36 -27.5 -65t-22 -56t-17 -53
t-13.5 -56zM116 502q-11 0 -22.5 9.5t-13.5 31.5t4 29t20 9q11 2 23.5 -3.5t14.5 -28.5q3 -29 -7 -38t-19 -9zM290 502q-11 0 -22.5 9.5t-13.5 31.5t3.5 29t19.5 9q11 2 23.5 -3.5t14.5 -28.5q2 -29 -7.5 -38t-17.5 -9z" />
    <glyph glyph-name="pi" unicode="&#x3c0;" horiz-adv-x="427" 
d="M389 -34q-9 -8 -23 -5.5t-26 10.5t-18 21t0 28q1 2 1 11v10t-1 10t-1.5 9t-0.5 6q-2 10 -2 9q-2 23 -5 51t-1 75q0 4 -0.5 24t-1 47.5t-1 58.5t-0.5 58l-173 -13q-2 -37 -2.5 -62t-2.5 -47l-10 -129q-1 -20 -0.5 -39.5t-0.5 -41.5q-1 -8 -1 -15v-15v-30q0 -16 -11 -24
t-24 -8t-24 8t-11 24q0 19 0.5 36t0.5 34q1 35 3 66.5t3 63.5q1 22 -0.5 44t-0.5 45q1 18 2 38.5t3 50.5q-20 3 -27 11t-6 20q2 25 30 29l15 1q21 12 46 3l236 17q8 1 10.5 -1.5t4.5 -11.5q0 -3 0.5 -6t0.5 -6q0 -12 1 -15q0 -8 -0.5 -17t0.5 -19q0 -26 -0.5 -70t1.5 -93
q0 -31 1 -61.5t2.5 -56t3 -42.5t2.5 -21l10 -21q6 -11 8 -22q3 -18 -10 -27z" />
    <glyph glyph-name="dieresistonos" unicode="&#x385;" horiz-adv-x="388" 
d="M340 599q-10 -3 -19.5 -14.5t-17.5 -25.5t-14.5 -29.5t-11.5 -25.5q-6 -14 -17.5 -17t-22 1.5t-16 15t0.5 24.5t18.5 31t27.5 32t30.5 27t28.5 17q9 3 15.5 -1t9 -11t0 -14t-11.5 -10zM390 502q-11 0 -22.5 9.5t-13.5 31.5t3.5 29t19.5 9q11 2 23.5 -3.5t14.5 -28.5
q2 -29 -7.5 -38t-17.5 -9zM166 502q-11 0 -22.5 9.5t-13.5 31.5t4 29t20 9q11 2 23.5 -3.5t14.5 -28.5q3 -29 -7 -38t-19 -9z" />
    <glyph glyph-name="tonos" unicode="&#x384;" horiz-adv-x="437" 
d="M360 599q-10 -3 -19.5 -14.5t-17.5 -25.5t-14.5 -29.5t-11.5 -25.5q-6 -14 -17.5 -17t-22 1.5t-15.5 15t1 24.5q6 15 18.5 31.5t27.5 31.5t30.5 27t28.5 17q9 3 15.5 -1t8.5 -11t-0.5 -14t-11.5 -10z" />
    <glyph glyph-name="Gamma" unicode="&#x393;" horiz-adv-x="572" 
d="M206 55q1 -17 6 -33q1 -13 -6 -22q-9 -12 -26.5 -13t-27.5 10q-2 2 -2.5 11.5t-0.5 23.5q0 15 1 33t1 37q2 42 4 80t2 55q3 24 6 63t6 81.5t6 84.5t6 72q-19 -7 -25 -9t-8 -2h-3q-3 0 -13 -3q-12 2 -18 5.5t-11 19.5q-5 18 8 29q8 8 18.5 10t31.5 8q4 2 10.5 2.5
t10.5 2.5q1 17 4.5 35t16.5 23q29 11 47 -32q19 6 64 17.5t100 23.5t111 21.5t96 10.5q4 2 14.5 5.5t21.5 3.5t19.5 -6.5t8.5 -24.5t-8 -26t-20 -10.5t-25 -1.5t-23 1q-16 -1 -37 -3t-47 -7q-21 -4 -36.5 -6.5t-30.5 -5.5t-32 -6.5t-40 -9.5t-55.5 -14.5t-78.5 -21.5
q-2 -25 -6.5 -65t-9.5 -83.5t-10.5 -85.5t-9.5 -71q-1 -14 -3.5 -40.5t-4.5 -57t-3 -60t1 -49.5z" />
    <glyph glyph-name="Delta" unicode="&#x394;" horiz-adv-x="615" 
d="M314 676q0 14 9.5 21.5t21.5 7.5q7 0 9 -1h4q11 0 20.5 -6t9.5 -20q0 -7 -3.5 -12t-4.5 -6q7 -30 19 -75t26 -98t29.5 -110t30.5 -109t29.5 -95.5t26.5 -69.5q13 4 28 8t30 7q13 -1 23 -8t10 -21t-12 -24.5t-23 -10.5h-6q-7 -2 -12 -5q-2 -17 -14.5 -26t-21.5 -9
q-14 0 -27 11q-110 -27 -214 -47.5t-215 -33.5h1q-8 -5 -18 -5q-23 0 -31 11.5t-8 22.5t10 21q5 27 22.5 74t41 104t50.5 118t51 115q29 64 45.5 104.5t26.5 68t17.5 48t18.5 45.5v5zM221 285q-6 -14 -21.5 -48t-33.5 -75t-34.5 -82.5t-24.5 -71.5q91 14 183 30t194 43
q-13 27 -24.5 60t-22 69t-20 72.5t-18.5 70.5q-1 4 -7 27t-14 55.5t-18 68.5t-19 66l-1 -2q-28 -69 -59 -141.5t-60 -141.5z" />
    <glyph glyph-name="Theta" unicode="&#x398;" horiz-adv-x="672" 
d="M24 257q2 70 23 142t54.5 130t75.5 94.5t86 36.5t67 -13t32 -23q51 -12 101.5 -31t91 -49.5t65 -74.5t23.5 -105q-1 -47 -18 -93t-45.5 -88.5t-67 -79t-82.5 -63t-91 -41t-93 -13.5q-58 1 -100 22.5t-69.5 58.5t-40.5 85.5t-12 104.5zM311 573q-33 10 -60.5 6t-62.5 -35
q-25 -22 -41 -45t-27.5 -51t-19.5 -61t-17 -75q17 9 28 15.5t19.5 11t14.5 7.5t13 5q32 12 81 26.5t106 27.5t116 22.5t111 11.5q-30 47 -71 74t-79.5 40.5t-69.5 16.5t-41 3zM182 300q-28 -10 -49.5 -22.5t-52.5 -26.5q0 -43 7.5 -79.5t26 -63.5t49 -42.5t76.5 -16.5
q61 -2 122.5 28t111.5 77t81.5 106t33.5 116q-49 -1 -107 -8.5t-114 -18.5t-105 -24t-80 -25z" />
    <glyph glyph-name="Lambda" unicode="&#x39b;" horiz-adv-x="544" 
d="M316 706q23 0 29.5 -14.5t11.5 -38.5q4 -13 13.5 -50t22 -85t27 -103t27.5 -104.5t23.5 -89t15.5 -56.5q4 -14 10.5 -35.5t12.5 -46t10.5 -49t4.5 -45.5q0 -29 -10 -42t-28 -13q-23 0 -32 19t-13 38q1 17 12 26q-2 12 -9.5 43.5t-19.5 74.5t-26 95t-29 105.5t-29 104.5
t-24 94q-33 -68 -59 -125.5t-50 -112t-47.5 -109.5t-49.5 -118q-4 -8 -7 -17.5t-7 -17.5q2 -1 1.5 -4.5t-0.5 -5.5q0 -20 -11.5 -32t-26.5 -12q-12 0 -21 7.5t-11 22.5q0 1 0.5 2t0.5 4q4 21 15.5 52.5t27 69t34 79t37.5 82.5q19 42 39 87t39.5 90t37.5 89.5t32 86.5
q0 3 -2.5 8t-2.5 9q1 14 10.5 25.5t20.5 11.5z" />
    <glyph glyph-name="Xi" unicode="&#x39e;" horiz-adv-x="621" 
d="M588 608q-27 -1 -53 -1.5t-51 -0.5q-49 0 -98 -3q-99 -5 -202 -31q-24 -7 -46.5 -10.5t-44.5 -2.5q-17 0 -25 10t-7 22q0 14 8 23.5t25 8.5q32 -2 62.5 9t59.5 19q10 2 19 4t18 3q45 6 85.5 10.5t80 7.5t80.5 5t88 3q19 0 28.5 -11t10.5 -26q0 -15 -9 -26.5t-29 -12.5z
M490 345q-40 2 -73 0t-63.5 -7t-62.5 -12t-71 -15q-23 -5 -40 -11t-40 -11q-17 -3 -27 5t-12 20t4 23.5t22 15.5q23 5 39.5 11t39.5 11q42 9 76 17.5t67 15.5q34 7 67.5 11t75.5 3q20 -1 29 -12.5t9 -26.5q0 -16 -10 -27t-30 -11zM555 51q-118 4 -225.5 -12.5t-219.5 -55.5
q-41 -16 -94 -17q-17 -1 -25 8.5t-8 21.5q-1 14 6.5 23.5t23.5 9.5q34 1 64.5 13t61.5 23q9 3 18.5 6t19.5 5q53 10 99 20t91 17t91 11t99 2q20 -1 29 -13t8 -26q-1 -15 -10.5 -26t-28.5 -10z" />
    <glyph glyph-name="Pi" unicode="&#x3a0;" horiz-adv-x="694" 
d="M554 637q1 -4 1 -8v-9q0 -27 -4.5 -62.5t-10.5 -68.5t-11 -59t-6 -35q-3 -21 -8.5 -57t-10.5 -79t-8.5 -88.5t-3.5 -85.5q0 -24 1.5 -43.5t6.5 -32.5q2 -5 5.5 -13t3.5 -16q0 -9 -9.5 -19t-35.5 -10q-10 0 -16 5t-9.5 12t-4.5 15t-1 13q0 -1 0 11.5t0.5 34t1 48t1 52.5
t1.5 49.5t3 37.5l17 151q1 13 6 47.5t11 74.5t12.5 77t11.5 54q-52 -5 -87.5 -9.5t-66.5 -9.5t-64.5 -12.5t-82.5 -18.5q3 -33 0.5 -72.5t-7 -77t-9 -68t-7.5 -45.5q-9 -75 -20 -146.5t-13 -146.5v-28q0 -23 -7.5 -31.5t-19.5 -8.5q-9 0 -21.5 5t-14.5 22q-2 13 -0.5 35
t4 47.5t6.5 53t7.5 52t6.5 43t5 27.5q1 6 3.5 29t6 54t6.5 67t4.5 69.5t2 60.5t-2.5 40q-60 -15 -82.5 -22t-26.5 -7q-10 0 -16 7t-6 17q0 7 3.5 13.5t11.5 11.5q17 9 47.5 19t68 19.5t79 19t80 17t70.5 12.5t52 7q28 3 69 8.5t83.5 10.5t80 9t58.5 4q14 0 21 -8.5t7 -19.5
q0 -18 -16 -26.5t-40.5 -12t-55.5 -4t-61 -2.5z" />
    <glyph glyph-name="Sigma" unicode="&#x3a3;" horiz-adv-x="699" 
d="M739 50q-4 -14 -16 -22.5t-29 -3.5q-30 8 -71.5 12t-89.5 4t-98 -2.5t-97 -6t-88 -8.5t-71 -10q-42 -7 -87.5 -15t-88.5 -13q-13 -2 -21.5 4.5t-11 16.5t1 21t15.5 18q3 14 8 21q28 39 58.5 83t66.5 89.5t77.5 90.5t90.5 86q-30 14 -47.5 21.5t-32.5 15.5
q-39 22 -71 45.5t-72 48.5q-19 13 -14 31t22 26q20 9 39.5 13t40.5 9q45 10 83.5 17.5t75.5 14t76 12.5t85 13q11 2 24 7.5t30 13.5q11 2 18.5 -1.5t12 -9.5t6.5 -13t2 -13q0 -32 -38 -38q-43 -7 -86.5 -13t-89 -13t-94.5 -16t-103 -23q26 -15 47 -27t40 -21.5l36 -18
l35 -17.5q22 -10 42 -21t37 -26q12 -10 12.5 -23.5t-7 -23.5t-21.5 -13t-31 7q-37 -28 -71 -64t-66 -78t-64.5 -86t-74.5 -101q20 5 33.5 8t23.5 5.5t17.5 4t14.5 2.5q46 7 87 13t82.5 11t85 8t94.5 4q11 1 24 1h27q42 0 84 -2t71 -10q18 -5 24 -18t2 -27z" />
    <glyph glyph-name="Iotadieresis" unicode="&#x3aa;" 
d="M254 737q-11 0 -23.5 10t-14.5 31q-2 22 4 29t20 9q12 2 25 -3.5t15 -28.5q3 -29 -7.5 -38t-18.5 -9zM74 737q-11 0 -23 10t-14 31q-2 22 4 29t20 9q12 2 25 -3.5t15 -28.5q2 -29 -8 -38t-19 -9zM148 297q-7 -58 -10.5 -117.5t-3.5 -119.5q12 -18 16 -31t2 -22t-7 -14
t-11 -7q-16 -7 -33.5 -2t-23.5 19q-2 6 -2.5 32.5t1.5 68.5q1 41 4 93t7 107t9.5 110t11 102.5t11 84.5t11.5 56q6 21 17.5 30t37.5 0q13 -4 13 -31t-7 -69q-11 -76 -23 -146.5t-20 -143.5z" />
    <glyph glyph-name="Alpha" unicode="&#x391;" horiz-adv-x="614" 
d="M525 -51q-11 0 -21.5 5.5t-10.5 21.5q-1 36 -8 72t-16 72t-18.5 71.5t-16.5 69.5q-40 -4 -72 -7.5t-62.5 -9t-62 -15t-70.5 -26.5q-14 -22 -31.5 -55t-35 -68.5t-32.5 -69t-22 -57.5q-8 -24 -31 -24q-13 0 -23.5 7.5t-9.5 21.5q1 15 12 44.5t26 62.5t30.5 63t25.5 46
q-14 0 -22 9.5t-7 21.5q1 11 8.5 17t18.5 10t24 7t25 9q51 81 96 163.5t96 163.5q5 8 10.5 18t10 20t8.5 17.5t7 10.5l-2 5q-3 8 -2 14q1 13 12 21t24 8q15 0 26.5 -18.5t19 -44.5t13 -54t8.5 -47q18 -106 39 -208t49 -205q8 -30 15.5 -65t5.5 -71q-2 -13 -12 -19.5
t-22 -7.5zM220 287q49 16 100.5 22t102.5 11q-10 60 -21 118.5t-25 118.5l-22 -34l-22 -34q-32 -49 -55.5 -95t-51.5 -95z" />
    <glyph glyph-name="Beta" unicode="&#x392;" horiz-adv-x="624" 
d="M38 -88q-14 0 -20 7.5t-6 18.5t9.5 21t23.5 10h19q-1 1 -1 19q0 20 2 57t6 84.5t9 102t11.5 108.5t13.5 104.5t15 90.5q-20 9 -25.5 19t-5.5 21q0 14 10 24.5t29 21.5q8 18 15.5 31.5t26.5 13.5q9 0 17 -5t14 -19q68 24 131 40.5t103 16.5q21 0 46 -5t46.5 -16.5
t36.5 -31t15 -49.5q0 -46 -40.5 -85.5t-126.5 -85.5q39 -14 71 -32.5t55.5 -42t36.5 -51t13 -59.5q0 -53 -25.5 -98.5t-68.5 -82t-99 -64.5t-117.5 -46.5t-123.5 -28t-116 -9.5zM336 380q-4 0 -7 1.5t-10 4.5q-59 -23 -102.5 -38.5t-66.5 -20.5q-2 -18 -5 -47.5t-5.5 -61
t-5 -61t-3.5 -46.5l-1 -17q-2 -26 0.5 -49t0.5 -47v-24q66 10 137 32t129 54.5t95.5 75.5t37.5 96q0 30 -18 55.5t-46 44.5t-62.5 31t-67.5 17zM427 642q-23 0 -52 -5.5t-61 -14.5t-65 -20.5t-64 -23.5q-8 -45 -14 -92t-14 -101q33 11 72.5 25.5t80 31t78 34.5t67 36.5
t47 37t17.5 36.5q0 26 -24.5 41t-67.5 15z" />
    <glyph glyph-name="Epsilon" unicode="&#x395;" horiz-adv-x="642" 
d="M623 661q-5 -1 -9.5 -1.5t-10.5 0.5q-6 0 -13 1t-15 0q-16 1 -35.5 0.5t-45.5 -5.5q-28 -6 -52.5 -11t-57 -13t-78.5 -21t-117 -36q-9 -48 -21.5 -94t-27.5 -106q48 16 98 31.5t95 23.5q28 5 57.5 8.5t55 5t43.5 0t24 -5.5q9 -7 8.5 -15t-6 -15t-14 -12t-14.5 -7
q-10 -2 -19.5 -2.5t-19.5 -0.5q-40 0 -84 -8t-87 -21t-83 -29.5t-71 -32.5l-11 -53q-2 -13 -4.5 -25t-2.5 -20q0 -28 4 -55t16 -48.5t33 -34.5t56 -13q13 0 43.5 7t70 18.5t82 24.5t81 25.5t67 22.5t38.5 14q18 7 30.5 -0.5t17.5 -20t0 -26.5t-22 -21q-20 -7 -51 -16
t-64.5 -18.5t-65 -18.5t-51.5 -15q-48 -16 -87.5 -29t-88.5 -13q-45 0 -77 13.5t-52 37.5t-29 57.5t-9 73.5q0 58 16 116q-21 18 -20 34q2 11 5 16.5t11 11.5q3 2 6.5 4t10.5 7q5 24 12 62t13.5 77.5t13 76t10.5 59.5q2 10 7 26.5t18 20.5q17 5 27 -4.5t17 -32.5
q14 3 38.5 9.5t56 14.5t67.5 16.5t72 15.5q39 8 73.5 14t62 9t46 2.5t24.5 -5.5q17 -14 13 -30t-24 -21z" />
    <glyph glyph-name="Zeta" unicode="&#x396;" horiz-adv-x="626" 
d="M197 564q-14 4 -20.5 14t-6.5 21t6.5 20.5t20.5 14.5q46 1 91 7t90 13.5t90.5 15t91.5 11.5q12 -2 20.5 -10t10.5 -19t-2.5 -22t-18.5 -17q-19 -9 -50.5 -42.5t-66.5 -75.5q-47 -56 -82 -101.5t-67.5 -88.5t-66.5 -87.5t-77 -96.5q39 8 82.5 11.5t88.5 4.5t89 -1t82 -5
q19 -2 29 -2t17.5 -0.5t15.5 -1.5t25 -3q12 -2 18.5 -12.5t6 -22.5t-10 -22t-30.5 -11q-26 -1 -55.5 4.5t-56.5 7.5q-46 2 -92 3.5t-92 -1t-91 -10.5t-90 -24q-14 -9 -26.5 -16.5t-26.5 -5.5q-16 5 -24 17t-1 35q22 31 51.5 53.5t52.5 51.5q46 59 84 110.5t76 102t80 103
t97 112.5q-66 -11 -131 -22t-131 -13z" />
    <glyph glyph-name="Eta" unicode="&#x397;" horiz-adv-x="697" 
d="M198 655q12 9 31 9q12 0 21.5 -4.5t9.5 -15.5q0 -8 -9 -18q-2 -5 -11 -25t-20 -49q-17 -45 -28.5 -91t-19.5 -94q80 11 160 17.5t160 10.5q5 40 10 80.5t13 81.5q8 32 14.5 66.5t22.5 66.5q14 11 34 11q11 0 20 -5.5t9 -16.5q0 -10 -5.5 -19t-7.5 -19q-14 -63 -22.5 -123
t-16.5 -120q16 1 31 1h31q11 0 22 -5t11 -17q-4 -29 -38 -29h-63q-8 -75 -10.5 -151.5t-2.5 -157.5q0 -14 1.5 -26.5t1.5 -26.5q0 -17 -12 -23t-23 -6q-20 0 -29.5 10.5t-9.5 23.5l3 10q0 5 -0.5 9t-0.5 9q0 44 1 87.5t2 87.5q1 73 9 150q-8 -1 -43 -2.5t-83 -4.5t-101 -8
t-95 -12q-9 -73 -13 -146.5t-4 -145.5q0 -8 0.5 -16t2.5 -19q0 -21 -11.5 -31t-27.5 -10q-15 0 -22 9t-9.5 22.5t-1.5 29t1 28.5q0 63 3.5 129t10.5 132q-3 -1 -5.5 -1.5t-6.5 -0.5q-14 0 -23.5 6.5t-9.5 15.5q0 11 14.5 20t39.5 14q4 26 9.5 52t10.5 51q3 11 10 39.5
t17.5 60.5t23 60t24.5 39z" />
    <glyph glyph-name="Iota" unicode="&#x399;" 
d="M154 297q-7 -58 -10.5 -117.5t-3.5 -119.5q12 -18 16 -31t2 -22t-7 -14t-11 -7q-16 -7 -33.5 -2t-23.5 19q-2 6 -2.5 32.5t1.5 68.5q1 41 4 93t7 107t9.5 110t11 102.5t11 84.5t11.5 56q6 21 17.5 30t37.5 0q13 -4 13 -31t-7 -69q-11 -76 -23 -146.5t-20 -143.5z" />
    <glyph glyph-name="Kappa" unicode="&#x39a;" horiz-adv-x="585" 
d="M519 519q-22 -5 -40.5 -10t-25.5 -7q-30 -9 -64.5 -24t-74 -32.5t-83 -36.5t-91.5 -36q29 -12 67.5 -34.5t75 -45.5t65.5 -43t38 -27q34 -24 59 -42.5t46.5 -35t41.5 -33t44 -37.5q16 -15 16.5 -27.5t-8.5 -20.5t-22.5 -9.5t-24.5 5.5q-28 20 -47.5 35.5t-37.5 31
t-39.5 34t-53.5 43.5q-10 8 -39.5 28t-64.5 44q-35 23 -69 45t-62 36q-2 -26 -6 -66.5t-7.5 -82t-5 -78t1.5 -55.5q1 -11 4 -27t0 -27q-2 -7 -7 -13t-29 -6q-17 0 -26 18t-12.5 49.5t-2.5 73t6 89.5q3 33 6.5 66t7.5 67q9 73 21.5 141.5t25.5 122t25.5 87t21.5 36.5
q14 6 25.5 3t18.5 -11.5t9 -20t-2 -23.5q-13 -39 -20.5 -59t-14.5 -37q-3 -9 -5.5 -18.5t-5.5 -23.5t-6.5 -33.5t-7.5 -48.5q18 7 45.5 18.5t59.5 24.5t65 26t62 24.5t51 20t33 11.5q29 8 56 14t54 9q9 1 16.5 -4.5t10.5 -13.5t0 -18t-15 -18q-6 -3 -22.5 -8t-36.5 -10z" />
    <glyph glyph-name="Mu" unicode="&#x39c;" horiz-adv-x="794" 
d="M730 -89q-3 -6 -11 -10t-18 -4.5t-19 3t-14 12.5q-11 24 -11 96q-1 36 -5.5 80t-4.5 86q0 41 -1.5 82t-5.5 75t-11 58t-18 31q-17 10 -34.5 -7.5t-34 -51t-31.5 -77t-27 -85.5t-20.5 -75.5t-12.5 -47.5q-6 -22 -10 -35.5t-8 -20.5t-7.5 -8.5t-8.5 -0.5q-23 6 -34 20
t-13 40q-6 79 -4.5 167t-0.5 169q-1 23 -1 44v41t-0.5 38.5t-1.5 34.5q-1 32 -4 53t-9 26q-8 5 -16 -0.5t-16 -16.5q-5 -5 -8.5 -11.5t-8.5 -13.5l-15 -26q-22 -39 -41.5 -95.5t-35 -120.5t-27.5 -130.5t-20 -126.5t-11 -108t-1 -75q1 -10 0.5 -15t-9.5 -12q-9 -8 -24.5 -8
t-26.5 4q-4 1 -7 2.5t-4.5 5.5t-2 12.5t-0.5 25.5q0 23 1.5 57t3.5 72.5t5 79t6 77.5q2 25 6 63t8.5 81t10 87t10.5 80t9.5 61t7.5 30q8 14 19 13.5t22 -5.5q10 -6 9 -39q0 -16 -1.5 -37.5t-3.5 -50.5q50 123 91 177.5t60 54.5q15 0 35 -8.5t30 -26.5q7 -14 14.5 -119.5
t13.5 -321.5q36 90 61 138t44 71q13 15 26.5 22.5t31.5 12.5q5 2 11 2.5t11 1.5q12 2 23.5 -7t21 -23.5t17 -31.5t10.5 -30q4 -18 8 -54t7.5 -80t7 -91t5.5 -87.5t3.5 -69t1.5 -35.5q-1 -15 2.5 -28.5t7.5 -27.5q6 -19 -2 -32z" />
    <glyph glyph-name="Phi" unicode="&#x3a6;" horiz-adv-x="696" 
d="M342 69q0 -20 8 -34.5t8 -25.5q0 -12 -4 -18.5t-10 -10t-12 -4.5t-10 -1q-17 0 -27 9t-10 31q0 9 0.5 22.5t0.5 32.5q-31 -7 -58 -11t-51 -4q-45 0 -77.5 13.5t-53 35t-30 49.5t-9.5 58q0 60 30 128t77.5 129.5t106 108t115.5 63.5q7 50 16 69.5t30 19.5q8 0 18 -4.5
t10 -27.5q0 -11 -1.5 -25t-3.5 -32q26 -6 38 -13.5t18 -13.5q117 -20 168 -64t51 -114q0 -8 -0.5 -14.5t-1.5 -14.5q-4 -33 -30.5 -76t-71 -87t-103.5 -84.5t-129 -68.5zM385 569q-9 -65 -15.5 -118t-11.5 -102.5t-7.5 -99.5t-3.5 -107q62 29 112 66t85.5 75.5t54.5 74.5
t19 63q0 42 -24 70t-59.5 45t-76 24.5t-73.5 8.5zM195 107q21 0 44 4t49 11l6 107q2 40 5.5 84t7.5 88t8.5 87t8.5 82q-21 -4 -33.5 -8t-22.5 -10q-46 -29 -82.5 -70.5t-61.5 -87t-38 -91t-13 -82.5q0 -59 34 -86.5t88 -27.5z" />
    <glyph glyph-name="Upsilondieresis" unicode="&#x3ab;" horiz-adv-x="480" 
d="M321 680q-11 0 -22 10t-13 31q-2 22 3 29t19 9q11 2 23 -3.5t14 -28.5q2 -29 -7 -38t-17 -9zM152 680q-11 0 -22 10t-13 31q-2 22 3 29t19 9q11 2 23.5 -3.5t14.5 -28.5q2 -29 -7.5 -38t-17.5 -9zM35 562q-3 7 -3 12q0 11 9 17t21 6q11 0 20 -5t16.5 -13t14 -17.5
t12.5 -18.5q33 -44 64 -96.5t59 -111.5q29 82 67.5 160t86.5 154h-1q14 11 33 11q11 0 19.5 -5.5t8.5 -18.5q0 -5 -1 -8v1q-106 -170 -164 -357.5t-60 -387.5q-3 -6 -11 -13.5t-15 -11.5l-8 -1q-9 0 -15 3.5t-9.5 8.5t-5.5 10t-2 8q0 93 14 186t40 183q-3 2 -5.5 2.5
t-4.5 2.5q-20 57 -54 115t-69 109q-15 21 -30.5 38.5t-26.5 37.5z" />
    <glyph glyph-name="Psi" unicode="&#x3a8;" horiz-adv-x="675" 
d="M335 14q-1 -16 -11 -23.5t-22 -7t-21.5 9t-9.5 24.5q0 12 1.5 34.5t2.5 49t2.5 51.5t1.5 41q-49 7 -87.5 22t-61.5 41q-19 22 -33 54t-23 67t-13 69.5t-4 63.5q0 31 1 49t3.5 33t5 32t5.5 47q5 27 29 22q11 -1 18 -7.5t5 -19.5q-3 -30 -4.5 -47.5t-1.5 -33.5v-34v-48
q0 -27 4.5 -57.5t13 -58.5t19.5 -52.5t24 -39.5q17 -19 42.5 -27.5t60.5 -13.5q4 69 8 124.5t7.5 106.5t7.5 102.5t9 113.5q1 13 9.5 18.5t18.5 4.5t17.5 -8t6.5 -19q-5 -60 -7.5 -111l-5 -102t-4 -106t-4.5 -124q50 12 86.5 39t62.5 63t42.5 78t26 84t14 81t6.5 69
q1 16 11.5 23.5t24.5 6.5q13 -1 22.5 -9.5t8.5 -24.5q-3 -47 -10 -98t-20.5 -101t-35.5 -95.5t-55.5 -82.5t-79.5 -62t-107 -33z" />
    <glyph glyph-name="Omega" unicode="&#x3a9;" horiz-adv-x="696" 
d="M367 649q17 0 35 -1.5t38 -5.5q62 -11 103 -29.5t66 -45.5t35 -62.5t10 -80.5q0 -28 -19.5 -73.5t-52 -95.5t-73.5 -97.5t-83 -80.5q20 1 33 1.5t20 0.5h23q6 0 26.5 0.5t42.5 -2t39 -11t17 -26.5q0 -14 -8.5 -25t-23.5 -11q-4 0 -12 2q-16 5 -32 6t-33 1q-32 0 -59.5 -1
t-53.5 -2.5t-52.5 -3.5t-55.5 -5q-17 0 -26 8.5t-9 22.5q0 9 5 17.5t16 12.5q29 10 62 33t65 54t61.5 67t51.5 73t35.5 72.5t13.5 64.5q0 53 -21.5 85t-52.5 49t-65 22t-58 5q-47 0 -77.5 -6t-50.5 -22q-27 -23 -56 -67t-53 -97.5t-39.5 -109t-15.5 -100.5q0 -25 5 -46
t16 -37.5t28 -26.5t42 -13l9 2q3 1 9 1q11 0 18.5 -8t7.5 -24q0 -11 -3 -16.5t-9 -9t-15 -6t-21 -6.5q-32 -3 -58 -4.5t-51 -2.5t-51.5 -3t-58.5 -6q-2 0 -3 -0.5t-2 -0.5q-12 0 -18.5 9.5t-6.5 20.5t12.5 16.5t33.5 9.5t47.5 6.5t55.5 7.5q-26 25 -38.5 60.5t-12.5 78.5
q0 46 12.5 96.5t34 100t50.5 96.5t63 85q34 39 78.5 61.5t109.5 22.5z" />
    <glyph glyph-name="alphatonos" unicode="&#x3ac;" horiz-adv-x="391" 
d="M265 113q-46 -61 -85.5 -92.5t-74.5 -31.5q-21 0 -34.5 11t-21.5 27.5t-11.5 35.5t-3.5 35q0 40 4 68.5t13 56.5q7 21 24 56t40.5 68.5t51.5 58t57 24.5q19 0 34.5 -13.5t13.5 -25.5q-2 -14 -8 -19.5t-11 -7.5h-5q-5 0 -8 1q-5 0 -10 0.5t-10 0.5q-7 -1 -18 -7t-22 -17
q-45 -45 -71 -103t-25 -121q0 -21 6 -32.5t15.5 -15.5t21.5 -1.5t23 9.5q19 12 36.5 30.5t32.5 40t27 44t20 42.5q10 40 16 76l8 48q2 9 11 15t19 6.5t17.5 -7t5.5 -25.5q-4 -31 -12 -61t-10 -61q-3 -42 -1 -83t10 -68q2 -6 3 -11t6 -13q20 -1 27 -10.5t5.5 -20t-9.5 -19.5
t-18 -9q-31 0 -49.5 28.5t-29.5 92.5zM348 599q-10 -3 -19.5 -14.5t-17.5 -25.5t-14.5 -29.5t-11.5 -25.5q-6 -14 -17.5 -17t-22 1.5t-16 15t0.5 24.5t18.5 31t27.5 32t30.5 27t28.5 17q9 3 15.5 -1t9 -11t0 -14t-11.5 -10z" />
    <glyph glyph-name="Nu" unicode="&#x39d;" horiz-adv-x="586" 
d="M346 338q17 -36 40.5 -78t43.5 -82v7q0 10 1 12q2 34 5.5 81t8 97t9 97t9.5 81q3 23 7 47.5t6 48.5q-6 6 -6 17q0 13 11.5 24.5t30.5 11.5q13 0 22.5 -7t13.5 -21q0 -31 -5 -63.5t-10 -62.5q-5 -33 -10 -80.5t-9.5 -97.5t-8 -97t-5.5 -81q-1 -13 -2.5 -44t-3 -64.5
t-4 -63.5t-4.5 -40q-14 -19 -34 -19q-11 0 -20.5 5.5t-14.5 17.5q-10 60 -36 126.5t-56 126.5q-35 69 -70.5 138.5t-73.5 138.5q-26 -127 -42 -255t-16 -259q0 -15 0.5 -30t0.5 -30q-2 -14 -12.5 -21t-21.5 -7q-25 0 -36 23v7q0 14 -0.5 27.5t-0.5 27.5q0 147 19.5 291
t50.5 286q2 7 6.5 11.5t9.5 7.5q-11 27 -22.5 52.5t-11.5 44.5q0 17 10.5 22.5t24.5 5.5q12 0 22.5 -6.5t10.5 -20.5q0 -4 11 -28t28 -58.5t37 -75.5t39.5 -79t35 -68.5t22.5 -43.5z" />
    <glyph glyph-name="Omicron" unicode="&#x39f;" horiz-adv-x="708" 
d="M285 -19q-65 0 -110 35t-72 89.5t-36 121.5t-2 132q4 37 13 71t23 63t33 51.5t42 35.5q43 25 72 27t41 -2q66 35 115.5 53t88.5 18q46 0 78 -21t50.5 -54t25 -73.5t2.5 -80.5q-5 -49 -21 -102.5t-40.5 -105.5t-57.5 -99t-71.5 -83t-82.5 -56.5t-91 -19.5zM241 514
q-6 -8 -9.5 -15l-6.5 -13q-4 -7 -7 -12t-7 -9q-6 -8 -17 -10.5t-37 2.5q-11 -30 -18 -60.5t-10 -60.5q-6 -59 3 -111.5t30 -92.5t52 -64t69 -25q39 -1 75 16.5t68 47.5t59 70t47.5 84t34 89t18.5 86q3 33 -0.5 65t-17 58.5t-38 43t-62.5 17.5q-34 1 -69.5 -12t-66.5 -31
t-55 -36t-35 -27z" />
    <glyph glyph-name="Rho" unicode="&#x3a1;" horiz-adv-x="570" 
d="M168 325q-4 -40 -5.5 -86t-1 -89.5t2.5 -80t5 -57.5q1 -7 4 -13t6 -11q6 -8 5 -12q-3 -12 -10.5 -22t-17 -16t-19 -7.5t-16.5 2.5q-7 3 -11 22q-2 9 -3 18t-2 15q-3 22 -5 59t-3 80.5t0.5 90t5.5 88.5q-29 -10 -39.5 -4t-12.5 17q-1 11 6.5 22.5t23.5 16.5q4 2 9.5 3.5
t19.5 5.5q15 114 33 179q3 11 7.5 24t15.5 41q-34 -15 -51.5 -25t-31.5 -22q-14 -11 -25.5 -10.5t-18.5 8.5q-8 8 -6 20.5t16 23.5q36 30 76 47.5t80 26t79.5 10.5t75.5 2q20 0 46 -0.5t52 -3t49.5 -9.5t40 -20t22.5 -33.5t-3 -50.5q-13 -48 -54 -86t-97 -68t-121.5 -53.5
t-126.5 -42.5zM439 630q-14 2 -27.5 3.5t-27.5 1.5h-40q-26 0 -50.5 -2.5t-59.5 -8.5q-10 -24 -17 -42.5t-12 -35.5q-8 -27 -15 -66t-15 -93q54 18 109.5 39.5t102 45.5t79 50t39.5 53q6 22 -14 36t-52 19z" />
    <glyph glyph-name="Tau" unicode="&#x3a4;" horiz-adv-x="623" 
d="M25 527q-32 8 -32 30q0 13 12 20t29 11.5t37 7t36 6.5q37 9 87.5 18.5t103.5 17.5t103.5 13.5t86.5 5.5q14 0 35.5 -2.5t41.5 -8.5t34.5 -16t14.5 -26q0 -14 -15 -23t-33 -9q-25 5 -30 17q-27 10 -58 10q-32 0 -67 -4.5t-60 -8.5q-17 -43 -26 -89.5t-17 -90.5
q-4 -30 -11.5 -70.5t-15 -85t-13 -90t-5.5 -86.5q0 -26 3 -51t3 -51q-3 -15 -13 -22.5t-21 -7.5t-20 6t-14 18q-2 26 -5 54t-3 56q0 3 0.5 5.5t0.5 4.5v9q1 18 6 55.5t12 85t15.5 99.5t17 99t16 84.5t12.5 55.5q-13 -2 -27 -4.5t-28 -5.5l-48 -9q-37 -7 -72 -16t-73 -12z
" />
    <glyph glyph-name="Upsilon" unicode="&#x3a5;" horiz-adv-x="465" 
d="M35 562q-3 7 -3 12q0 11 9 17t21 6q11 0 20 -5t16.5 -13t14 -17.5t12.5 -18.5q33 -44 64 -96.5t59 -111.5q29 82 67.5 160t86.5 154h-1q14 11 33 11q11 0 19.5 -5.5t8.5 -18.5q0 -5 -1 -8v1q-106 -170 -164 -357.5t-60 -387.5q-3 -6 -11 -13.5t-15 -11.5l-8 -1
q-9 0 -15 3.5t-9.5 8.5t-5.5 10t-2 8q0 93 14 186t40 183q-3 2 -5.5 2.5t-4.5 2.5q-20 57 -54 115t-69 109q-15 21 -30.5 38.5t-26.5 37.5z" />
    <glyph glyph-name="Chi" unicode="&#x3a7;" horiz-adv-x="508" 
d="M52 576q0 14 9.5 21t20.5 7t21 -6t12 -18q0 -6 12 -28t26.5 -47t27 -45.5t14.5 -22.5q6 -11 12.5 -23.5t14.5 -25.5q24 36 48.5 70.5t50.5 68.5q10 12 27.5 36.5t38 49t39.5 43t32 18.5t22.5 -6t9.5 -18q0 -5 -3.5 -10.5t-8.5 -11t-9.5 -10t-5.5 -7.5q-54 -66 -107 -136
t-100 -145q25 -42 53 -85t58.5 -83t63 -75.5t67.5 -63.5q6 -9 6 -16q0 -11 -10 -16.5t-22 -5.5t-20 4q-68 54 -125 128.5t-106 153.5q-21 -36 -41 -76t-35.5 -80.5t-26 -81.5t-11.5 -80q0 -10 1 -20t3 -20q0 -6 10 -12t10 -16q0 -8 -7.5 -15.5t-24.5 -9.5q-32 0 -44 25
t-12 60q0 18 2.5 36t5.5 34.5t6.5 30t6.5 21.5q23 69 53.5 134.5t68.5 128.5q-13 23 -25 45t-24 42q-5 9 -18.5 30.5t-28 46t-26 47.5t-12.5 35z" />
    <glyph glyph-name="Alphatonos" unicode="&#x386;" horiz-adv-x="614" 
d="M179 628q-17 -6 -27.5 -24.5t-20 -38t-19 -35t-22.5 -15.5q-12 0 -22 8t-10 21t13.5 33t32 39.5t38 33.5t31.5 14q8 0 13.5 -6t5.5 -13q0 -13 -13 -17zM525 -51q-11 0 -21.5 5.5t-10.5 21.5q-1 36 -8 72t-16 72t-18.5 71.5t-16.5 69.5q-40 -4 -72 -7.5t-62.5 -9t-62 -15
t-70.5 -26.5q-14 -22 -31.5 -55t-35 -68.5t-32.5 -69t-22 -57.5q-8 -24 -31 -24q-13 0 -23.5 7.5t-9.5 21.5q1 15 12 44.5t26 62.5t30.5 63t25.5 46q-14 0 -22 9.5t-7 21.5q1 11 8.5 17t18.5 10t24 7t25 9q51 81 96 163.5t96 163.5q5 8 10.5 18t10 20t8.5 17.5t7 10.5l-2 5
q-3 8 -2 14q1 13 12 21t24 8q15 0 26.5 -18.5t19 -44.5t13 -54t8.5 -47q18 -106 39 -208t49 -205q8 -30 15.5 -65t5.5 -71q-2 -13 -12 -19.5t-22 -7.5zM220 287q49 16 100.5 22t102.5 11q-10 60 -21 118.5t-25 118.5l-22 -34l-22 -34q-32 -49 -55.5 -95t-51.5 -95z" />
    <glyph glyph-name="Epsilontonos" unicode="&#x388;" horiz-adv-x="642" 
d="M623 661q-5 -1 -9.5 -1.5t-10.5 0.5q-6 0 -13 1t-15 0q-16 1 -35.5 0.5t-45.5 -5.5q-28 -6 -52.5 -11t-57 -13t-78.5 -21t-117 -36q-9 -48 -21.5 -94t-27.5 -106q48 16 98 31.5t95 23.5q28 5 57.5 8.5t55 5t43.5 0t24 -5.5q9 -7 8.5 -15t-6 -15t-14 -12t-14.5 -7
q-10 -2 -19.5 -2.5t-19.5 -0.5q-40 0 -84 -8t-87 -21t-83 -29.5t-71 -32.5l-11 -53q-2 -13 -4.5 -25t-2.5 -20q0 -28 4 -55t16 -48.5t33 -34.5t56 -13q13 0 43.5 7t70 18.5t82 24.5t81 25.5t67 22.5t38.5 14q18 7 30.5 -0.5t17.5 -20t0 -26.5t-22 -21q-20 -7 -51 -16
t-64.5 -18.5t-65 -18.5t-51.5 -15q-48 -16 -87.5 -29t-88.5 -13q-45 0 -77 13.5t-52 37.5t-29 57.5t-9 73.5q0 58 16 116q-21 18 -20 34q2 11 5 16.5t11 11.5q3 2 6.5 4t10.5 7q5 24 12 62t13.5 77.5t13 76t10.5 59.5q2 10 7 26.5t18 20.5q17 5 27 -4.5t17 -32.5
q14 3 38.5 9.5t56 14.5t67.5 16.5t72 15.5q39 8 73.5 14t62 9t46 2.5t24.5 -5.5q17 -14 13 -30t-24 -21zM27 628q-11 -4 -20 -15.5t-17 -25.5t-14.5 -29t-11.5 -26q-6 -14 -17.5 -16.5t-22 2t-16 15t0.5 24.5t18.5 31t27.5 32.5t30.5 27t28.5 15.5q9 3 15.5 -1t9 -10.5
t0 -13.5t-11.5 -10z" />
    <glyph glyph-name="afii00208" unicode="&#x2015;" horiz-adv-x="1000" 
d="M836 226q-30 0 -86 -1.5t-125.5 -3.5t-145 -4.5t-145 -4.5t-125.5 -3.5t-86 -1.5h-35q-20 0 -31.5 3.5t-18 9t-8.5 11t-2 10.5q1 12 10 20.5t22 5.5q15 -3 28 -3q8 0 16 1.5t19 1.5q30 0 86 2t125.5 4.5t145 6t145 6t125.5 4.5t86 2q24 0 46 -1t48 -1q15 0 23 -10.5
t8 -23.5t-8 -23.5t-23 -10.5q-26 0 -48 2t-46 2z" />
    <glyph glyph-name="Etatonos" unicode="&#x389;" horiz-adv-x="697" 
d="M198 655q12 9 31 9q12 0 21.5 -4.5t9.5 -15.5q0 -8 -9 -18q-2 -5 -11 -25t-20 -49q-17 -45 -28.5 -91t-19.5 -94q80 11 160 17.5t160 10.5q5 40 10 80.5t13 81.5q8 32 14.5 66.5t22.5 66.5q14 11 34 11q11 0 20 -5.5t9 -16.5q0 -10 -5.5 -19t-7.5 -19q-14 -63 -22.5 -123
t-16.5 -120q16 1 31 1h31q11 0 22 -5t11 -17q-4 -29 -38 -29h-63q-8 -75 -10.5 -151.5t-2.5 -157.5q0 -14 1.5 -26.5t1.5 -26.5q0 -17 -12 -23t-23 -6q-20 0 -29.5 10.5t-9.5 23.5l3 10q0 5 -0.5 9t-0.5 9q0 44 1 87.5t2 87.5q1 73 9 150q-8 -1 -43 -2.5t-83 -4.5t-101 -8
t-95 -12q-9 -73 -13 -146.5t-4 -145.5q0 -8 0.5 -16t2.5 -19q0 -21 -11.5 -31t-27.5 -10q-15 0 -22 9t-9.5 22.5t-1.5 29t1 28.5q0 63 3.5 129t10.5 132q-3 -1 -5.5 -1.5t-6.5 -0.5q-14 0 -23.5 6.5t-9.5 15.5q0 11 14.5 20t39.5 14q4 26 9.5 52t10.5 51q3 11 10 39.5
t17.5 60.5t23 60t24.5 39zM57 628q-17 -6 -27.5 -24.5t-20 -38t-19 -35t-22.5 -15.5q-12 0 -22 8t-10 21t13.5 33t32 39.5t38 33.5t31.5 14q8 0 13.5 -6t5.5 -13q0 -13 -13 -17z" />
    <glyph glyph-name="Iotatonos" unicode="&#x38a;" 
d="M59 638q-11 -4 -20 -15.5t-17 -25.5t-14.5 -29t-11.5 -26q-6 -14 -17.5 -16.5t-22 2t-16 15t0.5 24.5t18.5 31t27.5 32.5t30.5 27t28.5 15.5q9 3 15.5 -1t9 -10.5t0 -13.5t-11.5 -10zM154 297q-7 -58 -10.5 -117.5t-3.5 -119.5q12 -18 16 -31t2 -22t-7 -14t-11 -7
q-16 -7 -33.5 -2t-23.5 19q-2 6 -2.5 32.5t1.5 68.5q1 41 4 93t7 107t9.5 110t11 102.5t11 84.5t11.5 56q6 21 17.5 30t37.5 0q13 -4 13 -31t-7 -69q-11 -76 -23 -146.5t-20 -143.5z" />
    <glyph glyph-name="Omicrontonos" unicode="&#x38c;" horiz-adv-x="662" 
d="M77 628q-17 -6 -27.5 -24.5t-20 -38t-19 -35t-22.5 -15.5q-12 0 -22 8t-10 21t13.5 33t32 39.5t38 33.5t31.5 14q8 0 13.5 -6t5.5 -13q0 -13 -13 -17zM285 -19q-65 0 -110 35t-72 89.5t-36 121.5t-2 132q4 37 13 71t23 63t33 51.5t42 35.5q43 25 72 27t41 -2
q66 35 115.5 53t88.5 18q46 0 78 -21t50.5 -54t25 -73.5t2.5 -80.5q-5 -49 -21 -102.5t-40.5 -105.5t-57.5 -99t-71.5 -83t-82.5 -56.5t-91 -19.5zM241 514q-6 -8 -9.5 -15l-6.5 -13q-4 -7 -7 -12t-7 -9q-6 -8 -17 -10.5t-37 2.5q-11 -30 -18 -60.5t-10 -60.5
q-6 -59 3 -111.5t30 -92.5t52 -64t69 -25q39 -1 75 16.5t68 47.5t59 70t47.5 84t34 89t18.5 86q3 33 -0.5 65t-17 58.5t-38 43t-62.5 17.5q-34 1 -69.5 -12t-66.5 -31t-55 -36t-35 -27z" />
    <glyph glyph-name="Upsilontonos" unicode="&#x38e;" horiz-adv-x="465" 
d="M-18 625q-17 -6 -27.5 -24.5t-20 -38t-19 -35t-22.5 -15.5q-12 0 -22 8t-10 21q0 12 13.5 32.5t32 40t38 34t31.5 14.5q8 0 13.5 -6t5.5 -14q0 -13 -13 -17zM35 562q-3 7 -3 12q0 11 9 17t21 6q11 0 20 -5t16.5 -13t14 -17.5t12.5 -18.5q33 -44 64 -96.5t59 -111.5
q29 82 67.5 160t86.5 154h-1q14 11 33 11q11 0 19.5 -5.5t8.5 -18.5q0 -5 -1 -8v1q-106 -170 -164 -357.5t-60 -387.5q-3 -6 -11 -13.5t-15 -11.5l-8 -1q-9 0 -15 3.5t-9.5 8.5t-5.5 10t-2 8q0 93 14 186t40 183q-3 2 -5.5 2.5t-4.5 2.5q-20 57 -54 115t-69 109
q-15 21 -30.5 38.5t-26.5 37.5z" />
    <glyph glyph-name="epsilontonos" unicode="&#x3ad;" horiz-adv-x="355" 
d="M270 599q-10 -3 -19.5 -14.5t-17.5 -25.5t-14.5 -29.5t-11.5 -25.5q-6 -14 -17.5 -17t-22 1.5t-16 15t0.5 24.5t18.5 31t27.5 32t30.5 27t28.5 17q9 3 15.5 -1t9 -11t0 -14t-11.5 -10zM358 144q-21 -37 -47 -64.5t-54 -46t-56.5 -27.5t-53.5 -9q-34 0 -59 13
q-20 10 -39 34t-19 65q0 16 5.5 33.5t15 33.5t21 29.5t23.5 20.5q-24 8 -39 29t-15 43q-1 31 16.5 58t44 47t57.5 32t58 12q9 3 27 1q47 -5 62.5 -21t15.5 -32q0 -10 -6 -18t-14.5 -11t-18.5 0t-18 15l-1 1q-3 2 -5 5q-5 2 -10.5 3t-10.5 2q-11 0 -20 4q-24 0 -46.5 -7
t-39.5 -18.5t-26.5 -27t-8.5 -31.5q2 -32 32 -41.5t72 -1.5q14 3 24.5 -2t9.5 -17q-2 -20 -8 -26t-15 -7q-24 -3 -46 -10.5t-39 -19t-27 -27.5t-10 -36q0 -32 14 -52.5t47 -20.5q19 0 40.5 8t43 23t41 36t34.5 48q8 13 17 19.5t20 1.5q5 -2 9.5 -4t6.5 -8q2 -5 0.5 -14
t-5.5 -17z" />
    <glyph glyph-name="etatonos" unicode="&#x3ae;" horiz-adv-x="384" 
d="M235 334q-14 -8 -28.5 -31t-28 -54t-25.5 -66t-21.5 -67t-15.5 -57.5t-8 -37.5q-2 -15 -12 -22t-21 -6t-19.5 9.5t-7.5 24.5q5 88 11 184t22 184q3 15 14 21t22 4t19 -11t5 -24q-11 -53 -15 -108q7 16 17.5 36.5t25 39t32 31t38.5 12.5t34.5 -14t22 -34t12.5 -41.5
t7 -36.5q11 -57 23.5 -114.5t35.5 -111.5q6 -14 0 -24.5t-16.5 -15t-22 -1.5t-17.5 17q-24 57 -37 117.5t-24 120.5q-4 20 -8 39.5t-14 36.5zM278 599q-10 -3 -19.5 -14.5t-17.5 -25.5t-14.5 -29.5t-11.5 -25.5q-6 -14 -17.5 -17t-22 1.5t-16 15t0.5 24.5t18.5 31t27.5 32
t30.5 27t28.5 17q9 3 15.5 -1t9 -11t0 -14t-11.5 -10z" />
    <glyph glyph-name="iotatonos" unicode="&#x3af;" 
d="M138 123q-2 -23 3 -39q2 -6 4 -13.5t6 -17.5q5 -15 0 -26t-15 -16t-22 -4.5t-20 7.5q-5 4 -10.5 24t-4.5 62q1 35 5 84t6 112q1 13 0.5 33.5t3.5 40.5q8 41 28 42q17 1 31 -12.5t12 -34.5q-2 -10 -6 -44t-9 -73t-8.5 -75t-3.5 -50zM228 599q-10 -3 -19.5 -14.5
t-17.5 -25.5t-14.5 -29.5t-11.5 -25.5q-6 -14 -17.5 -17t-22 1.5t-16 15t0.5 24.5t18.5 31t27.5 32t30.5 27t28.5 17q9 3 15.5 -1t9 -11t0 -14t-11.5 -10z" />
    <glyph glyph-name="omicrontonos" unicode="&#x3cc;" horiz-adv-x="372" 
d="M328 599q-10 -3 -19.5 -14.5t-17.5 -25.5t-14.5 -29.5t-11.5 -25.5q-6 -14 -17.5 -17t-22 1.5t-16 15t0.5 24.5t18.5 31t27.5 32t30.5 27t28.5 17q9 3 15.5 -1t9 -11t0 -14t-11.5 -10zM241 343q-16 0 -32 -5t-30.5 -12.5t-26.5 -15.5t-19 -13q-3 -2 -6 -9q-5 -11 -7 -13
l-4 -4q-5 -5 -13.5 -8t-16.5 -2q-5 -16 -7 -29t-4 -25q-3 -30 1 -56.5t14 -47t24.5 -32t31.5 -11.5q29 0 54 19t44 47.5t32 63t18 66.5q1 15 -0.5 30.5t-7.5 28t-17 20.5t-28 8zM147 -1q-34 0 -58.5 17t-41 44t-24.5 61t-8 67q0 10 0.5 18.5t1.5 16.5q5 40 22 75t45 52
q23 14 40.5 16t26.5 0q35 19 61.5 28.5t47.5 9.5q28 0 47.5 -12.5t31 -32.5t16 -44t2.5 -48q-4 -41 -22 -88t-46 -87.5t-64.5 -67t-77.5 -25.5z" />
    <glyph glyph-name="Omegatonos" unicode="&#x38f;" horiz-adv-x="696" 
d="M87 628q-11 -4 -20 -15.5t-17 -25.5t-14.5 -29t-11.5 -26q-6 -14 -17.5 -16.5t-22 2t-16 15t0.5 24.5t18.5 31t27.5 32.5t30.5 27t28.5 15.5q9 3 15.5 -1t9 -10.5t0 -13.5t-11.5 -10zM367 649q17 0 35 -1.5t38 -5.5q62 -11 103 -29.5t66 -45.5t35 -62.5t10 -80.5
q0 -28 -19.5 -73.5t-52 -95.5t-73.5 -97.5t-83 -80.5q20 1 33 1.5t20 0.5h23q6 0 26.5 0.5t42.5 -2t39 -11t17 -26.5q0 -14 -8.5 -25t-23.5 -11q-4 0 -12 2q-16 5 -32 6t-33 1q-32 0 -59.5 -1t-53.5 -2.5t-52.5 -3.5t-55.5 -5q-17 0 -26 8.5t-9 22.5q0 9 5 17.5t16 12.5
q29 10 62 33t65 54t61.5 67t51.5 73t35.5 72.5t13.5 64.5q0 53 -21.5 85t-52.5 49t-65 22t-58 5q-47 0 -77.5 -6t-50.5 -22q-27 -23 -56 -67t-53 -97.5t-39.5 -109t-15.5 -100.5q0 -25 5 -46t16 -37.5t28 -26.5t42 -13l9 2q3 1 9 1q11 0 18.5 -8t7.5 -24q0 -11 -3 -16.5
t-9 -9t-15 -6t-21 -6.5q-32 -3 -58 -4.5t-51 -2.5t-51.5 -3t-58.5 -6q-2 0 -3 -0.5t-2 -0.5q-12 0 -18.5 9.5t-6.5 20.5t12.5 16.5t33.5 9.5t47.5 6.5t55.5 7.5q-26 25 -38.5 60.5t-12.5 78.5q0 46 12.5 96.5t34 100t50.5 96.5t63 85q34 39 78.5 61.5t109.5 22.5z" />
    <glyph glyph-name="upsilontonos" unicode="&#x3cd;" horiz-adv-x="354" 
d="M203 10q-29 -10 -51.5 -4.5t-39.5 23t-29 46t-20 64.5q-8 35 -12.5 71.5t-6.5 69.5q-1 17 -1.5 32t-0.5 29v25t-1 19q-1 23 9.5 30.5t21.5 5.5q14 -2 25 -12t10 -27q-1 -10 -1 -20.5v-23.5q0 -36 2 -79.5t7 -81.5q3 -25 8 -47t12 -36q8 -15 22 -23t32 10q16 18 27.5 58.5
t19 84t10.5 79.5t3 46q1 25 12 32.5t22 5.5q14 -2 25.5 -12.5t11.5 -29.5q0 -9 -3.5 -35.5t-11 -62t-17.5 -74.5t-23 -73.5t-28.5 -59t-33.5 -30.5zM278 599q-10 -3 -19.5 -14.5t-17.5 -25.5t-14.5 -29.5t-11.5 -25.5q-6 -14 -17.5 -17t-22 1.5t-16 15t0.5 24.5t18.5 31
t27.5 32t30.5 27t28.5 17q9 3 15.5 -1t9 -11t0 -14t-11.5 -10z" />
    <glyph glyph-name="alpha" unicode="&#x3b1;" horiz-adv-x="388" 
d="M105 -11q-21 0 -34.5 11t-21.5 27.5t-11.5 35.5t-3.5 35q0 40 5.5 68.5t14.5 56.5q7 21 23.5 56t39.5 68.5t50.5 58t56.5 24.5q18 0 33 -12.5t15 -23.5q0 -16 -7 -22t-12 -8h-5q-6 0 -13.5 1t-14.5 1q-7 -1 -18 -7t-22 -17q-45 -45 -66.5 -100.5t-21.5 -118.5
q0 -27 10.5 -44t20.5 -17q3 0 19 8.5t37 28.5t44.5 53t42.5 83q9 39 13 66.5t8 45t11 26t23 8.5q9 0 15.5 -6t6.5 -21q0 -32 -10 -64t-12 -64q-1 -13 -1 -22.5v-22.5q0 -54 10 -97.5t27 -70.5q7 -11 7 -22q0 -14 -10.5 -18.5t-21.5 -4.5q-15 0 -25.5 15t-18 38.5t-12.5 51
t-8 51.5q-43 -65 -85.5 -100t-77.5 -35z" />
    <glyph glyph-name="beta" unicode="&#x3b2;" horiz-adv-x="405" 
d="M176 -26q-44 0 -74 46t-30 127q0 25 2.5 52.5t5.5 53.5l3 23l-7 -5q-8 -5 -13 -8t-10 -3q-11 0 -21.5 5.5t-11.5 13.5q0 12 16.5 25t36.5 25l21 13q8 32 14 61.5t12 61.5q3 17 8.5 36t11.5 36.5t13 31.5t14 21q17 17 32.5 32t33 26t39 17.5t49.5 6.5q22 0 37 -6.5t24 -17
t13 -23t4 -25.5q0 -21 -10.5 -44.5t-24.5 -41.5q-48 -57 -102.5 -105t-112.5 -90q0 -7 -1 -14t-3 -18q-3 -24 -6 -56t-3 -72q0 -41 7 -79t32 -57q22 3 42 19.5t36.5 41t30 53t22.5 54.5t14 47t5 30h-11q-17 -4 -31 -13.5t-30 -19.5q-16 -11 -30 -18.5t-25 -7.5t-20.5 5
t-9.5 13q0 13 17 27.5t41.5 27t51 20.5t46.5 8q27 0 46.5 -13t21.5 -47q0 -22 -9 -51t-24.5 -59.5t-36.5 -60.5t-45 -53t-50 -37.5t-51 -14.5zM189 497q-8 -25 -13.5 -49t-10.5 -53l18 14q26 20 49.5 42.5t42.5 44.5q9 10 20 23t21 27t16.5 28.5t6.5 28.5q0 25 -30 25
q-24 0 -45 -17t-37 -39.5t-26 -44.5t-12 -31v1z" />
    <glyph glyph-name="psi" unicode="&#x3c8;" horiz-adv-x="476" 
d="M427 423q1 5 12 14t22 6q12 -2 18.5 -11t6.5 -21q0 -11 -11 -20q-4 -27 -13 -66.5t-23 -84t-35 -89.5t-49 -83q-6 -12 -24.5 -27.5t-31.5 -24.5l-21 -13q-4 -2 -13 -5.5t-24 -8.5q-1 -18 -1.5 -34t-0.5 -30v-31.5t-1 -37.5q-2 -82 0.5 -124t4.5 -47q6 -11 5 -21t-6 -17
t-13 -10.5t-16 -0.5q-23 6 -29 27t4 39q-3 33 -6 60.5t-5 53t-2.5 52t0.5 57.5v32q3 12 -2 15.5t-9 0.5h-2q-36 0 -61.5 20t-41.5 50t-23 64.5t-7 63.5q0 31 2 55t5 47t6.5 47.5t6.5 54.5q2 22 12 28t21.5 3t20.5 -12t9 -18q0 -31 -1.5 -55t-3.5 -47.5t-3.5 -47.5t-1.5 -55
q0 -9 3.5 -30.5t11 -43.5t19 -39t26.5 -17h7q6 0 8 2q7 54 8 87t4 62q2 14 4.5 44t5.5 65.5t7 71t9 60.5q5 22 12 35.5t14 20.5t13.5 9.5t11.5 2.5q11 -2 19 -14t3 -35q-5 -28 -10 -74.5t-10 -101.5t-9.5 -112.5t-8.5 -106.5q12 2 23 10t20 18.5t16 20.5t11 15
q16 22 31.5 48.5t31.5 76.5q8 23 15 47t14 54l7 31q0 14 1 23t7 22z" />
    <glyph glyph-name="delta" unicode="&#x3b4;" horiz-adv-x="372" 
d="M300 613q-11 -1 -15.5 -1t-7 -1t-6 -2t-12.5 -3q-28 -7 -56 -21t-50 -32t-35.5 -37.5t-13.5 -37.5q0 -20 20 -36.5t70 -29.5q32 -8 61 -20.5t51 -33.5t35 -52t13 -76q0 -53 -23 -95.5t-57 -72.5t-73.5 -46.5t-72.5 -16.5q-20 0 -39 10t-33 30t-22.5 48.5t-8.5 66.5
q0 32 11 64t29.5 60.5t43 52t51.5 38.5q-54 21 -88.5 45.5t-34.5 56.5q0 29 17.5 56.5t46.5 51.5q14 12 32 26t39.5 27t46.5 23t54 15q5 4 10.5 7t10.5 3q23 0 34 -11t11 -24q0 -12 -8 -22t-21 -10h-10zM139 52q22 0 42 9t37 22t30 28.5t20 28.5q13 25 21.5 50t8.5 51
q0 14 -2.5 29t-11 30t-23 28.5t-38.5 23.5q-13 -2 -36 -21t-45.5 -48t-39.5 -65t-17 -73q0 -17 2.5 -33.5t8.5 -30t16.5 -21.5t26.5 -8z" />
    <glyph glyph-name="epsilon" unicode="&#x3b5;" horiz-adv-x="355" 
d="M358 144q-21 -37 -47 -64.5t-54 -46t-56.5 -27.5t-53.5 -9q-34 0 -59 13q-20 10 -39 34t-19 65q0 16 5.5 33.5t15 33.5t21 29.5t23.5 20.5q-24 8 -39 29t-15 43q-1 31 16.5 58t44 47t57.5 32t58 12q9 3 27 1q47 -5 62.5 -21t15.5 -32q0 -10 -6 -18t-14.5 -11t-18.5 0
t-18 15l-1 1q-3 2 -5 5q-5 2 -10.5 3t-10.5 2q-11 0 -20 4q-24 0 -46.5 -7t-39.5 -18.5t-26.5 -27t-8.5 -31.5q2 -32 32 -41.5t72 -1.5q14 3 24.5 -2t9.5 -17q-2 -20 -8 -26t-15 -7q-24 -3 -46 -10.5t-39 -19t-27 -27.5t-10 -36q0 -32 14 -52.5t47 -20.5q19 0 40.5 8t43 23
t41 36t34.5 48q8 13 17 19.5t20 1.5q5 -2 9.5 -4t6.5 -8q2 -5 0.5 -14t-5.5 -17z" />
    <glyph glyph-name="phi" unicode="&#x3c6;" horiz-adv-x="539" 
d="M273 -14q-1 -18 -2.5 -31.5t-2.5 -29t-2.5 -35t-2.5 -48.5q-2 -81 0.5 -126t4.5 -50q6 -11 5 -21t-6 -17t-13 -10.5t-16 -0.5q-23 6 -28.5 25.5t-5.5 47.5v60v52t0.5 50.5t2.5 57.5v17.5t0.5 14.5t1.5 15.5t2 20.5q-46 1 -80.5 17t-57.5 41.5t-34.5 56.5t-11.5 62
q0 21 9 51t23 60.5t32.5 57.5t36.5 42q12 10 25.5 9t22.5 -9q8 -8 9 -17t-10 -17q-9 -7 -21.5 -32t-23.5 -54t-18.5 -55t-7.5 -36q0 -24 5.5 -47t18.5 -41t34 -28.5t53 -9.5q2 35 4.5 64t5.5 54q2 14 4 35t5 46t7 52t9 52q9 40 23 60t31.5 26.5t37 2.5t37.5 -11
q27 -9 52 -23.5t44.5 -35t31.5 -47.5t12 -61q0 -55 -20.5 -98t-55 -74.5t-78.5 -52.5t-92 -32zM330 365q-17 -78 -27.5 -156t-21.5 -165q30 7 59.5 21.5t53.5 38t40 56t19 75.5q2 25 -7 46t-26 37.5t-40 28.5t-50 18z" />
    <glyph glyph-name="gamma" unicode="&#x3b3;" horiz-adv-x="347" 
d="M44 400q8 0 14 -3q20 -16 34.5 -39t25.5 -49t18.5 -54.5t14.5 -54.5l10 -44q2 3 5 6.5t5 8.5q38 55 71.5 115.5t54.5 123.5q7 19 28 20q15 2 22.5 -7t7.5 -17q0 -2 -2 -8q-11 -41 -31 -80.5t-44.5 -78t-51 -76t-50.5 -74.5q6 -35 7.5 -70.5t1.5 -64.5q0 -36 -2.5 -71.5
t-7.5 -73.5q-2 -16 -8 -37.5t-16.5 -41.5t-25 -34t-33.5 -14q-20 0 -33.5 10.5t-21 27.5t-10.5 38t-3 42q0 75 24.5 149t61.5 134q-7 42 -13.5 80t-17.5 67q-6 17 -11.5 34t-12.5 33t-16.5 30t-23.5 25q-7 10 -7 19q0 13 11 21t25 8zM96 -245q17 35 24.5 77t7.5 88
q0 27 -3 56q-19 -43 -30.5 -84.5t-11.5 -79.5q0 -32 11 -60q0 1 2 3z" />
    <glyph glyph-name="eta" unicode="&#x3b7;" horiz-adv-x="397" 
d="M235 334q-14 -8 -28.5 -31t-28 -54t-25.5 -66t-21.5 -67t-15.5 -57.5t-8 -37.5q-2 -15 -12 -22t-21 -6t-19.5 9.5t-7.5 24.5q5 88 11 184t22 184q3 15 14 21t22 4t19 -11t5 -24q-11 -53 -15 -108q7 16 17.5 36.5t25 39t32 31t38.5 12.5t34.5 -14t22 -34t12.5 -41.5
t7 -36.5q11 -57 23.5 -114.5t35.5 -111.5q6 -14 0 -24.5t-16.5 -15t-22 -1.5t-17.5 17q-24 57 -37 117.5t-24 120.5q-4 20 -8 39.5t-14 36.5z" />
    <glyph glyph-name="iota" unicode="&#x3b9;" horiz-adv-x="235" 
d="M144 126q-1 -24 3 -40q2 -7 4.5 -14t7.5 -18q6 -15 0 -26t-17.5 -16.5t-25 -5t-22.5 7.5q-5 4 -11.5 25t-5.5 63q1 37 5 86.5t7 115.5q1 7 1 15v19t1 21t3 20q5 23 13 32.5t19 10.5q19 1 34.5 -12.5t13.5 -34.5q-1 -11 -5.5 -45.5t-9.5 -75t-9.5 -77t-5.5 -51.5z" />
    <glyph glyph-name="xi" unicode="&#x3be;" horiz-adv-x="345" 
d="M39 -228q0 10 9 21q4 7 10 10q18 13 35 12h4q18 10 40 24.5t43.5 30t41 30.5t31.5 27q-31 16 -53.5 26.5t-39.5 18.5t-31 16t-27 19q-11 10 -23 22t-21.5 27t-15 34t-4.5 45q2 24 15.5 47t33 44.5t41.5 39.5t40 31q-48 19 -74.5 44.5t-23.5 67.5q2 28 20.5 56.5t44 54
t53.5 46t48 32.5q-46 2 -102.5 12.5t-102.5 35.5q-14 8 -15 20.5t7 22.5q11 14 19.5 15.5t20.5 -4.5q48 -27 96.5 -35.5t105.5 -8.5q12 0 23.5 1.5t23.5 3.5q10 1 19.5 2t20.5 1q21 0 29 -12.5t1 -25.5q-4 -15 -26 -23q-3 -2 -18 -7t-31 -13q-14 -6 -42 -27t-56 -47.5
t-49.5 -53.5t-22.5 -46t12.5 -32t33.5 -21.5t41.5 -12t35.5 -3.5q5 0 10 0.5t10 1.5l17 3q15 1 23 -7.5t8.5 -20t-6 -22.5t-21.5 -14q-34 -7 -68.5 -19t-62.5 -30t-46 -42t-20 -55q-2 -27 10 -46.5t31 -33t41.5 -23.5l40.5 -18q16 -7 33 -15t31 -19q12 -10 19 -23t5 -32
q-2 -23 -28 -51t-62 -54t-73.5 -47.5t-61.5 -30.5q-17 -7 -34 0t-17 30z" />
    <glyph glyph-name="kappa" unicode="&#x3ba;" horiz-adv-x="429" 
d="M407 33q-9 -12 -23 -12q-9 0 -18 6q-27 20 -45.5 35.5t-35.5 29.5q-29 25 -71.5 49.5t-114.5 56.5q-4 -26 -5.5 -53t-1.5 -55q0 -42 5.5 -73.5t5.5 -62.5q0 -3 0.5 -8t-2.5 -9.5t-11 -7.5t-25 -3t-24 40t-7 118q0 45 3.5 93.5t8.5 96.5q13 123 31.5 175.5t38.5 52.5
q25 0 25 -31q0 -10 -3 -20q-10 -26 -17.5 -57t-12.5 -82q46 17 82 28.5t67 20.5q26 8 53 15t53 7q8 0 15 -7t7 -17q0 -6 -2 -11t-9 -9t-21.5 -9t-38.5 -11q-37 -10 -59.5 -17t-42 -14t-42 -16.5t-59.5 -23.5q38 -10 62.5 -23t44.5 -25q31 -17 53 -31t41.5 -28.5t39.5 -30.5
t49 -37q12 -8 12 -22q0 -11 -6 -18z" />
    <glyph glyph-name="lambda" unicode="&#x3bb;" horiz-adv-x="368" 
d="M52 616q-5 14 0.5 21.5t16.5 10.5t24 0t21 -13q10 -20 19 -42t18 -45q25 -65 46.5 -133.5t41.5 -126.5q25 -77 52.5 -151.5t51.5 -150.5l3 -11q2 -12 -3.5 -19t-14.5 -10q-11 -3 -22.5 -1.5t-19.5 8.5q0 1 -1.5 3.5t-3.5 5.5q-20 75 -47.5 146.5t-52.5 145.5l-4 -10
q-6 -13 -17.5 -39t-25 -59.5t-27.5 -70.5t-25.5 -71t-19.5 -61.5t-9 -42.5q-1 -17 -11.5 -24.5t-22.5 -6.5t-21.5 10t-8.5 26q1 18 9 49t20.5 68t27.5 76.5t29.5 75t27.5 64t21 43.5q5 9 18 11.5t27 -1.5q-12 38 -25.5 80t-28.5 85t-30.5 84t-32.5 76z" />
    <glyph glyph-name="nu" unicode="&#x3bd;" horiz-adv-x="374" 
d="M349 443q10 10 27 10q11 0 20 -5t9 -15q0 -7 -6 -16q-30 -38 -61.5 -88t-58.5 -104.5t-47 -110t-26 -104.5q-3 -35 -46 -35q-14 0 -25.5 10.5t-16.5 33.5q-17 81 -46 160.5t-52 153.5q0 14 8 20.5t19 6.5q8 0 17 -3.5t14 -11.5q20 -68 42.5 -132.5t39.5 -133.5
q12 43 33 92.5t46.5 98t54 93.5t55.5 80z" />
    <glyph glyph-name="omicron" unicode="&#x3bf;" horiz-adv-x="372" 
d="M241 343q-16 0 -32 -5t-30.5 -12.5t-26.5 -15.5t-19 -13q-3 -2 -6 -9q-5 -11 -7 -13l-4 -4q-5 -5 -13.5 -8t-16.5 -2q-5 -16 -7 -29t-4 -25q-3 -30 1 -56.5t14 -47t24.5 -32t31.5 -11.5q29 0 54 19t44 47.5t32 63t18 66.5q1 15 -0.5 30.5t-7.5 28t-17 20.5t-28 8zM147 -1
q-34 0 -58.5 17t-41 44t-24.5 61t-8 67q0 10 0.5 18.5t1.5 16.5q5 40 22 75t45 52q23 14 40.5 16t26.5 0q35 19 61.5 28.5t47.5 9.5q28 0 47.5 -12.5t31 -32.5t16 -44t2.5 -48q-4 -41 -22 -88t-46 -87.5t-64.5 -67t-77.5 -25.5z" />
    <glyph glyph-name="omegatonos" unicode="&#x3ce;" horiz-adv-x="611" 
d="M388 599q-10 -3 -19.5 -14.5t-17.5 -25.5t-14.5 -29.5t-11.5 -25.5q-6 -14 -17.5 -17t-22 1.5t-15.5 15t1 24.5q6 15 18.5 31.5t27.5 31.5t30.5 27t28.5 17q9 3 15 -1t8.5 -11t0 -14t-11.5 -10zM392 -18q-27 0 -47 17t-34 45t-23.5 62.5t-16.5 70.5q-20 -45 -47.5 -86
t-51.5 -72q-10 -12 -20.5 -23t-20 -15t-17.5 1t-13 24q-8 32 -14 71t-14 79q-4 21 -10.5 47t-14.5 52t-17 49t-17 38q-7 13 -3 23t14 16q11 5 22 3t18 -14q13 -23 25 -54.5t22.5 -68.5t20 -77.5t16.5 -81.5q22 43 34 64.5t22 39.5q22 38 44 81.5t44 75.5q3 4 6 6.5t7 5.5
q15 11 32.5 4t17.5 -28q2 -15 -10 -40q0 -6 -1 -7q-1 -26 -4.5 -57.5t-1 -64.5t13.5 -64t38 -55q31 0 53 20t36.5 51t21 69.5t6.5 75.5q0 38 -5.5 71.5t-16.5 53.5q-8 15 -2.5 27.5t17.5 18.5q11 6 24 3t21 -18q17 -33 24.5 -78.5t4.5 -94.5t-15.5 -96.5t-35.5 -85t-56 -61
t-76 -23.5z" />
    <glyph glyph-name="rho" unicode="&#x3c1;" horiz-adv-x="409" 
d="M257 415q31 0 53.5 -12t37 -33.5t21.5 -50.5t7 -63q0 -50 -14.5 -99.5t-39 -89.5t-58 -64.5t-71.5 -24.5h-15q-20 0 -35.5 6t-36.5 33q-7 8 -7 18q0 11 8 18t18 7q7 0 12.5 -4.5t11 -9.5t12 -9.5t15.5 -4.5q6 0 10.5 -0.5t9.5 -0.5t9.5 1t9.5 5q52 42 77 97.5t25 123.5
q0 59 -12 80.5t-42 21.5q-18 0 -37.5 -11t-37 -26.5t-32 -33t-22.5 -29.5q-26 -45 -39 -98t-13 -103q0 -94 13.5 -172.5t54.5 -143.5q17 -7 27.5 -16.5t10.5 -21.5q0 -14 -10 -21.5t-21 -7.5q-21 0 -39 16.5t-33 44t-27 63.5t-20 76t-12.5 81.5t-4.5 79.5q0 39 6.5 82t19 85
t32 80.5t45.5 67.5t59.5 46t73.5 17z" />
    <glyph glyph-name="sigma" unicode="&#x3c3;" horiz-adv-x="414" 
d="M292 379q25 -29 37.5 -54.5t17.5 -57.5q7 -47 -4 -87.5t-33 -73t-52 -56t-61 -37t-60 -16t-49 7.5q-29 14 -51 55t-22 96q0 36 17 75q23 51 46.5 86.5t49.5 59.5q1 26 25 31q29 5 58.5 13.5t59.5 18.5q30 9 58.5 16t56.5 9q17 1 26 -9t10 -23t-7 -24t-25 -12
q-20 -2 -39 -6zM228 353q-10 -2 -28 -9.5t-39 -25.5t-43 -49t-39 -79q-6 -17 -6 -37q0 -30 12.5 -59.5t36.5 -38.5q17 -6 38.5 1t42 21.5t37.5 32.5t25 33q20 39 27.5 79t-11.5 82q-8 18 -17.5 30.5t-35.5 18.5z" />
    <glyph glyph-name="tau" unicode="&#x3c4;" horiz-adv-x="345" 
d="M356 406q-10 3 -22 1q-20 -3 -34.5 -4t-27.5 -2t-26.5 -2.5t-31.5 -5.5q-5 -32 -10.5 -84.5t-10 -108.5t-5 -105t5.5 -73q6 -28 -3.5 -37t-23.5 -7q-15 2 -29.5 16.5t-12.5 41.5q1 17 1.5 37.5t0.5 45.5q0 50 9 128q2 22 4 38.5t4 31.5l4 30t4 33q-35 -9 -51 -14.5
t-28 -12.5q-11 -7 -23 -15t-29 -19q-11 -8 -18 -6q-30 8 -33.5 26.5t13.5 31.5q19 15 46 27t57 21.5t61 16.5t58 11q41 5 74.5 7.5t75.5 -0.5q22 -1 33 -9t13 -17t-4.5 -16.5t-20.5 -7.5q-5 0 -10 0.5t-10 1.5z" />
    <glyph glyph-name="theta" unicode="&#x3b8;" horiz-adv-x="435" 
d="M175 -20q-36 0 -60.5 22t-39.5 55.5t-21.5 74.5t-6.5 79q0 8 2.5 29.5t9.5 66.5l-35 -5q-14 -2 -22 3.5t-10 13.5q-2 7 3 14t19 10l52 10q11 64 21 109t16 56q2 3 5 5.5t11 7.5q5 32 13.5 59.5t25 47.5t43.5 31t69 11q46 0 74 -22t43.5 -55.5t20.5 -73t5 -74.5
q0 -34 -5 -82.5t-16.5 -101t-29.5 -105t-44.5 -94t-62 -67t-80.5 -25.5zM120 317q-6 -45 -9 -72.5t-3 -33.5q0 -21 1 -51t7.5 -57.5t20 -47t38.5 -19.5q33 0 58.5 27.5t45 71t32.5 98t21 108.5q-32 -2 -59.5 -4.5t-52.5 -5.5t-49.5 -6.5t-50.5 -7.5zM270 623q-19 0 -33 -7
t-23.5 -18.5t-15.5 -25.5t-9 -28q-8 -27 -10 -54.5t-6 -44.5q-2 -9 -10 -15t-28 -9l-8 -56q30 6 55.5 11t50.5 8.5t50.5 6.5t54.5 5l3 39t1 20q0 10 -3 37.5t-10.5 56.5t-22 51.5t-36.5 22.5z" />
    <glyph glyph-name="omega" unicode="&#x3c9;" horiz-adv-x="611" 
d="M392 -18q-27 0 -47 17t-34 45t-23.5 62.5t-16.5 70.5q-20 -45 -47.5 -86t-51.5 -72q-10 -12 -20.5 -23t-20 -15t-17.5 1t-13 24q-8 32 -14 71t-14 79q-4 21 -10.5 47t-14.5 52t-17 49t-17 38q-7 13 -3 23t14 16q11 5 22 3t18 -14q13 -23 25 -54.5t22.5 -68.5t20 -77.5
t16.5 -81.5q22 43 34 64.5t22 39.5q22 38 44 81.5t44 75.5q3 4 6 6.5t7 5.5q15 11 32.5 4t17.5 -28q2 -15 -10 -40q0 -6 -1 -7q-1 -26 -4.5 -57.5t-1 -64.5t13.5 -64t38 -55q31 0 53 20t36.5 51t21 69.5t6.5 75.5q0 38 -5.5 71.5t-16.5 53.5q-8 15 -2.5 27.5t17.5 18.5
q11 6 24 3t21 -18q17 -33 24.5 -78.5t4.5 -94.5t-15.5 -96.5t-35.5 -85t-56 -61t-76 -23.5z" />
    <glyph glyph-name="sigma1" unicode="&#x3c2;" horiz-adv-x="333" 
d="M212 7q-16 -6 -31.5 -11t-30.5 -11t-28.5 -14.5t-25.5 -21.5q-2 -4 -5 -7.5t-9 -6.5q-8 -4 -19.5 1.5t-18.5 16.5t-4.5 24.5t21.5 25.5q10 7 26 12l23 9q12 6 24.5 10.5t25.5 9.5q17 6 28.5 10t25.5 10q28 13 44 29q-7 8 -19.5 15.5t-28.5 12.5q-25 8 -57 17.5t-60 24
t-47.5 37t-19.5 57.5t21.5 63.5t52.5 48t66.5 29.5t62.5 8q11 -1 19 -5.5t9 -15.5q1 -5 1 -15q0 -7 -3 -13q-5 -9 -11.5 -11.5t-13 -2t-12 2.5t-8.5 4h-3q-16 -1 -37.5 -8.5t-41.5 -19.5t-34 -28.5t-14 -36.5q0 -16 10.5 -27t26.5 -19q10 -4 19 -7.5t19 -6.5l42 -12
q22 -6 43 -13.5t37 -17.5t26 -23.5t10 -32.5q0 -31 -30 -52.5t-71 -38.5z" />
    <glyph glyph-name="chi" unicode="&#x3c7;" horiz-adv-x="378" 
d="M327 439q14 0 24.5 -7t10.5 -17q0 -5 -3.5 -11t-11.5 -12q-35 -27 -72 -69t-70 -92l26 -27q37 -38 70 -78t47 -89q1 -3 1 -8q0 -13 -9.5 -20t-21.5 -7q-11 0 -21 5.5t-14 16.5q-14 44 -44 81t-65 75q-26 -47 -44 -93.5t-18 -83.5q0 -5 0.5 -12.5t1.5 -12.5q0 -3 0.5 -5.5
t0.5 -4.5q-4 -12 -14 -19.5t-20 -7.5q-24 0 -30.5 20t-6.5 44v6.5t1 6.5q11 55 32 108.5t50 104.5q-25 29 -45.5 62t-30.5 68q1 14 10.5 22.5t20.5 8.5q3 0 9 -1.5t12 -4t10 -6t4 -8.5q6 -26 17.5 -47.5t26.5 -41.5q62 88 145 151q9 5 21 5z" />
    <glyph glyph-name="upsilon" unicode="&#x3c5;" horiz-adv-x="328" 
d="M190 10q-29 -10 -51.5 -4.5t-39.5 24t-29 47.5t-20 65q-12 52 -16.5 109t-4.5 99v25.5t-1 19.5q-1 23 9.5 30.5t21.5 5.5q14 -2 25 -12t10 -27q-1 -10 -1 -21v-24q0 -31 1 -67.5t4 -71t8.5 -64.5t15.5 -48q7 -15 21.5 -23.5t32.5 9.5q11 12 19.5 35t15.5 51.5t11.5 59
t7.5 57t4.5 46.5t1.5 27q1 25 12 33t22 6q14 -2 25.5 -13t11.5 -30q0 -10 -3.5 -37.5t-10.5 -63.5t-17.5 -76.5t-23.5 -75.5t-28.5 -60t-33.5 -31z" />
    <glyph glyph-name="zeta" unicode="&#x3b6;" horiz-adv-x="305" 
d="M75 -258q-11 -2 -22 6t-11 21q0 20 6.5 29.5t18 14.5t26 8t29.5 9q4 1 7 2t5 2q16 10 33.5 22t33.5 24t29.5 23t22.5 20l-3 11q-12 22 -32 39q-15 13 -30 32.5t-32 36.5q-30 29 -56 65q-26 38 -41 86.5t-10 114.5q7 87 54.5 166t119.5 136q-52 2 -99 9.5t-83 26.5
q-11 6 -15 13.5t1 21.5t18 22.5t29 0.5q34 -18 85.5 -23.5t100.5 -5.5h59q2 0 8 0.5t13 0.5t13 0.5t7 0.5q16 0 24.5 -8t6.5 -20q-2 -11 -14 -22t-35 -17q-7 -2 -13 -3.5t-10 -3.5q-44 -23 -80 -54.5t-62.5 -70t-43 -82t-20.5 -88.5q-5 -54 9 -94.5t38 -72t52.5 -57
t54.5 -49.5q17 -17 31 -33t23 -35q4 -8 6.5 -17t1.5 -20q-1 -16 -15 -34t-35 -36.5t-47 -36t-52 -33t-49 -27.5t-39 -18q-9 -3 -17 -3z" />
    <glyph glyph-name="iotadieresis" unicode="&#x3ca;" 
d="M142 123q-1 -13 -0.5 -22t2.5 -17q1 -7 3.5 -14t6.5 -17q5 -16 0 -26.5t-14.5 -15.5t-21 -4.5t-18.5 7.5q-4 4 -9.5 24t-4.5 62q1 35 4 84t6 112v33q0 11 1 21t3 20q6 40 27 42q15 1 28.5 -12.5t11.5 -34.5q-1 -7 -3 -25t-4.5 -41.5t-5 -50.5t-5 -51.5t-4.5 -44.5t-3 -29
zM230 502q-11 0 -22.5 9.5t-13.5 31.5t3.5 29t19.5 9q11 2 23.5 -3.5t14.5 -28.5q2 -29 -7.5 -38t-17.5 -9zM56 502q-11 0 -22.5 9.5t-13.5 31.5t4 29t20 9q11 2 23.5 -3.5t14.5 -28.5q3 -29 -7 -38t-19 -9z" />
    <glyph glyph-name="upsilondieresis" unicode="&#x3cb;" horiz-adv-x="354" 
d="M203 10q-29 -10 -51.5 -4.5t-39.5 23t-29 46t-20 64.5q-8 35 -12.5 71.5t-6.5 69.5q-1 17 -1.5 32t-0.5 29v25.5t-1 19.5q-1 23 9.5 30t21.5 5q14 -2 25 -12t10 -26q-1 -10 -1 -20.5v-23.5q0 -38 2 -80.5t7 -81.5q3 -25 8 -47t12 -36q8 -15 22 -23t32 10q16 18 27.5 58.5
t19 84t10.5 79.5t3 46q1 25 12 32.5t22 5.5q14 -2 25.5 -12.5t11.5 -29.5q0 -9 -3.5 -35.5t-11 -62t-17.5 -74.5t-23 -73.5t-28.5 -59t-33.5 -30.5zM270 502q-11 0 -22.5 9.5t-13.5 31.5t3.5 29t19.5 9q11 2 23.5 -3.5t14.5 -28.5q2 -29 -7.5 -38t-17.5 -9zM96 502
q-11 0 -22.5 9.5t-13.5 31.5t4 29t20 9q11 2 23.5 -3.5t14.5 -28.5q3 -29 -7 -38t-19 -9z" />
    <glyph glyph-name="iotadieresistonos" unicode="&#x390;" 
d="M142 123q-1 -13 -0.5 -22t2.5 -17l9 -31q5 -16 0.5 -26.5t-13.5 -15.5t-20.5 -4t-18.5 7q-4 4 -9.5 24t-4.5 62q1 35 4.5 84t5.5 112q1 7 1 15v18q0 21 3 41q8 41 26 42q15 1 28 -12.5t11 -34.5q-2 -11 -5 -44.5t-7 -72.5t-7.5 -75t-4.5 -50zM211 599q-10 -3 -19.5 -14.5
t-17.5 -25.5t-14.5 -29.5t-11.5 -25.5q-6 -14 -17.5 -17t-22 1.5t-16 15t0.5 24.5t18.5 31t27.5 32t30.5 27t28.5 17q9 3 15.5 -1t9 -11t0 -14t-11.5 -10zM37 502q-11 0 -22.5 9.5t-13.5 31.5t4 29t20 9q11 2 23.5 -3.5t14.5 -28.5q3 -29 -7 -38t-19 -9zM261 502
q-11 0 -22.5 9.5t-13.5 31.5t3.5 29t19.5 9q11 2 23.5 -3.5t14.5 -28.5q2 -29 -7.5 -38t-17.5 -9z" />
    <glyph glyph-name="upsilondieresistonos" unicode="&#x3b0;" horiz-adv-x="354" 
d="M202 10q-29 -10 -51 -4.5t-39 23t-29 46t-20 64.5q-8 35 -12 71.5t-6 69.5q-1 17 -1.5 32t-0.5 29v25t-1 19q-1 23 9.5 30.5t21.5 5.5q14 -2 24.5 -12t9.5 -27q-1 -10 -1 -20.5v-23.5q0 -36 2 -79.5t7 -81.5q3 -25 7.5 -47t11.5 -36q8 -15 22 -23t32 10q12 12 21 34.5
t15.5 50.5t11 57.5t7.5 55.5t4 45t1 25q1 25 12 32.5t22 5.5q13 -2 24.5 -12.5t11.5 -29.5q0 -9 -3.5 -36t-11 -62t-17.5 -74t-23 -73t-28.5 -59t-32.5 -31zM250 599q-10 -3 -19.5 -14.5t-17.5 -25.5t-14.5 -29.5t-11.5 -25.5q-6 -14 -17.5 -17t-22 1.5t-16 15t0.5 24.5
t18.5 31t27.5 32t30.5 27t28.5 17q9 3 15.5 -1t9 -11t0 -14t-11.5 -10zM300 502q-11 0 -22.5 9.5t-13.5 31.5t3.5 29t19.5 9q11 2 23.5 -3.5t14.5 -28.5q2 -29 -7.5 -38t-17.5 -9zM76 502q-11 0 -22.5 9.5t-13.5 31.5t4 29t20 9q11 2 23.5 -3.5t14.5 -28.5q3 -29 -7 -38
t-19 -9z" />
    <glyph glyph-name="caron" unicode="&#x2c7;" horiz-adv-x="388" 
d="M277 543q3 -2 7 -1t6 2q17 8 35 25.5t31 30.5q9 8 18 8t17 -6q7 -6 8 -15t-7 -19q-9 -9 -21 -21.5t-25.5 -25.5t-27 -25t-24.5 -20q-21 -18 -39 5q-10 13 -21.5 26t-22.5 29q-13 14 -23 28t-18 28q-6 11 -2 21t14 17q9 5 21 1t19 -18q3 -5 8.5 -15t13 -21t16 -20.5
t17.5 -13.5z" />
    <glyph glyph-name="breve" unicode="&#x2d8;" horiz-adv-x="388" 
d="M152 619q0 13 6.5 19.5t14.5 6.5q9 0 17.5 -7t10.5 -19q4 -35 18.5 -47.5t39.5 -12.5q31 0 48 13.5t27.5 29.5t17 29.5t17.5 13.5q10 0 17.5 -7t7.5 -19q0 -3 -1 -5q-11 -46 -48 -73.5t-84 -27.5q-17 0 -36 5.5t-35 18.5t-27 33t-11 49z" />
    <glyph glyph-name="dotaccent" unicode="&#x2d9;" horiz-adv-x="372" 
d="M278 502q-6 0 -13.5 2.5t-15 8t-13 14.5t-6.5 21q-2 25 5.5 32.5t29.5 10.5q6 1 14.5 0t16 -4.5t13 -11t7.5 -20.5q3 -32 -9 -42.5t-29 -10.5z" />
    <glyph glyph-name="ogonek" unicode="&#x2db;" horiz-adv-x="314" 
d="M131 4q0 14 7.5 21t17.5 7q11 0 18.5 -9t12.5 -21t7 -24.5t2 -19.5q0 -13 -9 -28.5t-36 -39.5q-5 -5 -5 -12t4.5 -14t11.5 -13t15.5 -10.5t15.5 -5.5q13 10 29 14q15 0 23 -7.5t8 -18.5q0 -9 -6.5 -17t-15.5 -14t-19 -10t-17 -4q-13 0 -31 8t-34.5 21t-28 30t-11.5 34
q0 5 4 17t11.5 26t17 26.5t21.5 19.5q-3 8 -7 18.5t-6 19.5v6z" />
    <glyph glyph-name="hungarumlaut" unicode="&#x2dd;" horiz-adv-x="388" 
d="M345 641q12 9 22 9q18 0 18 -20q0 -11 -10 -24q-20 -16 -32 -40t-17 -50q-9 -21 -28 -21q-10 0 -17 6.5t-9 20.5q6 35 25.5 66t47.5 53zM270 599q-17 -6 -27.5 -24t-19.5 -38t-18.5 -35.5t-23.5 -15.5q-12 0 -21.5 8t-9.5 21q0 10 12.5 30t30.5 40.5t38 35.5t34 15
q8 0 13 -5.5t5 -13.5q0 -12 -13 -18z" />
    <glyph glyph-name="Aogonek" unicode="&#x104;" horiz-adv-x="614" 
d="M493 -24q-1 36 -8 72t-16 72t-18.5 71.5t-16.5 69.5q-40 -4 -72 -7.5t-62.5 -9t-62 -15t-70.5 -26.5q-14 -22 -31.5 -55t-35 -68.5t-32.5 -69t-22 -57.5q-8 -24 -31 -24q-13 0 -23.5 7.5t-9.5 21.5q1 15 12 44.5t26 62.5t30.5 63t25.5 46q-14 0 -22 9.5t-7 21.5
q1 11 8.5 17t18.5 10t24 7t25 9q51 81 96 163.5t96 163.5q5 8 10.5 18t10 20t8.5 17.5t7 10.5l-2 5q-3 8 -2 14q1 13 12 21t24 8q15 0 26.5 -18.5t19 -44.5t13 -54t8.5 -47q18 -106 39 -208t49 -205q8 -30 15.5 -65t5.5 -71q0 -1 -0.5 -2t-0.5 -2q0 -4 0.5 -7t0.5 -6
q0 -13 -9 -28.5t-36 -39.5q-5 -5 -5 -12t4.5 -14t11.5 -13t15.5 -10.5t15.5 -5.5q13 10 29 14q15 0 23 -7.5t8 -18.5q0 -9 -6.5 -17t-15.5 -14t-19 -10t-17 -4q-13 0 -31 8t-34.5 21t-28 30t-11.5 34q0 5 3.5 16t9.5 23.5t14.5 25t19.5 20.5q-7 7 -7 19zM220 287
q49 16 100.5 22t102.5 11q-10 60 -21 118.5t-25 118.5l-22 -34l-22 -34q-32 -49 -55.5 -95t-51.5 -95z" />
    <glyph glyph-name="aogonek" unicode="&#x105;" horiz-adv-x="388" 
d="M265 113q-46 -61 -85.5 -92.5t-74.5 -31.5q-21 0 -34.5 11t-21.5 27.5t-11.5 35.5t-3.5 35q0 40 4 68.5t13 56.5q7 21 24 56t40.5 68.5t51.5 58t57 24.5q19 0 34.5 -13.5t13.5 -25.5q-2 -14 -8 -19.5t-11 -7.5h-5t-8 1q-5 0 -10 0.5t-10 0.5q-7 -1 -18 -7t-22 -17
q-44 -44 -70.5 -103t-25.5 -121q0 -21 6 -32.5t15.5 -15.5t21.5 -1.5t23 9.5q19 12 36.5 31t32.5 40t27 43.5t20 42.5q5 19 9 39t7 37t5 29.5t3 18.5q2 9 11.5 15t19.5 6.5t17 -6.5t5 -26q-4 -31 -12 -61t-10 -61q-3 -42 -1 -83t10 -68q2 -6 3 -11t6 -13q17 -1 24.5 -8
t8 -16t-4.5 -18t-12 -13q1 -17 -4 -36t-21 -48q-10 -18 -0.5 -35t27.5 -21q11 1 18 6t16 5q25 0 28.5 -17t-16.5 -31q-16 -11 -34 -12.5t-36 4.5q-34 13 -50.5 38t-4.5 67q2 7 7.5 16t11.5 18.5t11.5 18t7.5 14.5q-1 8 -2 12.5t-3 6.5q-31 23 -46 111z" />
    <glyph glyph-name="Dcroat" unicode="&#x110;" horiz-adv-x="658" 
d="M149 631q50 14 96 19t94 5q44 0 95.5 -9t95 -31t72.5 -60t29 -95q0 -41 -15 -84t-35 -71q-66 -91 -151.5 -158.5t-188.5 -111.5q-15 -6 -32.5 -14.5t-37 -16t-39.5 -13t-39 -6.5v-1q-12 -18 -34 -18q-10 0 -22 7t-12 22q0 9 3 15q-2 4 -2 14l3 9q3 8 9 14q2 10 4.5 34
t5.5 56t6 70.5t6 78.5q-25 -8 -46 -15t-28 -7q-13 0 -21 8.5t-8 19.5q0 9 8.5 17.5t23.5 15.5t34.5 14t41.5 13q2 34 4 66t3.5 59t2.5 47t2 30q-5 7 -5 15q0 6 3 14l3 6q1 13 1.5 25.5t0.5 25.5v16q0 16 10.5 24t23.5 8q11 0 20.5 -6t13.5 -17l1 -5q1 -5 1 -15v-5.5t-1 -4.5
v-4zM233 590q-6 -1 -17 -3t-24 -5t-25.5 -6.5t-19.5 -8.5q-1 -22 -4 -76.5t-7 -121.5q47 10 95 13t98 5q13 -4 19 -12.5t6 -18.5t-7 -18t-21 -11q-51 -2 -99.5 -6.5t-95.5 -14.5q-3 -43 -5.5 -84.5t-5.5 -76.5t-6 -60.5t-5 -37.5q49 10 104.5 36.5t107.5 60.5t95 71t68 67
q28 35 52 81.5t24 94.5q0 42 -18 69t-48.5 43t-69.5 22.5t-81 6.5q-31 0 -59.5 -2.5t-50.5 -6.5z" />
    <glyph glyph-name="dcroat" unicode="&#x111;" horiz-adv-x="389" 
d="M224 427q-11 -6 -21 -5.5t-16 5.5t-7 14.5t5 20.5q29 24 56 36.5t56 20.5q3 20 5.5 34t2.5 15q-7 26 -6 39.5t6 19.5t12.5 7.5t13.5 3.5q23 8 38 -1t6 -35q-2 -5 -6 -23t-9 -47q15 3 31.5 7t34.5 9q12 1 20 -4t10.5 -12.5t-1 -16t-14.5 -14.5q-24 -7 -46.5 -11t-43.5 -9
q-8 -43 -12 -91q9 -4 13 -12.5t4 -17.5t-5.5 -16.5t-16.5 -10.5q-3 -27 -5.5 -56.5t-4 -58t-2 -55.5t-0.5 -49q0 -26 3.5 -50.5t12.5 -43.5q5 -9 10 -10.5t7 -11.5q2 -7 2.5 -13t-4.5 -11q-6 -7 -14.5 -6t-12.5 1q-9 -1 -19.5 7.5t-15.5 17.5q-6 11 -10.5 24t-7.5 27
q-14 -11 -33 -19.5t-40 -14.5t-42 -9.5t-39 -3.5q-25 0 -43 11t-29 28t-16.5 36.5t-5.5 36.5q0 43 24 87t60.5 81.5t81.5 65.5t87 40q0 13 2.5 34.5t6.5 45.5q-17 -7 -32.5 -15.5t-30.5 -21.5zM274 319q-31 -12 -64.5 -35t-61 -52t-45.5 -61t-18 -61q0 -25 11.5 -38.5
t22.5 -13.5q18 0 40 5t42.5 13.5t37 21t23.5 27.5v27q1 18 2.5 39.5t3 44t3 44t3.5 39.5z" />
    </font>
</defs>
</svg>
